<svg width="72" height="72" viewBox="0 0 72 72" fill="none" xmlns="http://www.w3.org/2000/svg">
<rect width="72" height="72" rx="8" fill="#FFF3E5"/>
<path d="M31.5099 57.2102C28.7001 57.2102 25.8903 56.2649 23.0806 54.3745C20.2708 52.484 18.866 49.8846 18.866 46.5763C18.866 45.9855 18.866 45.3948 18.866 44.804C18.9783 44.2132 19.0345 43.6815 19.0345 43.2089C19.0345 42.5 18.5288 41.9092 17.5173 41.4366C16.5058 40.8459 16 40.196 16 39.4871C16.1124 39.3689 16.281 39.3099 16.5058 39.3099C16.9553 39.3099 17.4049 39.428 17.8544 39.6643C18.304 39.7825 18.7536 39.8415 19.2031 39.8415C19.5403 39.8415 19.9337 39.7234 20.3832 39.4871C20.608 39.2508 21.0576 38.1874 21.7319 36.2969C22.5186 34.4065 23.6425 32.1025 25.1036 29.3849C26.5647 26.6674 28.4191 24.068 30.6669 21.5868C32.9147 18.9874 35.6121 16.9788 38.759 15.5609C39.4334 15.3246 40.1077 15.0883 40.782 14.852C41.5688 14.4975 42.2993 14.3203 42.9737 14.3203C44.2099 14.3203 45.5024 14.852 46.8511 15.9154C48.3122 16.8606 49.0427 18.0422 49.0427 19.46C49.0427 20.2871 48.8741 21.0551 48.537 21.764C48.1998 22.3548 47.8626 23.0046 47.5255 23.7135L46.6825 24.2452C46.3454 24.836 45.7272 25.6631 44.8281 26.7265C44.0414 27.6717 43.648 28.3806 43.648 28.8532C43.648 28.8532 43.5918 28.8532 43.4794 28.8532C43.4794 28.8532 43.4794 28.9123 43.4794 29.0305L42.8051 29.2077C42.1307 29.6803 41.5688 30.2711 41.1192 30.98C40.6697 31.6889 40.1639 32.2206 39.6019 32.5751C37.4665 34.1111 35.3311 35.588 33.1957 37.0059C31.1727 38.4237 28.9811 39.7234 26.6209 40.9049C26.1713 41.1412 25.6656 41.3185 25.1036 41.4366C24.5417 41.5548 24.0921 41.8502 23.7549 42.3228C23.3054 43.0317 22.9682 43.8588 22.7434 44.804C22.631 45.7492 22.5748 46.6945 22.5748 47.6397C22.5748 49.0575 22.912 50.6526 23.5863 52.4249C24.2607 54.0791 25.4408 54.9062 27.1266 54.9062C27.3514 54.9062 27.52 54.9062 27.6324 54.9062C27.8572 54.788 28.0258 54.7289 28.1381 54.7289C28.8125 54.7289 29.4306 54.6699 29.9926 54.5517C30.6669 54.4336 31.3413 54.3154 32.0156 54.1972L33.0271 53.6655H33.1957C33.7577 53.6655 34.8254 53.252 36.3988 52.4249C38.0847 51.4797 39.7143 50.5345 41.2878 49.5892C42.8613 48.5259 43.8166 47.8169 44.1538 47.4625C44.3785 47.3443 44.5471 47.1671 44.6595 46.9308C44.8843 46.6945 45.0529 46.5172 45.1653 46.3991C47.0759 44.8631 49.0427 43.3862 51.0658 41.9683C53.0888 40.5505 54.9994 38.8963 56.7977 37.0059V37.1831H57.1348C57.0224 37.7738 56.5729 38.3646 55.7861 38.9554C55.1118 39.5462 54.606 40.1369 54.2689 40.7277C53.0326 43.0908 51.0658 45.3357 48.3684 47.4625C45.671 49.5892 43.1984 51.4206 40.9506 52.9566C40.1639 53.5474 39.3772 54.1972 38.5904 54.9062C37.9161 55.4969 37.1294 55.9695 36.2302 56.324C34.5444 56.9148 32.9709 57.2102 31.5099 57.2102ZM24.935 37.7148C25.8341 37.7148 26.6771 37.3603 27.4638 36.6514C28.3629 35.8243 29.0373 35.3517 29.4868 35.2335L29.6554 35.4108V35.2335C31.7908 34.1702 33.8139 32.6932 35.7245 30.8028C37.7475 28.9123 39.6019 27.0809 41.2878 25.3086H41.625C41.625 24.5997 42.1307 23.8317 43.1422 23.0046C44.1538 22.0594 44.6595 21.2914 44.6595 20.7006C44.8843 20.4643 45.1091 20.1099 45.3339 19.6372C45.5586 19.0465 45.671 18.6329 45.671 18.3966C45.3339 18.1603 44.8281 18.0422 44.1538 18.0422C43.5918 18.2785 42.8613 18.692 41.9621 19.2828C41.063 19.8735 40.2763 20.1689 39.6019 20.1689C39.6019 20.2871 39.04 20.7597 37.9161 21.5868C36.9046 22.4139 35.8369 23.3 34.713 24.2452C33.5891 25.1905 32.8585 25.8403 32.5214 26.1948C31.9594 26.7855 31.0603 27.8489 29.824 29.3849C28.5877 30.9209 27.4638 32.4569 26.4523 33.9929C25.4408 35.5289 24.935 36.7105 24.935 37.5375V37.7148Z" fill="#4C2A00"/>
</svg>
