<svg width="154" height="36" viewBox="0 0 154 36" fill="none" xmlns="http://www.w3.org/2000/svg">
<path d="M138.077 34.8619C137.917 34.782 137.758 34.5823 137.598 34.2629C137.399 33.9833 137.219 33.6838 137.059 33.3644C136.9 33.0848 136.74 32.965 136.58 33.005C136.58 32.8452 136.561 32.7055 136.521 32.5857C136.441 32.4659 136.401 32.3461 136.401 32.2263C137.239 31.0682 138.257 30.0299 139.454 29.1115C140.691 28.193 141.928 27.4143 143.165 26.7754H143.345C143.624 26.4958 143.943 26.2562 144.302 26.0566C144.702 25.8569 145.001 25.6173 145.2 25.3378V25.2779C144.682 24.9584 144.123 24.6789 143.524 24.4393C142.926 24.1997 142.407 23.8602 141.968 23.421C141.569 23.1015 141.19 22.7022 140.831 22.2229C140.511 21.7437 140.352 21.2246 140.352 20.6655C140.352 19.787 140.771 18.9883 141.609 18.2695C142.447 17.5108 143.205 16.9318 143.883 16.5324C144.083 16.2928 144.462 16.0133 145.021 15.6938C145.619 15.3744 146.218 15.0749 146.817 14.7953C147.455 14.4759 147.914 14.2562 148.193 14.1364V14.1963C148.473 13.9967 148.792 13.8569 149.151 13.777L149.87 13.4775H149.989C150.309 13.3977 150.648 13.3178 151.007 13.2379C151.366 13.1181 151.705 13.0582 152.025 13.0582C152.384 13.0582 152.803 13.2579 153.282 13.6572C153.76 14.0566 154 14.4559 154 14.8552C154 15.015 153.88 15.3145 153.641 15.7537C153.441 16.1531 153.202 16.5324 152.922 16.8918C152.683 17.2512 152.483 17.4709 152.324 17.5507C152.284 17.5507 152.244 17.5707 152.204 17.6106C152.204 17.6106 152.184 17.6106 152.144 17.6106V17.4908C152.344 17.2512 152.523 16.8918 152.683 16.4126C152.883 15.8935 152.982 15.4742 152.982 15.1547C152.982 14.5557 152.663 14.2562 152.025 14.2562C151.546 14.2562 151.087 14.3361 150.648 14.4958C150.249 14.6156 149.83 14.7754 149.391 14.975C147.914 15.4942 146.617 16.1131 145.5 16.8319C144.422 17.5108 143.425 18.5291 142.507 19.8868C142.347 20.1664 142.167 20.4659 141.968 20.7853C141.808 21.0649 141.728 21.3644 141.728 21.6839C141.728 22.0832 141.868 22.4226 142.148 22.7022C142.467 22.9418 142.786 23.1414 143.105 23.3012C143.225 23.381 143.524 23.5607 144.003 23.8403C144.482 24.1198 144.941 24.3993 145.38 24.6789C145.859 24.9185 146.118 25.0383 146.158 25.0383C146.358 25.0383 146.557 24.9584 146.757 24.7987C146.956 24.6389 147.136 24.5191 147.296 24.4393C147.854 24.1198 148.632 23.7205 149.63 23.2413C150.628 22.7221 151.426 22.4027 152.025 22.2829L152.863 22.1032C152.902 22.1032 152.962 22.1431 153.042 22.2229C153.002 22.2629 152.942 22.3228 152.863 22.4027C152.783 22.4426 152.703 22.4825 152.623 22.5225C152.384 22.7621 151.985 22.9817 151.426 23.1814C150.907 23.3411 150.548 23.5008 150.348 23.6606C150.229 23.7404 150.129 23.8602 150.049 24.02C149.969 24.1398 149.87 24.2396 149.75 24.3195C149.391 24.5591 148.932 24.8785 148.373 25.2779C147.814 25.6373 147.535 26.0566 147.535 26.5358C147.535 26.6955 147.555 26.8552 147.595 27.015C147.675 27.1747 147.715 27.3544 147.715 27.5541C147.715 27.8735 147.615 28.3328 147.415 28.9318C147.216 29.4908 146.976 29.8702 146.697 30.0699V30.3095C146.338 30.4293 146.058 30.6888 145.859 31.0882C145.699 31.4476 145.38 31.6073 144.901 31.5674L144.602 31.9268C144.322 31.9268 144.083 32.0266 143.883 32.2263C143.684 32.4659 143.484 32.6855 143.285 32.8852H143.225C142.946 32.8852 142.646 33.005 142.327 33.2446C142.048 33.5241 141.689 33.7637 141.25 33.9634C140.851 34.203 140.332 34.2629 139.693 34.1431C139.534 34.183 139.394 34.2429 139.274 34.3228C139.154 34.4026 139.015 34.4426 138.855 34.4426C138.735 34.4426 138.676 34.4026 138.676 34.3228C138.676 34.2828 138.735 34.203 138.855 34.0832C139.015 34.0033 139.434 33.8036 140.112 33.4842C140.791 33.1647 141.27 32.9251 141.549 32.7654C141.549 32.7254 141.629 32.6456 141.788 32.5258C141.988 32.406 142.108 32.3261 142.148 32.2862C142.666 31.9268 143.245 31.4675 143.883 30.9085C144.522 30.3095 145.081 29.6705 145.56 28.9917C146.038 28.2729 146.278 27.594 146.278 26.9551C146.278 26.8353 146.258 26.6755 146.218 26.4759C146.178 26.2363 146.078 26.1165 145.919 26.1165C145.759 26.1165 145.599 26.1963 145.44 26.3561C145.32 26.5158 145.22 26.6356 145.141 26.7155C144.861 26.9151 144.562 27.1148 144.243 27.3145C143.923 27.5141 143.604 27.7338 143.285 27.9734C142.886 28.2529 142.527 28.5724 142.207 28.9318C141.888 29.2512 141.529 29.5707 141.13 29.8902C140.611 30.2895 140.132 30.7088 139.693 31.1481C139.254 31.5474 138.815 31.9867 138.376 32.4659C138.057 32.7853 137.897 33.1847 137.897 33.6639C137.897 33.8236 137.937 33.9833 138.017 34.1431C138.097 34.3427 138.137 34.5424 138.137 34.7421L138.077 34.8619Z" fill="#4C2A00"/>
<path d="M123.2 31.5075C122.642 31.5075 122.023 31.208 121.345 30.609C120.666 29.9701 120.327 29.3511 120.327 28.7521H120.267C120.307 28.5924 120.347 28.213 120.387 27.614C120.427 27.015 120.526 26.6955 120.686 26.6556V26.5358C120.726 26.4959 120.826 26.3361 120.985 26.0566C121.145 25.7771 121.305 25.4776 121.464 25.1581C121.664 24.8386 121.784 24.639 121.823 24.5591C121.943 24.3594 122.262 23.9801 122.781 23.421C123.3 22.822 123.839 22.2629 124.397 21.7438C124.956 21.2246 125.315 20.9651 125.475 20.9651C125.714 20.6057 126.153 20.2063 126.792 19.7671C127.47 19.3278 128.149 18.9085 128.827 18.5092C129.546 18.1098 130.044 17.8303 130.324 17.6706V17.6107L130.384 17.6706H130.443C130.603 17.5108 130.902 17.3511 131.341 17.1914C131.82 16.9917 132.139 16.8719 132.299 16.832C132.578 16.7122 132.858 16.6323 133.137 16.5924C133.416 16.5524 133.696 16.5125 133.975 16.4726C134.175 16.5125 134.374 16.5325 134.574 16.5325C134.813 16.5325 135.033 16.5524 135.232 16.5924C135.631 16.6722 136.07 16.8919 136.549 17.2513C137.028 17.5707 137.268 17.9701 137.268 18.4493C137.228 18.4892 137.188 18.5491 137.148 18.629C137.108 18.7088 137.108 18.7687 137.148 18.8087L136.908 18.6889C136.669 18.2496 136.31 17.99 135.831 17.9102C135.352 17.7904 134.893 17.7305 134.454 17.7305C133.377 17.7305 132.239 18.01 131.042 18.5691C129.845 19.0882 128.668 19.787 127.51 20.6656C126.353 21.5441 125.315 22.4825 124.397 23.4809C123.52 24.4792 122.861 25.4376 122.422 26.3561L122.242 27.0749C122.163 27.4742 122.043 27.8536 121.883 28.213C121.724 28.5724 121.644 28.9717 121.644 29.411C121.644 29.7305 121.684 29.9701 121.764 30.1298C121.843 30.2496 121.983 30.4493 122.183 30.7288L122.302 30.6689V30.7288L122.422 30.609L122.662 30.6689C122.941 30.5092 123.24 30.3894 123.559 30.3095C123.879 30.1897 124.138 30.03 124.338 29.8303L124.457 29.7105C124.697 29.6306 124.916 29.4909 125.116 29.2912C125.315 29.0915 125.495 28.9118 125.655 28.7521C126.253 28.193 126.852 27.634 127.45 27.0749C128.049 26.5158 128.608 25.9368 129.126 25.3378C129.406 25.0183 129.765 24.619 130.204 24.1398C130.643 23.6606 131.022 23.3211 131.341 23.1215L131.401 22.8819C131.72 22.7621 132.02 22.4825 132.299 22.0433C132.618 21.604 132.918 21.1847 133.197 20.7854C133.516 20.3461 133.816 20.1265 134.095 20.1265L134.334 20.0666C134.654 20.0666 134.913 20.2063 135.113 20.4859C135.312 20.7255 135.412 20.985 135.412 21.2646C135.412 21.584 135.312 21.9434 135.113 22.3428C134.913 22.7421 134.773 23.1015 134.694 23.421C134.494 24.2596 134.354 25.0183 134.274 25.6972C134.195 26.3361 134.155 27.0749 134.155 27.9135C134.155 28.4326 134.235 28.8719 134.394 29.2313C134.594 29.5907 134.873 29.9701 135.232 30.3694H135.532C136.09 30.0499 136.489 29.7105 136.729 29.3511C136.968 28.9917 137.268 28.6123 137.627 28.213C137.667 28.213 137.707 28.193 137.746 28.1531C137.786 28.1132 137.806 28.0932 137.806 28.0932C137.886 28.0932 137.926 28.1331 137.926 28.213C137.926 28.3727 137.886 28.5325 137.806 28.6922C137.766 28.812 137.726 28.9717 137.687 29.1714C137.607 29.6107 137.487 30.03 137.327 30.4293C137.208 30.7887 136.829 30.9684 136.19 30.9684C135.831 30.9684 135.432 30.8885 134.993 30.7288C134.554 30.5691 134.195 30.3494 133.915 30.0699C133.317 29.391 132.938 28.6523 132.778 27.8536C132.658 27.015 132.598 26.1564 132.598 25.2779V23.3611H132.479C132.319 23.6007 132.139 23.8403 131.94 24.0799C131.74 24.3195 131.541 24.5591 131.341 24.7987C131.182 24.9584 130.982 25.1381 130.743 25.3378C130.543 25.4975 130.364 25.6972 130.204 25.9368C130.124 25.9368 129.965 26.0766 129.725 26.3561C129.526 26.5957 129.426 26.7754 129.426 26.8952C129.146 26.9351 128.827 27.1747 128.468 27.614C128.149 28.0533 127.929 28.2729 127.81 28.2729C127.77 28.3927 127.63 28.5924 127.391 28.8719C127.151 29.1115 126.971 29.2912 126.852 29.411C126.572 29.4509 126.333 29.5907 126.133 29.8303C125.974 30.0699 125.814 30.2895 125.655 30.4892C125.295 30.6489 124.896 30.8686 124.457 31.1481C124.018 31.3877 123.599 31.5075 123.2 31.5075Z" fill="#4C2A00"/>
<path d="M103.521 33.1847C103.162 33.1847 102.823 33.1048 102.503 32.9451C102.184 32.7854 102.024 32.5058 102.024 32.1065C102.024 31.3477 102.164 30.4093 102.443 29.2912C102.763 28.173 103.122 27.0549 103.521 25.9368C103.92 24.7787 104.259 23.7404 104.539 22.822C104.858 21.8636 105.017 21.1847 105.017 20.7854V20.7255H104.718C104.239 20.7255 103.74 20.5657 103.222 20.2463C102.743 19.8869 102.503 19.4476 102.503 18.9284C102.503 18.4093 102.703 17.9501 103.102 17.5507C103.501 17.1514 103.88 16.812 104.239 16.5324C104.399 16.4526 104.539 16.3527 104.658 16.2329C104.818 16.0732 104.978 15.9933 105.137 15.9933L105.556 15.8136V15.8735C105.556 15.9135 105.397 16.1131 105.077 16.4725C104.758 16.792 104.559 16.9917 104.479 17.0715C104.319 17.3111 104.139 17.7105 103.94 18.2695C103.78 18.8286 103.701 19.2479 103.701 19.5275C103.701 19.7671 103.78 19.9068 103.94 19.9468C104.1 19.9867 104.259 20.0067 104.419 20.0067C104.578 20.0067 104.778 19.9268 105.017 19.767C105.257 19.6073 105.417 19.5674 105.496 19.6473C105.496 19.6073 105.596 19.3877 105.796 18.9883C106.035 18.589 106.175 18.3694 106.215 18.3294V18.0898C106.374 17.7304 106.534 17.3311 106.694 16.8918C106.853 16.4526 107.073 16.0732 107.352 15.7537V15.6938C107.552 15.2546 107.831 14.6556 108.19 13.8968C108.549 13.1381 108.948 12.3195 109.387 11.4409C109.826 10.5624 110.265 9.76373 110.704 9.04492C111.143 8.32612 111.502 7.82695 111.782 7.54742C111.782 7.46755 111.941 7.22795 112.261 6.82862C112.58 6.38935 112.779 6.10982 112.859 5.99002C113.258 5.39101 113.857 4.69218 114.655 3.89351C115.453 3.09484 116.291 2.35607 117.169 1.6772C118.047 0.958402 118.785 0.499168 119.384 0.2995L120.222 0C120.781 0.159734 121.28 0.399334 121.719 0.7188C122.158 0.998335 122.377 1.45757 122.377 2.0965C122.377 2.85524 122.138 3.75374 121.659 4.79201C121.18 5.83028 120.621 6.82862 119.983 7.78702C119.344 8.74542 118.805 9.52413 118.366 10.1231C118.087 10.5225 117.768 10.9018 117.409 11.2612C117.089 11.5807 116.79 11.9601 116.511 12.3993C116.231 12.5591 115.992 12.7787 115.792 13.0582C115.593 13.2978 115.393 13.5175 115.194 13.7171C114.954 13.9567 114.535 14.3561 113.937 14.9151C113.338 15.4742 112.66 16.0532 111.901 16.6522C111.183 17.2512 110.505 17.7903 109.866 18.2695C109.268 18.7088 108.849 18.9484 108.609 18.9883L108.549 19.0483C108.27 19.3278 107.971 19.5275 107.651 19.6473C107.332 19.7271 107.033 19.8669 106.753 20.0666C106.594 20.2263 106.414 20.5657 106.215 21.0849C106.015 21.5641 105.836 22.0832 105.676 22.6423C105.516 23.1614 105.377 23.5607 105.257 23.8403C105.097 24.2795 104.958 24.7587 104.838 25.2779C104.758 25.7571 104.618 26.1963 104.419 26.5957L104.06 27.8536C104.02 28.0133 103.94 28.3527 103.82 28.8719C103.701 29.3511 103.601 29.8103 103.521 30.2496C103.481 30.6888 103.481 30.9085 103.521 30.9085C103.601 30.8685 103.96 30.4692 104.598 29.7105C105.277 28.9517 106.115 28.0133 107.113 26.8952C108.11 25.7371 109.128 24.599 110.165 23.4809C111.243 22.3627 112.201 21.4043 113.039 20.6057C113.877 19.807 114.455 19.3877 114.775 19.3478H115.074C115.633 19.3478 116.072 19.4276 116.391 19.5874C116.71 19.7072 116.81 20.1464 116.69 20.9052C116.251 22.3827 115.673 23.8602 114.954 25.3378C114.276 26.7754 113.937 28.2729 113.937 29.8303C113.937 30.0299 113.957 30.3494 113.997 30.7887C114.076 31.2279 114.196 31.6073 114.356 31.9268C114.555 32.2862 114.795 32.4659 115.074 32.4659C115.593 32.4659 116.132 32.1864 116.69 31.6273C117.289 31.0682 117.868 30.4492 118.426 29.7704C118.985 29.0915 119.464 28.5923 119.863 28.2729V28.9318C119.783 29.0516 119.703 29.1913 119.623 29.3511C119.544 29.5108 119.464 29.6705 119.384 29.8303C119.105 30.2296 118.666 30.7487 118.067 31.3877C117.508 32.0266 117.029 32.5058 116.63 32.8253C116.511 32.9052 116.331 32.9651 116.092 33.005C115.852 33.0449 115.653 33.0649 115.493 33.0649C115.294 33.0649 115.114 33.025 114.954 32.9451C114.795 32.8652 114.615 32.7854 114.416 32.7055C113.059 32.0666 112.38 30.9883 112.38 29.4709C112.38 28.7121 112.4 28.0133 112.44 27.3744C112.52 26.7354 112.66 26.0566 112.859 25.3378C113.059 24.6589 113.218 23.98 113.338 23.3012C113.498 22.6223 113.657 21.9434 113.817 21.2646L111.901 23.1215C111.702 23.2812 111.522 23.5008 111.363 23.7804C111.243 24.02 111.083 24.2396 110.884 24.4393C110.684 24.7188 110.445 24.9584 110.165 25.1581C109.886 25.3577 109.627 25.5973 109.387 25.8769C109.028 26.2363 108.689 26.6556 108.37 27.1348C108.09 27.574 107.771 27.9734 107.412 28.3328C107.133 28.6123 106.853 28.8918 106.574 29.1714C106.334 29.4509 106.095 29.7504 105.855 30.0699C105.696 30.2695 105.476 30.609 105.197 31.0882C104.918 31.5275 104.618 31.9667 104.299 32.406C104.02 32.8453 103.76 33.1048 103.521 33.1847ZM106.993 18.8685H107.172C110.006 17.1115 112.66 14.9551 115.134 12.3993C117.608 9.80366 119.484 6.94842 120.761 3.83361C120.841 3.55408 120.861 3.35441 120.821 3.23461C120.821 3.11481 120.821 2.91514 120.821 2.63561C120.821 2.51581 120.701 2.47587 120.461 2.51581C120.262 2.51581 120.102 2.49584 119.983 2.45591C119.703 2.61564 119.344 2.79534 118.905 2.99501C118.466 3.19467 118.127 3.39434 117.887 3.59401C117.808 3.63394 117.748 3.69384 117.708 3.77371C117.708 3.85358 117.688 3.93344 117.648 4.01331L116.87 4.73211C116.75 4.85191 116.61 4.97171 116.451 5.09151C116.331 5.17138 116.211 5.25125 116.092 5.33111C115.932 5.49085 115.792 5.65058 115.673 5.81032C115.593 5.93012 115.473 6.06988 115.313 6.22962C115.154 6.38935 114.994 6.52912 114.835 6.64892C114.715 6.76872 114.555 6.90848 114.356 7.06822C114.236 7.14809 113.997 7.40765 113.637 7.84692C113.318 8.28619 112.939 8.80532 112.5 9.40432C112.101 9.96339 111.722 10.4825 111.363 10.9617C111.043 11.4409 110.844 11.7604 110.764 11.9201C110.724 11.9601 110.664 12.0399 110.584 12.1597C110.545 12.2795 110.485 12.3594 110.405 12.3993C110.405 12.599 110.345 12.6988 110.225 12.6988L110.285 12.9384H110.106C110.066 13.0982 109.926 13.3777 109.687 13.777C109.447 14.1364 109.248 14.3161 109.088 14.3161C109.088 14.3561 109.088 14.376 109.088 14.376C109.128 14.376 109.148 14.376 109.148 14.376V14.4359C109.148 14.4759 109.048 14.7155 108.849 15.1547C108.649 15.594 108.41 16.0932 108.13 16.6522C107.851 17.2113 107.591 17.7105 107.352 18.1497C107.152 18.5491 107.033 18.7887 106.993 18.8685Z" fill="#4C2A00"/>
<path d="M88.7961 30.7288C88.5567 30.7288 88.2773 30.609 87.9581 30.3694C87.6787 30.1298 87.5391 29.8902 87.5391 29.6506C87.5391 28.8919 87.7386 27.9734 88.1377 26.8952C88.5367 25.817 89.0156 24.6989 89.5743 23.5408C90.1729 22.3827 90.7516 21.2846 91.3103 20.2463C91.9089 19.208 92.4077 18.3495 92.8068 17.6706C93.0063 17.3112 93.166 16.9318 93.2857 16.5325C93.4453 16.1332 93.6648 15.7738 93.9442 15.4543C94.2634 15.4942 94.6226 15.5941 95.0216 15.7538C95.4606 15.9135 95.6801 16.213 95.6801 16.6523C95.6801 16.9718 95.4806 17.3312 95.0815 17.7305C94.7223 18.0899 94.443 18.3894 94.2435 18.629C93.3655 19.6273 92.5674 20.7055 91.849 21.8636C91.1706 23.0217 90.5521 24.1997 89.9934 25.3977C89.8736 25.6373 89.7739 25.8769 89.6941 26.1165C89.6142 26.3162 89.5344 26.5158 89.4546 26.7155C89.3748 26.9152 89.275 27.1148 89.1553 27.3145C89.0356 27.4742 88.9757 27.6539 88.9757 27.8536C88.9757 27.9335 88.9957 28.0333 89.0356 28.1531C89.0755 28.2729 89.1553 28.3328 89.275 28.3328C89.5943 28.0134 90.0931 27.4742 90.7715 26.7155C91.45 25.9168 92.1882 25.0982 92.9864 24.2596C93.7845 23.3811 94.5029 22.6223 95.1414 21.9834C95.8198 21.3445 96.2787 20.9651 96.5182 20.8453C96.598 20.8054 96.6778 20.7854 96.7576 20.7854C96.8374 20.7455 96.9172 20.7255 96.997 20.7255C97.6356 20.7255 98.1344 21.025 98.4936 21.624C98.8527 22.1831 99.0323 22.7421 99.0323 23.3012C99.0323 23.9401 98.9724 24.5591 98.8527 25.1581C98.733 25.7571 98.6731 26.3561 98.6731 26.9551C98.6731 27.4343 98.7729 28.0533 98.9724 28.812C99.172 29.5708 99.591 29.9501 100.23 29.9501C100.389 29.8703 100.569 29.7904 100.768 29.7105C100.968 29.6307 101.147 29.5907 101.307 29.5907C101.427 29.5907 101.487 29.6706 101.487 29.8303C101.487 30.03 101.367 30.1897 101.127 30.3095C100.928 30.4293 100.748 30.4892 100.589 30.4892C99.9901 30.4892 99.3715 30.2297 98.733 29.7105C98.0945 29.1515 97.6954 28.5924 97.5358 28.0333C97.3762 27.4343 97.2564 26.8353 97.1766 26.2363C97.1367 25.5974 97.1168 24.9784 97.1168 24.3794C97.1168 24.0999 97.1367 23.7005 97.1766 23.1814C97.2564 22.6223 97.2964 22.2629 97.2964 22.1032C97.0569 22.1032 96.7377 22.2829 96.3386 22.6423C95.9395 22.9618 95.5604 23.3212 95.2012 23.7205C94.8421 24.0799 94.5827 24.3594 94.423 24.5591C94.3432 24.639 94.2235 24.7188 94.0639 24.7987C93.9442 24.8786 93.8244 24.9784 93.7047 25.0982C93.5451 25.2979 93.3655 25.5375 93.166 25.817C92.9664 26.0566 92.7669 26.2762 92.5674 26.4759C92.4875 26.5558 92.308 26.6955 92.0286 26.8952C91.7892 27.0949 91.6295 27.2546 91.5497 27.3744C91.3502 27.7737 91.0908 28.1531 90.7715 28.5125C90.4523 28.8719 90.153 29.2513 89.8736 29.6506C89.7938 29.7704 89.714 29.9302 89.6342 30.1298C89.5544 30.2896 89.4546 30.4094 89.3349 30.4892C89.2152 30.649 89.0356 30.7288 88.7961 30.7288Z" fill="#4C2A00"/>
<path d="M88.4186 16.6523C88.259 16.6523 88.0594 16.5525 87.82 16.3528C87.5806 16.1531 87.4608 15.9734 87.4608 15.8137C87.4608 15.7338 87.6005 15.5541 87.8799 15.2746C88.1592 14.9551 88.4585 14.6556 88.7778 14.3761C89.1369 14.0566 89.3564 13.857 89.4362 13.7771C89.7555 13.857 89.9151 14.0367 89.9151 14.3162C89.9151 14.4759 89.8154 14.7555 89.6158 15.1548C89.4562 15.5142 89.2567 15.8536 89.0172 16.1731C88.8177 16.4926 88.6181 16.6523 88.4186 16.6523ZM82.0734 32.1664C81.9537 32.1664 81.8339 32.1265 81.7142 32.0466C81.6344 31.9668 81.5346 31.9069 81.4149 31.8669C81.1356 31.6273 80.936 31.4277 80.8163 31.2679C80.6966 31.1082 80.6367 30.8287 80.6367 30.4293C80.6367 29.1515 80.936 27.9335 81.5346 26.7754C82.1332 25.5774 82.6919 24.4393 83.2107 23.3611C83.2905 23.2812 83.3105 23.2014 83.2706 23.1215C83.2307 23.0017 83.2107 22.9019 83.2107 22.822C83.2107 22.4626 83.3504 22.0633 83.6298 21.624C83.949 21.1448 84.3082 20.6856 84.7072 20.2463C85.1063 19.807 85.4256 19.4876 85.665 19.2879C85.9045 19.2879 86.2636 19.3278 86.7425 19.4077C87.2214 19.4476 87.4608 19.6273 87.4608 19.9468C87.4608 19.9867 87.2613 20.2263 86.8622 20.6656C86.4632 21.1049 86.2237 21.3844 86.1439 21.5042C85.6251 22.3029 85.0065 23.2613 84.2882 24.3794C83.6098 25.4576 83.0112 26.5758 82.4924 27.7338C81.9736 28.8919 81.7142 29.9901 81.7142 31.0283C82.1931 30.9485 82.6919 30.6689 83.2107 30.1897C83.7694 29.6706 84.1885 29.2313 84.4678 28.8719H84.5277V28.9318C84.5277 29.0916 84.4478 29.2513 84.2882 29.411C84.1286 29.5708 84.0089 29.7105 83.9291 29.8303C83.7694 30.1099 83.51 30.5691 83.1509 31.208C82.8316 31.847 82.4724 32.1664 82.0734 32.1664Z" fill="#4C2A00"/>
<path d="M73.0177 32.5258C71.9801 32.5258 71.2019 32.2862 70.6831 31.807C70.1643 31.3278 69.8251 30.7088 69.6655 29.9501C69.5059 29.1914 69.426 28.4127 69.426 27.614C69.426 26.9751 69.2664 26.6356 68.9472 26.5957C68.6279 26.5158 68.4882 26.3761 68.5281 26.1764L69.7852 25.218C69.7852 25.218 69.8451 24.9984 69.9648 24.5591C70.1244 24.1198 70.284 23.6606 70.4437 23.1814C70.6033 22.7022 70.7031 22.4227 70.743 22.3428C70.7031 22.223 70.8028 21.8836 71.0423 21.3245C71.3216 20.7654 71.6209 20.1465 71.9402 19.4676C72.2994 18.7488 72.6386 18.1298 72.9578 17.6107C73.2771 17.0516 73.4766 16.7521 73.5564 16.7122V16.6523H73.4966C73.6961 16.3328 73.8557 16.0133 73.9755 15.6939C74.1351 15.3744 74.3546 15.0949 74.6339 14.8553C74.6339 14.7754 74.7736 14.5358 75.053 14.1365C75.3722 13.6972 75.5717 13.4177 75.6516 13.2979C76.6891 11.9002 77.8864 10.3827 79.2432 8.74546C80.6399 7.06825 82.0966 5.79038 83.613 4.91184C83.8126 4.83198 83.9921 4.75211 84.1518 4.67224C84.3114 4.55244 84.471 4.47258 84.6307 4.43264C84.7105 4.43264 84.7504 4.43264 84.7504 4.43264C84.7903 4.39271 84.8302 4.37274 84.8701 4.37274C85.349 4.37274 85.9077 4.57241 86.5462 4.97174C87.2246 5.37108 87.5638 5.85028 87.5638 6.40935C87.5638 6.80868 87.2845 7.44762 86.7258 8.32615C86.207 9.16476 85.5485 10.1232 84.7504 11.2014C83.9522 12.2396 83.0942 13.2979 82.1764 14.3761C81.2984 15.4143 80.5003 16.3328 79.7819 17.1315C79.0636 17.9301 78.5448 18.4892 78.2256 18.8087C78.1058 18.9285 77.9662 19.0483 77.8065 19.1681C77.6469 19.2879 77.4873 19.4276 77.3277 19.5874C77.0084 19.9069 76.6891 20.2463 76.3699 20.6057C76.0905 20.9651 75.7713 21.3045 75.4121 21.624C74.8933 22.1032 74.3745 22.5824 73.8557 23.0616C73.3768 23.5408 72.878 24 72.3592 24.4393C72.1597 24.599 71.9402 24.7787 71.7007 24.9784C71.5012 25.1781 71.3017 25.3777 71.1021 25.5774C70.9026 25.817 70.7629 26.2563 70.6831 26.8952C70.6033 27.5341 70.5634 28.0133 70.5634 28.3328C70.5634 28.6922 70.6033 29.1714 70.6831 29.7704C70.8028 30.3295 71.0024 30.8286 71.2817 31.2679C71.5611 31.7072 71.9402 31.9268 72.4191 31.9268C72.6585 31.9268 72.8581 31.8869 73.0177 31.807C73.2172 31.7271 73.4168 31.6273 73.6163 31.5075C74.7736 30.8686 75.8511 30.1498 76.8488 29.3511C77.8464 28.5125 78.7843 27.634 79.6622 26.7155C79.9815 26.396 80.2808 26.0766 80.5601 25.7571C80.8794 25.3977 81.1986 25.0583 81.5179 24.7388C81.5977 24.6589 81.7573 24.4992 81.9968 24.2596C82.2362 24.02 82.4358 23.9202 82.5954 23.9601C82.5555 24.2396 82.3959 24.4992 82.1165 24.7388C81.8771 24.9385 81.6775 25.1581 81.5179 25.3977C81.2785 25.7571 81.059 26.1165 80.8594 26.4759C80.6599 26.7954 80.4604 27.1548 80.2608 27.5541C80.181 27.7138 80.0613 27.8736 79.9017 28.0333C79.742 28.193 79.6024 28.3528 79.4826 28.5125C78.884 29.2313 78.2256 29.8902 77.5072 30.4892C76.8288 31.0882 76.0307 31.5874 75.1128 31.9867C74.7536 32.1464 74.4144 32.2663 74.0952 32.3461C73.7759 32.4659 73.4168 32.5258 73.0177 32.5258ZM71.8205 23.5408C74.175 21.3445 76.4696 19.0682 78.7044 16.7122C80.9392 14.3162 82.9147 11.7405 84.6307 8.98505C84.8302 8.66559 85.0896 8.16642 85.4088 7.48755C85.768 6.76875 85.9476 6.24961 85.9476 5.93014C85.9476 5.69054 85.8877 5.55078 85.768 5.51085C85.2891 5.67058 84.8701 5.89021 84.5109 6.16975C84.1518 6.44928 83.7727 6.74878 83.3736 7.06825C83.2938 7.14812 83.1541 7.24795 82.9546 7.36775C82.7949 7.44762 82.6752 7.52748 82.5954 7.60735C82.316 7.92682 82.0167 8.24629 81.6975 8.56576C81.3782 8.88522 81.059 9.20469 80.7397 9.52416C80.3007 10.0034 79.8817 10.5025 79.4826 11.0217C79.0836 11.5408 78.6845 12.0599 78.2854 12.5791C77.3676 13.7371 76.5894 14.7754 75.9509 15.6939C75.3523 16.6123 74.6539 17.7105 73.8557 18.9884C73.6961 19.228 73.4367 19.6672 73.0775 20.3062C72.7184 20.9052 72.3792 21.5242 72.0599 22.1631C71.7806 22.7621 71.6209 23.2014 71.581 23.4809L71.8205 23.5408Z" fill="#4C2A00"/>
<path d="M59.7557 31.8669C58.758 31.8669 57.7604 31.5475 56.7627 30.9085C55.765 30.2696 55.2662 29.3911 55.2662 28.2729C55.2662 28.0733 55.2662 27.8736 55.2662 27.6739C55.3061 27.4743 55.326 27.2946 55.326 27.1348C55.326 26.8952 55.1464 26.6955 54.7873 26.5358C54.4281 26.3361 54.2485 26.1165 54.2485 25.8769C54.2884 25.837 54.3483 25.817 54.4281 25.817C54.5877 25.817 54.7474 25.8569 54.907 25.9368C55.0666 25.9767 55.2263 25.9967 55.3859 25.9967C55.5056 25.9967 55.6453 25.9568 55.8049 25.8769C55.8847 25.797 56.0444 25.4376 56.2838 24.7987C56.5631 24.1598 56.9622 23.3811 57.481 22.4626C57.9998 21.5441 58.6583 20.6656 59.4564 19.827C60.2546 18.9485 61.2123 18.2696 62.3297 17.7904C62.5692 17.7105 62.8086 17.6307 63.0481 17.5508C63.3274 17.431 63.5868 17.3711 63.8262 17.3711C64.2652 17.3711 64.7242 17.5508 65.203 17.9102C65.7218 18.2297 65.9812 18.629 65.9812 19.1082C65.9812 19.3877 65.9214 19.6473 65.8016 19.8869C65.6819 20.0866 65.5622 20.3062 65.4425 20.5458L65.1432 20.7255C65.0235 20.9252 64.804 21.2047 64.4847 21.5641C64.2054 21.8836 64.0657 22.1232 64.0657 22.2829C64.0657 22.2829 64.0457 22.2829 64.0058 22.2829C64.0058 22.2829 64.0058 22.3029 64.0058 22.3428L63.7664 22.4027C63.5269 22.5624 63.3274 22.7621 63.1678 23.0017C63.0081 23.2413 62.8286 23.421 62.629 23.5408C61.8708 24.0599 61.1126 24.5591 60.3543 25.0383C59.636 25.5175 58.8578 25.9568 58.0198 26.3561C57.8601 26.436 57.6805 26.4959 57.481 26.5358C57.2815 26.5758 57.1218 26.6756 57.0021 26.8353C56.8425 27.0749 56.7228 27.3545 56.643 27.6739C56.6031 27.9934 56.5831 28.3129 56.5831 28.6323C56.5831 29.1115 56.7028 29.6506 56.9423 30.2496C57.1817 30.8087 57.6007 31.0882 58.1993 31.0882C58.2792 31.0882 58.339 31.0882 58.3789 31.0882C58.4587 31.0483 58.5186 31.0283 58.5585 31.0283C58.7979 31.0283 59.0174 31.0084 59.217 30.9684C59.4564 30.9285 59.6959 30.8886 59.9353 30.8486L60.2945 30.6689H60.3543C60.5539 30.6689 60.933 30.5292 61.4917 30.2496C62.0903 29.9302 62.6689 29.6107 63.2276 29.2912C63.7863 28.9318 64.1255 28.6922 64.2453 28.5724C64.3251 28.5325 64.3849 28.4726 64.4248 28.3927C64.5047 28.3129 64.5645 28.253 64.6044 28.213C65.2829 27.6939 65.9812 27.1947 66.6996 26.7155C67.4179 26.2363 68.0963 25.6773 68.7348 25.0383V25.0982H68.8545C68.8146 25.2979 68.655 25.4976 68.3757 25.6972C68.1362 25.8969 67.9566 26.0966 67.8369 26.2962C67.3979 27.0949 66.6996 27.8536 65.7418 28.5724C64.784 29.2912 63.9061 29.9102 63.1079 30.4293C62.8286 30.629 62.5492 30.8486 62.2699 31.0882C62.0304 31.2879 61.7511 31.4476 61.4318 31.5674C60.8332 31.7671 60.2745 31.8669 59.7557 31.8669ZM57.4211 25.2779C57.7404 25.2779 58.0397 25.1581 58.3191 24.9185C58.6383 24.639 58.8778 24.4792 59.0374 24.4393L59.0972 24.4992V24.4393C59.8555 24.0799 60.5738 23.5807 61.2522 22.9418C61.9706 22.3029 62.629 21.6839 63.2276 21.0849H63.3474C63.3474 20.8453 63.5269 20.5857 63.8861 20.3062C64.2453 19.9867 64.4248 19.7272 64.4248 19.5275C64.5047 19.4476 64.5845 19.3278 64.6643 19.1681C64.7441 18.9684 64.784 18.8287 64.784 18.7488C64.6643 18.6689 64.4847 18.629 64.2453 18.629C64.0457 18.7089 63.7863 18.8486 63.4671 19.0483C63.1478 19.248 62.8685 19.3478 62.629 19.3478C62.629 19.3877 62.4295 19.5475 62.0304 19.827C61.6713 20.1065 61.2921 20.406 60.8931 20.7255C60.494 21.045 60.2346 21.2646 60.1149 21.3844C59.9153 21.5841 59.5961 21.9435 59.1571 22.4626C58.7181 22.9817 58.3191 23.5009 57.9599 24.02C57.6007 24.5391 57.4211 24.9385 57.4211 25.218V25.2779Z" fill="#4C2A00"/>
<path d="M42.2416 32.7055C42.0022 32.7055 41.7628 32.6257 41.5233 32.4659C41.2839 32.3461 41.1242 32.1465 41.0444 31.8669C41.0444 31.827 41.0444 31.7272 41.0444 31.5674C41.0843 31.4476 41.1242 31.3877 41.1642 31.3877L44.0375 24.619C44.3168 23.9401 44.6161 23.1415 44.9354 22.223C45.2546 21.2646 45.4941 20.3262 45.6537 19.4077C45.8532 18.4493 45.9131 17.6307 45.8333 16.9518C45.5938 16.9518 45.3344 16.9917 45.0551 17.0716C44.7757 17.1515 44.5164 17.1914 44.2769 17.1914C44.1971 17.1914 44.1572 17.1315 44.1572 17.0117C44.1572 16.8919 44.1971 16.7721 44.2769 16.6523C44.3966 16.4925 44.5962 16.4326 44.8755 16.4726C44.9553 16.5125 45.1349 16.5325 45.4143 16.5325C45.8931 16.5325 46.4319 16.5524 47.0305 16.5924C47.6291 16.5924 47.9484 16.8519 47.9883 17.3711C47.9883 17.5708 47.8486 18.03 47.5692 18.7488C47.3298 19.4676 47.0105 20.2862 46.6115 21.2047C46.2523 22.1232 45.9131 23.0017 45.5938 23.8403C45.2746 24.639 45.0551 25.238 44.9354 25.6373C44.7358 26.0366 44.6361 26.3162 44.6361 26.4759H44.8157C45.1349 25.9568 45.4941 25.4975 45.8931 25.0982C46.3321 24.6589 46.7112 24.1797 47.0305 23.6606C47.2699 23.5009 47.6291 23.1215 48.108 22.5225C48.5869 21.8836 49.0857 21.2446 49.6045 20.6057C50.1632 19.9268 50.682 19.4476 51.1609 19.1681C51.2407 19.1282 51.4203 19.0283 51.6996 18.8686C51.979 18.6689 52.1386 18.5491 52.1785 18.5092C52.2982 18.5092 52.418 18.5092 52.5377 18.5092C52.6973 18.4693 52.837 18.4493 52.9567 18.4493C53.0764 18.4493 53.1762 18.4693 53.256 18.5092C53.3757 18.5092 53.4955 18.5092 53.6152 18.5092C53.7349 18.5092 53.9943 18.609 54.3934 18.8087C54.7924 18.9684 55.1715 19.1681 55.5307 19.4077C55.8899 19.6074 56.0695 19.7671 56.0695 19.8869C56.0695 20.2463 55.9298 20.5258 55.6504 20.7255C55.3711 20.8852 55.1316 21.0649 54.9321 21.2646C54.6528 21.624 54.3335 22.0233 53.9743 22.4626C53.6551 22.8619 53.4555 23.3012 53.3757 23.7804L53.3159 24.0799L53.256 24.1398C53.256 24.1398 53.2361 24.1198 53.1961 24.0799C53.1961 24.04 53.1762 24.02 53.1363 24.02L53.0764 24.0799C53.0764 23.2812 53.276 22.5225 53.675 21.8037C54.0741 21.045 54.2736 20.2862 54.2736 19.5275C54.2736 19.3278 54.1938 19.228 54.0342 19.228C53.7548 19.228 53.3757 19.4077 52.8968 19.7671C52.418 20.0866 51.979 20.426 51.5799 20.7854C51.1808 21.1049 50.9414 21.2646 50.8616 21.2646C50.7818 21.4243 50.5423 21.6839 50.1433 22.0433C49.7841 22.4027 49.5247 22.6423 49.3651 22.7621C49.0857 23.0017 48.8263 23.2812 48.5869 23.6007C48.3873 23.9202 48.1679 24.2396 47.9284 24.5591C47.8885 24.599 47.8087 24.6589 47.689 24.7388C47.5692 24.8187 47.4695 24.8985 47.3897 24.9784C47.23 25.2579 47.0305 25.5175 46.7911 25.7571C46.7112 25.9168 46.6314 26.0766 46.5516 26.2363C46.5117 26.396 46.4119 26.5558 46.2523 26.7155L45.953 26.7754C45.7934 27.0949 45.5938 27.3944 45.3544 27.6739C45.115 27.9135 44.8955 28.1731 44.6959 28.4526C44.5363 28.7321 44.3966 29.0316 44.2769 29.3511C44.1971 29.6706 44.0574 29.9501 43.8579 30.1897C43.6184 30.5092 43.359 30.8886 43.0797 31.3278C42.8403 31.7272 42.7205 32.1465 42.7205 32.5857H42.6607C42.501 32.6656 42.3614 32.7055 42.2416 32.7055Z" fill="#4C2A00"/>
<path d="M34.7502 36C34.5506 36 34.2314 35.8802 33.7924 35.6406C33.3534 35.401 33.0541 35.2013 32.8945 35.0416C32.6151 34.7221 32.4156 34.3428 32.2959 33.9035C32.2161 33.4642 32.1762 33.0449 32.1762 32.6456C32.1762 31.3278 32.4755 29.8303 33.0741 28.1531C33.6727 26.4759 34.2912 25.0582 34.9297 23.9002C35.0096 23.7404 35.1692 23.4409 35.4086 23.0017C35.688 22.5624 35.9474 22.1231 36.1868 21.6839C36.4263 21.2446 36.546 21.005 36.546 20.9651L35.4685 21.3245L35.1093 21.2646V21.3245C34.7103 21.604 34.1915 21.8037 33.5529 21.9235C32.9144 22.0433 32.3757 22.203 31.9367 22.4027L30.1409 23.3012H30.0212C29.8615 23.3012 29.7219 23.2213 29.6021 23.0616C29.5223 22.8619 29.4824 22.7022 29.4824 22.5824C29.4824 22.4626 29.7019 22.3228 30.1409 22.1631C30.5799 21.9634 31.0987 21.7637 31.6973 21.5641C32.3358 21.3644 32.9144 21.1847 33.4332 21.025C33.9919 20.8652 34.3511 20.7654 34.5107 20.7255C35.0295 20.6057 35.5084 20.4659 35.9474 20.3062H36.0072V20.2463C36.2866 20.2463 36.5859 20.1664 36.9051 20.0067C37.6634 18.8885 38.4017 17.7903 39.12 16.7121C39.8782 15.594 40.7362 14.5757 41.694 13.6572L43.0109 12.3993C43.3302 12.1198 43.5696 11.8802 43.7293 11.6805C43.8889 11.4809 44.1682 11.2812 44.5673 11.0815C44.8467 11.1215 45.2258 11.2612 45.7047 11.5008C46.2235 11.7404 46.4829 12.02 46.4829 12.3394C46.4829 12.4592 46.2833 12.6589 45.8842 12.9384C45.5251 13.218 45.146 13.4975 44.7469 13.777C44.3478 14.0166 44.0685 14.1963 43.9088 14.3161L43.4898 14.4359C43.0109 14.8353 42.572 15.2546 42.1729 15.6938C41.7738 16.1331 41.3548 16.5724 40.9158 17.0116C40.6764 17.2113 40.4768 17.4709 40.3172 17.7903C40.1576 18.1098 39.958 18.3893 39.7186 18.6289V18.8685C39.6388 18.9085 39.4991 19.0283 39.2996 19.2279C39.1399 19.3877 39.0601 19.5075 39.0601 19.5873C39.7386 19.6273 40.4569 19.6872 41.2151 19.767C41.9734 19.8469 42.6119 20.1664 43.1307 20.7255C42.6917 20.6057 42.2727 20.5058 41.8736 20.426C41.5144 20.3062 41.1153 20.2463 40.6764 20.2463C39.8782 20.2463 39.1399 20.3661 38.4615 20.6057C38.4615 20.6057 38.3418 20.7854 38.1024 21.1448C37.8629 21.5042 37.6035 21.8636 37.3242 22.223C37.0847 22.5424 36.965 22.7221 36.965 22.7621C36.8453 22.9218 36.6058 23.3211 36.2467 23.9601C35.8875 24.5591 35.5483 25.1581 35.229 25.7571C34.9497 26.3161 34.7901 26.6156 34.7502 26.6556C34.7502 26.8552 34.6903 27.1148 34.5706 27.4343C34.4509 27.7537 34.3511 28.0133 34.2713 28.213L34.2114 28.2729V28.3328C34.2114 28.5724 34.1516 28.8319 34.0318 29.1115C33.9121 29.391 33.8123 29.6306 33.7325 29.8303C33.3734 30.9085 33.1938 32.0266 33.1938 33.1847C33.1938 33.5042 33.2337 33.9035 33.3135 34.3827C33.4332 34.8619 33.6727 35.2013 34.0318 35.401C34.1116 35.4409 34.2912 35.4809 34.5706 35.5208C34.8898 35.5607 35.0495 35.6406 35.0495 35.7604C35.0495 35.9201 34.9497 36 34.7502 36ZM43.1905 20.7255C43.1506 20.7255 43.1307 20.7255 43.1307 20.7255C43.1307 20.7255 43.1506 20.7255 43.1905 20.7255Z" fill="#4C2A00"/>
<path d="M16.0749 30.7288C15.8355 30.7288 15.5562 30.609 15.2369 30.3694C14.9575 30.1298 14.8179 29.8902 14.8179 29.6506C14.8179 28.8919 15.0174 27.9734 15.4165 26.8952C15.8155 25.817 16.2944 24.6989 16.8531 23.5408C17.4517 22.3827 18.0304 21.2846 18.5891 20.2463C19.1877 19.208 19.6865 18.3495 20.0856 17.6706C20.2851 17.3112 20.4448 16.9318 20.5645 16.5325C20.7241 16.1332 20.9436 15.7738 21.223 15.4543C21.5422 15.4942 21.9014 15.5941 22.3005 15.7538C22.7394 15.9135 22.9589 16.213 22.9589 16.6523C22.9589 16.9718 22.7594 17.3312 22.3603 17.7305C22.0012 18.0899 21.7218 18.3894 21.5223 18.629C20.6443 19.6273 19.8462 20.7055 19.1278 21.8636C18.4494 23.0217 17.8309 24.1997 17.2722 25.3977C17.1524 25.6373 17.0527 25.8769 16.9729 26.1165C16.893 26.3162 16.8132 26.5158 16.7334 26.7155C16.6536 26.9152 16.5538 27.1148 16.4341 27.3145C16.3144 27.4742 16.2545 27.6539 16.2545 27.8536C16.2545 27.9335 16.2745 28.0333 16.3144 28.1531C16.3543 28.2729 16.4341 28.3328 16.5538 28.3328C16.8731 28.0134 17.3719 27.4742 18.0503 26.7155C18.7288 25.9168 19.4671 25.0982 20.2652 24.2596C21.0633 23.3811 21.7817 22.6223 22.4202 21.9834C23.0986 21.3445 23.5575 20.9651 23.797 20.8453C23.8768 20.8054 23.9566 20.7854 24.0364 20.7854C24.1162 20.7455 24.196 20.7255 24.2759 20.7255C24.9144 20.7255 25.4132 21.025 25.7724 21.624C26.1315 22.1831 26.3111 22.7421 26.3111 23.3012C26.3111 23.9401 26.2513 24.5591 26.1315 25.1581C26.0118 25.7571 25.952 26.3561 25.952 26.9551C25.952 27.4343 26.0517 28.0533 26.2513 28.812C26.4508 29.5708 26.8698 29.9501 27.5083 29.9501C27.668 29.8703 27.8475 29.7904 28.0471 29.7105C28.2466 29.6307 28.4262 29.5907 28.5858 29.5907C28.7055 29.5907 28.7654 29.6706 28.7654 29.8303C28.7654 30.03 28.6457 30.1897 28.4062 30.3095C28.2067 30.4293 28.0271 30.4892 27.8675 30.4892C27.2689 30.4892 26.6503 30.2297 26.0118 29.7105C25.3733 29.1515 24.9742 28.5924 24.8146 28.0333C24.655 27.4343 24.5353 26.8353 24.4554 26.2363C24.4155 25.5974 24.3956 24.9784 24.3956 24.3794C24.3956 24.0999 24.4155 23.7005 24.4554 23.1814C24.5353 22.6223 24.5752 22.2629 24.5752 22.1032C24.3357 22.1032 24.0165 22.2829 23.6174 22.6423C23.2183 22.9618 22.8392 23.3212 22.48 23.7205C22.1209 24.0799 21.8615 24.3594 21.7018 24.5591C21.622 24.639 21.5023 24.7188 21.3427 24.7987C21.223 24.8786 21.1032 24.9784 20.9835 25.0982C20.8239 25.2979 20.6443 25.5375 20.4448 25.817C20.2452 26.0566 20.0457 26.2762 19.8462 26.4759C19.7664 26.5558 19.5868 26.6955 19.3074 26.8952C19.068 27.0949 18.9084 27.2546 18.8285 27.3744C18.629 27.7737 18.3696 28.1531 18.0503 28.5125C17.7311 28.8719 17.4318 29.2513 17.1524 29.6506C17.0726 29.7704 16.9928 29.9302 16.913 30.1298C16.8332 30.2896 16.7334 30.4094 16.6137 30.4892C16.494 30.649 16.3144 30.7288 16.0749 30.7288Z" fill="#4C2A00"/>
<path d="M5.50718 31.8669C4.5095 31.8669 3.51183 31.5475 2.51415 30.9085C1.51647 30.2696 1.01763 29.3911 1.01763 28.2729C1.01763 28.0733 1.01763 27.8736 1.01763 27.6739C1.05754 27.4743 1.07749 27.2946 1.07749 27.1348C1.07749 26.8952 0.89791 26.6955 0.538746 26.5358C0.179582 26.3361 0 26.1165 0 25.8769C0.0399071 25.837 0.0997678 25.817 0.179582 25.817C0.33921 25.817 0.498839 25.8569 0.658467 25.9368C0.818096 25.9767 0.977724 25.9967 1.13735 25.9967C1.25707 25.9967 1.39675 25.9568 1.55638 25.8769C1.63619 25.797 1.79582 25.4376 2.03526 24.7987C2.31461 24.1598 2.71368 23.3811 3.23248 22.4626C3.75127 21.5441 4.40974 20.6656 5.20788 19.827C6.00602 18.9485 6.96379 18.2696 8.08119 17.7904C8.32063 17.7105 8.56008 17.6307 8.79952 17.5508C9.07887 17.431 9.33826 17.3711 9.57771 17.3711C10.0167 17.3711 10.4756 17.5508 10.9545 17.9102C11.4733 18.2297 11.7327 18.629 11.7327 19.1082C11.7327 19.3877 11.6728 19.6473 11.5531 19.8869C11.4334 20.0866 11.3137 20.3062 11.1939 20.5458L10.8946 20.7255C10.7749 20.9252 10.5554 21.2047 10.2362 21.5641C9.95682 21.8836 9.81715 22.1232 9.81715 22.2829C9.81715 22.2829 9.7972 22.2829 9.75729 22.2829C9.75729 22.2829 9.75729 22.3029 9.75729 22.3428L9.51785 22.4027C9.2784 22.5624 9.07887 22.7621 8.91924 23.0017C8.75961 23.2413 8.58003 23.421 8.38049 23.5408C7.62226 24.0599 6.86402 24.5591 6.10579 25.0383C5.38746 25.5175 4.60927 25.9568 3.77122 26.3561C3.61159 26.436 3.43201 26.4959 3.23248 26.5358C3.03294 26.5758 2.87331 26.6756 2.75359 26.8353C2.59396 27.0749 2.47424 27.3545 2.39443 27.6739C2.35452 27.9934 2.33457 28.3129 2.33457 28.6323C2.33457 29.1115 2.45429 29.6506 2.69373 30.2496C2.93317 30.8087 3.3522 31.0882 3.9508 31.0882C4.03062 31.0882 4.09048 31.0882 4.13039 31.0882C4.2102 31.0483 4.27006 31.0283 4.30997 31.0283C4.54941 31.0283 4.7689 31.0084 4.96844 30.9684C5.20788 30.9285 5.44732 30.8886 5.68676 30.8486L6.04593 30.6689H6.10579C6.30532 30.6689 6.68444 30.5292 7.24314 30.2496C7.84175 29.9302 8.4204 29.6107 8.9791 29.2912C9.5378 28.9318 9.87701 28.6922 9.99673 28.5724C10.0765 28.5325 10.1364 28.4726 10.1763 28.3927C10.2561 28.3129 10.316 28.253 10.3559 28.213C11.0343 27.6939 11.7327 27.1947 12.451 26.7155C13.1693 26.2363 13.8478 25.6773 14.4863 25.0383V25.0982H14.606C14.5661 25.2979 14.4065 25.4976 14.1271 25.6972C13.8877 25.8969 13.7081 26.0966 13.5884 26.2962C13.1494 27.0949 12.451 27.8536 11.4932 28.5724C10.5355 29.2912 9.65752 29.9102 8.85938 30.4293C8.58003 30.629 8.30068 30.8486 8.02133 31.0882C7.78189 31.2879 7.50254 31.4476 7.18328 31.5674C6.58467 31.7671 6.02597 31.8669 5.50718 31.8669ZM3.17262 25.2779C3.49187 25.2779 3.79118 25.1581 4.07053 24.9185C4.38978 24.639 4.62923 24.4792 4.78885 24.4393L4.84871 24.4992V24.4393C5.60695 24.0799 6.32528 23.5807 7.0037 22.9418C7.72203 22.3029 8.38049 21.6839 8.9791 21.0849H9.09882C9.09882 20.8453 9.2784 20.5857 9.63757 20.3062C9.99673 19.9867 10.1763 19.7272 10.1763 19.5275C10.2561 19.4476 10.3359 19.3278 10.4158 19.1681C10.4956 18.9684 10.5355 18.8287 10.5355 18.7488C10.4158 18.6689 10.2362 18.629 9.99673 18.629C9.7972 18.7089 9.5378 18.8486 9.21854 19.0483C8.89929 19.248 8.61994 19.3478 8.38049 19.3478C8.38049 19.3877 8.18096 19.5475 7.78189 19.827C7.42272 20.1065 7.04361 20.406 6.64454 20.7255C6.24546 21.045 5.98607 21.2646 5.86635 21.3844C5.66681 21.5841 5.34755 21.9435 4.90858 22.4626C4.4696 22.9817 4.07053 23.5009 3.71136 24.02C3.3522 24.5391 3.17262 24.9385 3.17262 25.218V25.2779Z" fill="#4C2A00"/>
</svg>
