<svg width="181" height="42" viewBox="0 0 181 42" fill="none" xmlns="http://www.w3.org/2000/svg">
<path d="M162.285 40.672C162.098 40.5788 161.91 40.3459 161.723 39.9731C161.488 39.647 161.277 39.2976 161.089 38.9249C160.902 38.5988 160.714 38.459 160.527 38.5056C160.527 38.3192 160.503 38.1562 160.456 38.0164C160.362 37.8766 160.315 37.7369 160.315 37.5971C161.3 36.246 162.496 35.0347 163.904 33.9632C165.358 32.8916 166.812 31.9831 168.266 31.2377H168.477C168.805 30.9116 169.18 30.632 169.602 30.3991C170.071 30.1662 170.423 29.8866 170.658 29.5605V29.4906C170.048 29.1179 169.391 28.7918 168.688 28.5122C167.984 28.2327 167.374 27.8367 166.859 27.3242C166.389 26.9515 165.944 26.4856 165.522 25.9266C165.147 25.3675 164.959 24.7618 164.959 24.1096C164.959 23.0846 165.451 22.1528 166.436 21.3142C167.421 20.4291 168.313 19.7535 169.11 19.2876C169.344 19.0081 169.79 18.682 170.447 18.3092C171.15 17.9365 171.854 17.5871 172.557 17.261C173.308 16.8883 173.847 16.632 174.176 16.4923V16.5622C174.504 16.3292 174.879 16.1662 175.301 16.073L176.145 15.7236H176.286C176.661 15.6304 177.06 15.5372 177.482 15.444C177.904 15.3043 178.303 15.2344 178.678 15.2344C179.1 15.2344 179.593 15.4673 180.156 15.9332C180.719 16.3991 181 16.865 181 17.3309C181 17.5172 180.859 17.8667 180.578 18.3791C180.343 18.845 180.062 19.2876 179.734 19.7069C179.452 20.1262 179.218 20.3825 179.03 20.4756C178.983 20.4756 178.936 20.4989 178.889 20.5455C178.889 20.5455 178.866 20.5455 178.819 20.5455V20.4058C179.054 20.1262 179.265 19.7069 179.452 19.1479C179.687 18.5422 179.804 18.053 179.804 17.6803C179.804 16.9815 179.429 16.632 178.678 16.632C178.115 16.632 177.576 16.7252 177.06 16.9116C176.591 17.0513 176.099 17.2377 175.583 17.4706C173.847 18.0763 172.323 18.7984 171.01 19.637C169.743 20.429 168.571 21.6171 167.492 23.2011C167.304 23.5272 167.093 23.8766 166.859 24.2493C166.671 24.5755 166.577 24.9249 166.577 25.2976C166.577 25.7635 166.741 26.1595 167.07 26.4856C167.445 26.7652 167.82 26.9981 168.195 27.1845C168.336 27.2776 168.688 27.4873 169.251 27.8134C169.813 28.1395 170.353 28.4657 170.869 28.7918C171.432 29.0713 171.737 29.2111 171.783 29.2111C172.018 29.2111 172.252 29.1179 172.487 28.9315C172.721 28.7452 172.933 28.6054 173.12 28.5122C173.777 28.1395 174.691 27.6736 175.864 27.1146C177.037 26.5089 177.975 26.1362 178.678 25.9964L179.663 25.7868C179.71 25.7868 179.781 25.8334 179.874 25.9266C179.827 25.9731 179.757 26.043 179.663 26.1362C179.569 26.1828 179.476 26.2294 179.382 26.276C179.1 26.5555 178.631 26.8117 177.975 27.0447C177.365 27.231 176.943 27.4174 176.708 27.6038C176.568 27.6969 176.45 27.8367 176.357 28.0231C176.263 28.1628 176.145 28.2793 176.005 28.3725C175.583 28.652 175.043 29.0247 174.387 29.4906C173.73 29.9099 173.402 30.3991 173.402 30.9582C173.402 31.1445 173.425 31.3309 173.472 31.5172C173.566 31.7036 173.613 31.9132 173.613 32.1462C173.613 32.5189 173.495 33.0547 173.261 33.7535C173.026 34.4058 172.745 34.8483 172.417 35.0813V35.3608C171.994 35.5006 171.666 35.8034 171.432 36.2693C171.244 36.6886 170.869 36.875 170.306 36.8284L169.954 37.2477C169.626 37.2477 169.344 37.3642 169.11 37.5971C168.875 37.8766 168.641 38.1329 168.406 38.3658H168.336C168.008 38.3658 167.656 38.5056 167.281 38.7851C166.952 39.1112 166.53 39.3908 166.014 39.6237C165.545 39.9033 164.935 39.9731 164.185 39.8334C163.997 39.88 163.833 39.9498 163.693 40.043C163.552 40.1362 163.388 40.1828 163.2 40.1828C163.059 40.1828 162.989 40.1362 162.989 40.043C162.989 39.9964 163.059 39.9033 163.2 39.7635C163.388 39.6703 163.88 39.4374 164.677 39.0647C165.475 38.6919 166.038 38.4124 166.366 38.226C166.366 38.1795 166.46 38.0863 166.647 37.9465C166.882 37.8068 167.023 37.7136 167.07 37.667C167.679 37.2477 168.359 36.7119 169.11 36.0597C169.86 35.3608 170.517 34.6154 171.08 33.8234C171.643 32.9848 171.924 32.1928 171.924 31.4474C171.924 31.3076 171.901 31.1212 171.854 30.8883C171.807 30.6087 171.69 30.469 171.502 30.469C171.314 30.469 171.127 30.5622 170.939 30.7485C170.798 30.9349 170.681 31.0746 170.587 31.1678C170.259 31.4008 169.907 31.6337 169.532 31.8667C169.157 32.0996 168.782 32.3558 168.406 32.6354C167.937 32.9615 167.515 33.3342 167.14 33.7535C166.765 34.1262 166.343 34.4989 165.874 34.8716C165.264 35.3375 164.701 35.8267 164.185 36.3392C163.669 36.8051 163.153 37.3176 162.637 37.8766C162.262 38.2493 162.074 38.7152 162.074 39.2743C162.074 39.4607 162.121 39.647 162.215 39.8334C162.309 40.0663 162.356 40.2993 162.356 40.5322L162.285 40.672Z" fill="#4C2A00"/>
<path d="M144.8 36.7585C144.143 36.7585 143.416 36.4091 142.619 35.7103C141.822 34.9649 141.423 34.2427 141.423 33.5439H141.353C141.4 33.3575 141.447 32.9149 141.493 32.2161C141.54 31.5173 141.658 31.1446 141.845 31.098V30.9582C141.892 30.9116 142.009 30.7253 142.197 30.3991C142.385 30.073 142.572 29.7236 142.76 29.3509C142.994 28.9782 143.135 28.7452 143.182 28.652C143.323 28.4191 143.698 27.9765 144.308 27.3243C144.917 26.6254 145.551 25.9732 146.207 25.3675C146.864 24.7619 147.286 24.459 147.474 24.459C147.755 24.0397 148.271 23.5738 149.021 23.0614C149.819 22.5489 150.616 22.0597 151.414 21.5938C152.258 21.1279 152.844 20.8018 153.172 20.6154V20.5456L153.243 20.6154H153.313C153.501 20.4291 153.853 20.2427 154.369 20.0564C154.931 19.8234 155.307 19.6837 155.494 19.6371C155.823 19.4973 156.151 19.4041 156.479 19.3575C156.808 19.311 157.136 19.2644 157.464 19.2178C157.699 19.2644 157.933 19.2877 158.168 19.2877C158.449 19.2877 158.707 19.311 158.942 19.3575C159.411 19.4507 159.927 19.707 160.489 20.1263C161.052 20.499 161.334 20.9649 161.334 21.5239C161.287 21.5705 161.24 21.6404 161.193 21.7336C161.146 21.8268 161.146 21.8966 161.193 21.9432L160.912 21.8035C160.63 21.291 160.208 20.9882 159.645 20.895C159.082 20.7552 158.543 20.6853 158.027 20.6853C156.761 20.6853 155.424 21.0115 154.017 21.6637C152.61 22.2694 151.226 23.0847 149.866 24.1096C148.506 25.1346 147.286 26.2294 146.207 27.3941C145.175 28.5589 144.401 29.677 143.886 30.7486L143.674 31.5872C143.581 32.053 143.44 32.4956 143.252 32.9149C143.065 33.3342 142.971 33.8001 142.971 34.3126C142.971 34.6853 143.018 34.9649 143.112 35.1512C143.205 35.291 143.37 35.5239 143.604 35.85L143.745 35.7802V35.85L143.886 35.7103L144.167 35.7802C144.495 35.5938 144.847 35.454 145.222 35.3609C145.598 35.2211 145.902 35.0347 146.137 34.8018L146.278 34.662C146.559 34.5689 146.817 34.4058 147.052 34.1728C147.286 33.9399 147.497 33.7302 147.685 33.5439C148.388 32.8916 149.092 32.2394 149.795 31.5872C150.499 30.9349 151.156 30.2594 151.765 29.5605C152.094 29.1878 152.516 28.7219 153.032 28.1629C153.548 27.6038 153.993 27.2078 154.369 26.9748L154.439 26.6953C154.814 26.5555 155.166 26.2294 155.494 25.7169C155.869 25.2045 156.221 24.7153 156.55 24.2494C156.925 23.7369 157.277 23.4807 157.605 23.4807L157.886 23.4108C158.262 23.4108 158.566 23.5738 158.801 23.9C159.035 24.1795 159.153 24.4823 159.153 24.8085C159.153 25.1812 159.035 25.6005 158.801 26.0664C158.566 26.5322 158.402 26.9515 158.308 27.3243C158.074 28.3026 157.91 29.1878 157.816 29.9798C157.722 30.7253 157.675 31.5872 157.675 32.5655C157.675 33.1712 157.769 33.6837 157.957 34.103C158.191 34.5223 158.52 34.9649 158.942 35.4307H159.293C159.95 35.058 160.419 34.662 160.701 34.2427C160.982 33.8234 161.334 33.3808 161.756 32.9149C161.803 32.9149 161.85 32.8916 161.897 32.8451C161.943 32.7985 161.967 32.7752 161.967 32.7752C162.061 32.7752 162.108 32.8218 162.108 32.9149C162.108 33.1013 162.061 33.2877 161.967 33.474C161.92 33.6138 161.873 33.8001 161.826 34.0331C161.732 34.5456 161.592 35.0347 161.404 35.5006C161.263 35.9199 160.818 36.1296 160.067 36.1296C159.645 36.1296 159.176 36.0364 158.66 35.85C158.144 35.6637 157.722 35.4075 157.394 35.0813C156.69 34.2893 156.245 33.4274 156.057 32.4956C155.916 31.5173 155.846 30.5156 155.846 29.4906V27.2544H155.705C155.518 27.5339 155.307 27.8134 155.072 28.093C154.838 28.3725 154.603 28.652 154.369 28.9316C154.181 29.1179 153.946 29.3276 153.665 29.5605C153.43 29.7469 153.219 29.9798 153.032 30.2594C152.938 30.2594 152.75 30.4224 152.469 30.7486C152.234 31.0281 152.117 31.2377 152.117 31.3775C151.789 31.4241 151.414 31.7036 150.991 32.2161C150.616 32.7286 150.358 32.9848 150.218 32.9848C150.171 33.1246 150.006 33.3575 149.725 33.6837C149.444 33.9632 149.233 34.1728 149.092 34.3126C148.764 34.3592 148.482 34.5223 148.248 34.8018C148.06 35.0813 147.872 35.3376 147.685 35.5705C147.263 35.7569 146.794 36.0131 146.278 36.3392C145.762 36.6188 145.269 36.7585 144.8 36.7585Z" fill="#4C2A00"/>
<path d="M121.67 38.7155C121.248 38.7155 120.85 38.6223 120.474 38.4359C120.099 38.2496 119.912 37.9235 119.912 37.4576C119.912 36.5724 120.076 35.4775 120.404 34.173C120.779 32.8685 121.201 31.5641 121.67 30.2596C122.139 28.9085 122.538 27.6972 122.866 26.6256C123.242 25.5075 123.429 24.7155 123.429 24.2496V24.1797H123.078C122.515 24.1797 121.928 23.9933 121.319 23.6206C120.756 23.2013 120.474 22.6888 120.474 22.0832C120.474 21.4775 120.709 20.9418 121.178 20.4759C121.647 20.01 122.093 19.614 122.515 19.2878C122.702 19.1947 122.866 19.0782 123.007 18.9384C123.195 18.7521 123.382 18.6589 123.57 18.6589L124.063 18.4492V18.5191C124.063 18.5657 123.875 18.7987 123.5 19.218C123.124 19.5907 122.89 19.8236 122.796 19.9168C122.609 20.1963 122.397 20.6622 122.163 21.3145C121.975 21.9667 121.882 22.4559 121.882 22.782C121.882 23.0616 121.975 23.2246 122.163 23.2712C122.351 23.3178 122.538 23.3411 122.726 23.3411C122.913 23.3411 123.148 23.2479 123.429 23.0616C123.711 22.8752 123.898 22.8286 123.992 22.9218C123.992 22.8752 124.109 22.619 124.344 22.1531C124.625 21.6872 124.79 21.4309 124.836 21.3844V21.1048C125.024 20.6855 125.212 20.2196 125.399 19.7072C125.587 19.1947 125.845 18.7521 126.173 18.3794V18.3095C126.408 17.797 126.736 17.0982 127.158 16.213C127.58 15.3278 128.049 14.3727 128.565 13.3477C129.081 12.3228 129.597 11.391 130.113 10.5524C130.629 9.71381 131.051 9.13144 131.38 8.80532C131.38 8.71214 131.567 8.43261 131.942 7.96672C132.318 7.45424 132.552 7.12812 132.646 6.98835C133.115 6.28952 133.819 5.47421 134.757 4.54243C135.695 3.61065 136.68 2.74875 137.712 1.95674C138.743 1.11814 139.611 0.582362 140.315 0.349417L141.3 0C141.956 0.186356 142.543 0.46589 143.059 0.8386C143.575 1.16472 143.832 1.7005 143.832 2.44592C143.832 3.33111 143.551 4.37937 142.988 5.59068C142.425 6.80199 141.769 7.96672 141.018 9.08486C140.268 10.203 139.635 11.1115 139.119 11.8103C138.79 12.2762 138.415 12.7188 137.993 13.1381C137.618 13.5108 137.266 13.9534 136.938 14.4659C136.609 14.6522 136.328 14.9085 136.093 15.2346C135.859 15.5141 135.624 15.7704 135.39 16.0033C135.108 16.2829 134.616 16.7487 133.912 17.401C133.209 18.0532 132.411 18.7288 131.52 19.4276C130.676 20.1265 129.879 20.7554 129.128 21.3145C128.425 21.827 127.932 22.1065 127.651 22.1531L127.58 22.223C127.252 22.5491 126.9 22.782 126.525 22.9218C126.15 23.015 125.798 23.178 125.47 23.411C125.282 23.5973 125.071 23.9933 124.836 24.599C124.602 25.1581 124.391 25.7637 124.203 26.416C124.016 27.0216 123.851 27.4875 123.711 27.8136C123.523 28.3261 123.359 28.8852 123.218 29.4908C123.124 30.0499 122.96 30.5624 122.726 31.0283L122.304 32.4958C122.257 32.6822 122.163 33.0782 122.022 33.6839C121.882 34.2429 121.764 34.7787 121.67 35.2912C121.624 35.8037 121.624 36.0599 121.67 36.0599C121.764 36.0133 122.186 35.5474 122.937 34.6622C123.734 33.777 124.719 32.6822 125.892 31.3777C127.064 30.0266 128.26 28.6988 129.48 27.3943C130.746 26.0898 131.872 24.9717 132.857 24.0399C133.842 23.1082 134.522 22.619 134.897 22.5724H135.249C135.906 22.5724 136.422 22.6656 136.797 22.8519C137.172 22.9917 137.289 23.5042 137.149 24.3893C136.633 26.1131 135.953 27.8369 135.108 29.5607C134.311 31.2379 133.912 32.985 133.912 34.802C133.912 35.0349 133.936 35.4076 133.983 35.9201C134.076 36.4326 134.217 36.8752 134.405 37.2479C134.639 37.6672 134.921 37.8769 135.249 37.8769C135.859 37.8769 136.492 37.5507 137.149 36.8985C137.852 36.2463 138.532 35.5241 139.189 34.7321C139.846 33.9401 140.409 33.3577 140.878 32.985V33.7537C140.784 33.8935 140.69 34.0566 140.596 34.2429C140.502 34.4293 140.409 34.6156 140.315 34.802C139.986 35.2679 139.47 35.8735 138.767 36.619C138.11 37.3644 137.547 37.9235 137.078 38.2962C136.938 38.3893 136.727 38.4592 136.445 38.5058C136.164 38.5524 135.929 38.5757 135.742 38.5757C135.507 38.5757 135.296 38.5291 135.108 38.4359C134.921 38.3428 134.71 38.2496 134.475 38.1564C132.88 37.411 132.083 36.1531 132.083 34.3827C132.083 33.4975 132.107 32.6822 132.153 31.9368C132.247 31.1913 132.411 30.3993 132.646 29.5607C132.88 28.7687 133.068 27.9767 133.209 27.1847C133.396 26.3927 133.584 25.6007 133.772 24.8086L131.52 26.975C131.286 27.1614 131.075 27.4176 130.887 27.7438C130.746 28.0233 130.559 28.2795 130.324 28.5125C130.09 28.8386 129.808 29.1181 129.48 29.3511C129.152 29.584 128.847 29.8636 128.565 30.1897C128.143 30.609 127.744 31.0982 127.369 31.6572C127.041 32.1697 126.666 32.6356 126.244 33.0549C125.915 33.381 125.587 33.7071 125.259 34.0333C124.977 34.3594 124.696 34.7088 124.414 35.0815C124.227 35.3145 123.969 35.7105 123.64 36.2695C123.312 36.782 122.96 37.2945 122.585 37.807C122.257 38.3195 121.952 38.6223 121.67 38.7155ZM125.751 22.0133H125.962C129.292 19.9634 132.411 17.4476 135.319 14.4659C138.227 11.4376 140.432 8.10649 141.933 4.47254C142.027 4.14642 142.05 3.91348 142.003 3.77371C142.003 3.63394 142.003 3.401 142.003 3.07488C142.003 2.93511 141.863 2.88852 141.581 2.93511C141.347 2.93511 141.159 2.91181 141.018 2.86522C140.69 3.05158 140.268 3.26123 139.752 3.49417C139.236 3.72712 138.837 3.96006 138.556 4.19301C138.462 4.2396 138.392 4.30948 138.345 4.40266C138.345 4.49584 138.321 4.58902 138.274 4.6822L137.36 5.5208C137.219 5.66056 137.055 5.80033 136.867 5.9401C136.727 6.03328 136.586 6.12645 136.445 6.21963C136.258 6.40599 136.093 6.59235 135.953 6.7787C135.859 6.91847 135.718 7.08153 135.531 7.26788C135.343 7.45424 135.155 7.6173 134.968 7.75707C134.827 7.89684 134.639 8.0599 134.405 8.24625C134.264 8.33943 133.983 8.64226 133.561 9.15474C133.185 9.66722 132.74 10.2729 132.224 10.9717C131.755 11.624 131.309 12.2296 130.887 12.7887C130.512 13.3477 130.277 13.7205 130.183 13.9068C130.137 13.9534 130.066 14.0466 129.972 14.1864C129.926 14.3261 129.855 14.4193 129.761 14.4659C129.761 14.6988 129.691 14.8153 129.55 14.8153L129.621 15.0948H129.41C129.363 15.2812 129.198 15.6073 128.917 16.0732C128.636 16.4925 128.401 16.7022 128.214 16.7022C128.214 16.7487 128.214 16.772 128.214 16.772C128.26 16.772 128.284 16.772 128.284 16.772V16.8419C128.284 16.8885 128.167 17.168 127.932 17.6805C127.698 18.193 127.416 18.7754 127.088 19.4276C126.76 20.0799 126.455 20.6622 126.173 21.1747C125.939 21.6406 125.798 21.9201 125.751 22.0133Z" fill="#4C2A00"/>
<path d="M104.364 35.8501C104.083 35.8501 103.755 35.7103 103.379 35.4308C103.051 35.1512 102.887 34.8717 102.887 34.5922C102.887 33.707 103.121 32.6354 103.59 31.3775C104.06 30.1196 104.622 28.8151 105.279 27.4641C105.983 26.113 106.663 24.8318 107.319 23.6205C108.023 22.4092 108.609 21.4075 109.078 20.6155C109.313 20.1962 109.5 19.7536 109.641 19.2877C109.829 18.8218 110.087 18.4025 110.415 18.0298C110.79 18.0764 111.212 18.1928 111.681 18.3792C112.197 18.5656 112.455 18.915 112.455 19.4275C112.455 19.8002 112.221 20.2195 111.752 20.6854C111.33 21.1047 111.001 21.4541 110.767 21.7336C109.735 22.8983 108.797 24.1562 107.953 25.5073C107.155 26.8584 106.428 28.2328 105.772 29.6304C105.631 29.91 105.514 30.1895 105.42 30.4691C105.326 30.702 105.232 30.9349 105.138 31.1679C105.045 31.4008 104.927 31.6338 104.787 31.8667C104.646 32.0531 104.575 32.2627 104.575 32.4957C104.575 32.5888 104.599 32.7053 104.646 32.8451C104.693 32.9849 104.787 33.0547 104.927 33.0547C105.302 32.682 105.889 32.0531 106.686 31.1679C107.484 30.2361 108.351 29.281 109.289 28.3027C110.227 27.2777 111.072 26.3925 111.822 25.6471C112.619 24.9017 113.159 24.4591 113.44 24.3193C113.534 24.2727 113.628 24.2494 113.722 24.2494C113.816 24.2028 113.909 24.1795 114.003 24.1795C114.754 24.1795 115.34 24.529 115.762 25.2278C116.184 25.88 116.395 26.5323 116.395 27.1845C116.395 27.9299 116.325 28.6521 116.184 29.3509C116.043 30.0497 115.973 30.7486 115.973 31.4474C115.973 32.0065 116.09 32.7286 116.325 33.6138C116.559 34.499 117.052 34.9416 117.802 34.9416C117.99 34.8484 118.201 34.7552 118.436 34.6621C118.67 34.5689 118.881 34.5223 119.069 34.5223C119.209 34.5223 119.28 34.6155 119.28 34.8018C119.28 35.0348 119.139 35.2211 118.858 35.3609C118.623 35.5007 118.412 35.5706 118.224 35.5706C117.521 35.5706 116.794 35.2677 116.043 34.6621C115.293 34.0098 114.824 33.3576 114.636 32.7053C114.449 32.0065 114.308 31.3077 114.214 30.6088C114.167 29.8634 114.144 29.1413 114.144 28.4424C114.144 28.1163 114.167 27.6504 114.214 27.0448C114.308 26.3925 114.355 25.9732 114.355 25.7869C114.074 25.7869 113.698 25.9965 113.229 26.4158C112.76 26.7885 112.315 27.2078 111.892 27.6737C111.47 28.093 111.165 28.4191 110.978 28.6521C110.884 28.7453 110.743 28.8384 110.556 28.9316C110.415 29.0248 110.274 29.1413 110.134 29.281C109.946 29.514 109.735 29.7935 109.5 30.1196C109.266 30.3992 109.031 30.6554 108.797 30.8883C108.703 30.9815 108.492 31.1446 108.164 31.3775C107.882 31.6105 107.695 31.7968 107.601 31.9366C107.366 32.4025 107.061 32.8451 106.686 33.2644C106.311 33.6837 105.959 34.1263 105.631 34.5922C105.537 34.7319 105.443 34.9183 105.349 35.1512C105.256 35.3376 105.138 35.4774 104.998 35.5706C104.857 35.7569 104.646 35.8501 104.364 35.8501Z" fill="#4C2A00"/>
<path d="M103.921 19.4277C103.733 19.4277 103.499 19.3112 103.217 19.0782C102.936 18.8453 102.795 18.6356 102.795 18.4493C102.795 18.3561 102.959 18.1465 103.288 17.8203C103.616 17.4476 103.968 17.0982 104.343 16.7721C104.765 16.3994 105.023 16.1664 105.117 16.0732C105.492 16.1664 105.68 16.3761 105.68 16.7022C105.68 16.8885 105.562 17.2147 105.328 17.6806C105.14 18.0999 104.906 18.4959 104.624 18.8686C104.39 19.2413 104.155 19.4277 103.921 19.4277ZM96.4631 37.5275C96.3224 37.5275 96.1816 37.4809 96.0409 37.3877C95.9471 37.2945 95.8299 37.2247 95.6892 37.1781C95.3608 36.8985 95.1263 36.6656 94.9856 36.4792C94.8449 36.2929 94.7745 35.9667 94.7745 35.5009C94.7745 34.01 95.1263 32.589 95.8299 31.238C96.5334 29.8403 97.1901 28.5125 97.7998 27.2546C97.8936 27.1614 97.9171 27.0682 97.8702 26.9751C97.8233 26.8353 97.7998 26.7188 97.7998 26.6256C97.7998 26.2063 97.964 25.7405 98.2923 25.228C98.6676 24.6689 99.0897 24.1331 99.5587 23.6207C100.028 23.1082 100.403 22.7355 100.684 22.5025C100.966 22.5025 101.388 22.5491 101.951 22.6423C102.514 22.6889 102.795 22.8985 102.795 23.2712C102.795 23.3178 102.561 23.5974 102.092 24.1098C101.622 24.6223 101.341 24.9484 101.247 25.0882C100.638 26.02 99.9105 27.1381 99.0662 28.4426C98.2689 29.7005 97.5653 31.005 96.9556 32.3561C96.3458 33.7072 96.0409 34.9884 96.0409 36.1997C96.6038 36.1065 97.1901 35.7804 97.7998 35.2213C98.4565 34.6157 98.949 34.1032 99.2773 33.6839H99.3477V33.7538C99.3477 33.9401 99.2539 34.1265 99.0662 34.3128C98.8786 34.4992 98.7379 34.6623 98.6441 34.802C98.4565 35.1281 98.1516 35.6639 97.7295 36.4093C97.3542 37.1548 96.9321 37.5275 96.4631 37.5275Z" fill="#4C2A00"/>
<path d="M85.8192 37.9468C84.5997 37.9468 83.6851 37.6673 83.0753 37.1082C82.4656 36.5491 82.0669 35.827 81.8793 34.9418C81.6917 34.0566 81.5979 33.1481 81.5979 32.2164C81.5979 31.4709 81.4102 31.0749 81.035 31.0283C80.6598 30.9352 80.4956 30.7721 80.5425 30.5392L82.02 29.421C82.02 29.421 82.0903 29.1648 82.2311 28.6523C82.4187 28.1398 82.6063 27.6041 82.7939 27.045C82.9815 26.4859 83.0988 26.1598 83.1457 26.0666C83.0988 25.9269 83.216 25.5308 83.4975 24.8786C83.8258 24.2264 84.1776 23.5042 84.5528 22.7122C84.9749 21.8736 85.3736 21.1515 85.7488 20.5458C86.1241 19.8936 86.3586 19.5442 86.4524 19.4976V19.4277H86.382C86.6166 19.055 86.8042 18.6823 86.9449 18.3095C87.1325 17.9368 87.3905 17.6107 87.7188 17.3312C87.7188 17.238 87.883 16.9585 88.2113 16.4926C88.5865 15.9801 88.821 15.654 88.9149 15.5142C90.1344 13.8836 91.5415 12.1132 93.1362 10.2031C94.7778 8.24632 96.4898 6.75547 98.2722 5.73052C98.5067 5.63734 98.7177 5.54416 98.9054 5.45098C99.093 5.31121 99.2806 5.21804 99.4682 5.17145C99.562 5.17145 99.6089 5.17145 99.6089 5.17145C99.6558 5.12486 99.7027 5.10156 99.7496 5.10156C100.312 5.10156 100.969 5.33451 101.72 5.8004C102.517 6.26629 102.916 6.82536 102.916 7.4776C102.916 7.94349 102.587 8.68892 101.931 9.71388C101.321 10.6922 100.547 11.8104 99.6089 13.0683C98.6709 14.2796 97.6624 15.5142 96.5836 16.7721C95.5517 17.9834 94.6137 19.055 93.7694 19.9868C92.9251 20.9185 92.3154 21.5708 91.9401 21.9435C91.7994 22.0833 91.6353 22.223 91.4477 22.3628C91.26 22.5026 91.0724 22.6656 90.8848 22.852C90.5096 23.2247 90.1344 23.6207 89.7591 24.04C89.4308 24.4593 89.0556 24.8553 88.6334 25.228C88.0237 25.7871 87.4139 26.3462 86.8042 26.9052C86.2413 27.4643 85.655 28.0001 85.0453 28.5125C84.8108 28.6989 84.5528 28.9086 84.2714 29.1415C84.0368 29.3744 83.8023 29.6074 83.5678 29.8403C83.3333 30.1199 83.1691 30.6323 83.0753 31.3778C82.9815 32.1232 82.9346 32.6823 82.9346 33.055C82.9346 33.4743 82.9815 34.0333 83.0753 34.7322C83.216 35.3844 83.4506 35.9668 83.7789 36.4793C84.1072 36.9917 84.5528 37.248 85.1156 37.248C85.3971 37.248 85.6316 37.2014 85.8192 37.1082C86.0537 37.015 86.2882 36.8986 86.5228 36.7588C87.883 36.0134 89.1494 35.1748 90.322 34.243C91.4946 33.2646 92.5968 32.2397 93.6287 31.1681C94.0039 30.7954 94.3557 30.4227 94.684 30.05C95.0593 29.6307 95.4345 29.2347 95.8097 28.862C95.9035 28.7688 96.0911 28.5824 96.3726 28.3029C96.654 28.0234 96.8885 27.9069 97.0761 27.9535C97.0292 28.2796 96.8416 28.5824 96.5133 28.862C96.2319 29.0949 95.9973 29.3511 95.8097 29.6307C95.5283 30.05 95.2703 30.4693 95.0358 30.8886C94.8013 31.2613 94.5668 31.6806 94.3322 32.1465C94.2384 32.3328 94.0977 32.5192 93.9101 32.7056C93.7225 32.8919 93.5583 33.0783 93.4176 33.2646C92.7141 34.1032 91.9401 34.8719 91.0959 35.5708C90.2985 36.2696 89.3604 36.852 88.2816 37.3179C87.8595 37.5042 87.4608 37.644 87.0856 37.7372C86.7104 37.8769 86.2882 37.9468 85.8192 37.9468ZM84.4121 27.4643C87.1794 24.9019 89.8764 22.2463 92.503 19.4976C95.1296 16.7022 97.4513 13.6972 99.4682 10.4826C99.7027 10.1099 100.008 9.52752 100.383 8.73551C100.805 7.8969 101.016 7.29125 101.016 6.91853C101.016 6.639 100.946 6.47594 100.805 6.42935C100.242 6.61571 99.7496 6.87195 99.3275 7.19807C98.9054 7.52419 98.4598 7.87361 97.9907 8.24632C97.8969 8.3395 97.7328 8.45597 97.4983 8.59574C97.3106 8.68892 97.1699 8.7821 97.0761 8.87527C96.7478 9.24798 96.396 9.6207 96.0208 9.99341C95.6455 10.3661 95.2703 10.7388 94.8951 11.1115C94.3791 11.6706 93.8867 12.253 93.4176 12.8586C92.9486 13.4643 92.4795 14.0699 92.0105 14.6756C90.9317 16.0267 90.0171 17.238 89.2666 18.3095C88.5631 19.3811 87.7423 20.6623 86.8042 22.1531C86.6166 22.4327 86.3117 22.9452 85.8896 23.6906C85.4674 24.3894 85.0687 25.1115 84.6935 25.857C84.3652 26.5558 84.1776 27.0683 84.1307 27.3944L84.4121 27.4643Z" fill="#4C2A00"/>
<path d="M70.2326 37.1779C69.06 37.1779 67.8874 36.8052 66.7148 36.0598C65.5422 35.3144 64.9559 34.2894 64.9559 32.9849C64.9559 32.752 64.9559 32.519 64.9559 32.2861C65.0028 32.0531 65.0263 31.8435 65.0263 31.6571C65.0263 31.3776 64.8152 31.1446 64.3931 30.9583C63.9709 30.7253 63.7599 30.4691 63.7599 30.1896C63.8068 30.143 63.8771 30.1197 63.9709 30.1197C64.1586 30.1197 64.3462 30.1663 64.5338 30.2595C64.7214 30.306 64.909 30.3293 65.0966 30.3293C65.2373 30.3293 65.4015 30.2828 65.5891 30.1896C65.6829 30.0964 65.8705 29.6771 66.152 28.9317C66.4803 28.1862 66.9493 27.2778 67.5591 26.2062C68.1688 25.1347 68.9427 24.1097 69.8808 23.1313C70.8189 22.1064 71.9446 21.3144 73.2579 20.7553C73.5393 20.6621 73.8207 20.5689 74.1022 20.4758C74.4305 20.336 74.7354 20.2661 75.0168 20.2661C75.5327 20.2661 76.0721 20.4758 76.635 20.8951C77.2447 21.2678 77.5496 21.7337 77.5496 22.2927C77.5496 22.6189 77.4792 22.9217 77.3385 23.2012C77.1978 23.4342 77.0571 23.6904 76.9164 23.9699L76.5646 24.1796C76.4239 24.4125 76.1659 24.7387 75.7907 25.158C75.4624 25.5307 75.2982 25.8102 75.2982 25.9966C75.2982 25.9966 75.2748 25.9966 75.2279 25.9966C75.2279 25.9966 75.2279 26.0199 75.2279 26.0664L74.9464 26.1363C74.665 26.3227 74.4305 26.5556 74.2429 26.8352C74.0553 27.1147 73.8442 27.3244 73.6097 27.4641C72.7185 28.0698 71.8273 28.6521 70.9362 29.2112C70.0919 29.7703 69.1773 30.2828 68.1923 30.7486C68.0047 30.8418 67.7936 30.9117 67.5591 30.9583C67.3246 31.0049 67.1369 31.1214 66.9962 31.3077C66.8086 31.5872 66.6679 31.9134 66.5741 32.2861C66.5272 32.6588 66.5037 33.0315 66.5037 33.4042C66.5037 33.9633 66.6445 34.5922 66.9259 35.2911C67.2073 35.9433 67.6998 36.2694 68.4033 36.2694C68.4972 36.2694 68.5675 36.2694 68.6144 36.2694C68.7082 36.2229 68.7786 36.1996 68.8255 36.1996C69.1069 36.1996 69.3649 36.1763 69.5994 36.1297C69.8808 36.0831 70.1622 36.0365 70.4437 35.9899L70.8658 35.7803H70.9362C71.1707 35.7803 71.6163 35.6172 72.2729 35.2911C72.9765 34.9184 73.6566 34.5456 74.3132 34.1729C74.9699 33.7536 75.3686 33.4741 75.5093 33.3343C75.6031 33.2877 75.6734 33.2179 75.7203 33.1247C75.8142 33.0315 75.8845 32.9616 75.9314 32.915C76.7288 32.3094 77.5496 31.727 78.3939 31.1679C79.2381 30.6089 80.0355 29.9566 80.786 29.2112V29.2811H80.9267C80.8798 29.514 80.6922 29.747 80.3638 29.9799C80.0824 30.2129 79.8713 30.4458 79.7306 30.6788C79.2147 31.6105 78.3939 32.4957 77.2682 33.3343C76.1425 34.1729 75.1106 34.8951 74.1725 35.5007C73.8442 35.7337 73.5159 35.9899 73.1875 36.2694C72.9061 36.5024 72.5778 36.6887 72.2026 36.8285C71.499 37.0615 70.8423 37.1779 70.2326 37.1779ZM67.4887 29.4907C67.864 29.4907 68.2157 29.351 68.5441 29.0714C68.9193 28.7453 69.2007 28.559 69.3883 28.5124L69.4587 28.5823V28.5124C70.3499 28.0931 71.1941 27.5107 71.9915 26.7653C72.8358 26.0199 73.6097 25.2977 74.3132 24.5989H74.4539C74.4539 24.3194 74.665 24.0165 75.0871 23.6904C75.5093 23.3177 75.7203 23.0149 75.7203 22.7819C75.8142 22.6887 75.908 22.549 76.0018 22.3626C76.0956 22.1297 76.1425 21.9666 76.1425 21.8734C76.0018 21.7803 75.7907 21.7337 75.5093 21.7337C75.2748 21.8268 74.9699 21.9899 74.5947 22.2229C74.2194 22.4558 73.8911 22.5723 73.6097 22.5723C73.6097 22.6189 73.3752 22.8052 72.9061 23.1313C72.484 23.4575 72.0384 23.8069 71.5694 24.1796C71.1003 24.5523 70.7954 24.8085 70.6547 24.9483C70.4202 25.1813 70.045 25.6006 69.529 26.2062C69.0131 26.8119 68.5441 27.4175 68.1219 28.0232C67.6998 28.6288 67.4887 29.0947 67.4887 29.4209V29.4907Z" fill="#4C2A00"/>
<path d="M49.6475 38.1565C49.3661 38.1565 49.0846 38.0633 48.8032 37.877C48.5218 37.7372 48.3342 37.5043 48.2404 37.1781C48.2404 37.1316 48.2404 37.0151 48.2404 36.8287C48.2873 36.689 48.3342 36.6191 48.3811 36.6191L51.7582 28.7222C52.0865 27.9302 52.4383 26.9984 52.8135 25.9269C53.1887 24.8088 53.4701 23.7139 53.6578 22.6424C53.8923 21.5242 53.9626 20.5692 53.8688 19.7771C53.5874 19.7771 53.2825 19.8237 52.9542 19.9169C52.6259 20.0101 52.321 20.0567 52.0396 20.0567C51.9458 20.0567 51.8989 19.9868 51.8989 19.847C51.8989 19.7073 51.9458 19.5675 52.0396 19.4277C52.1803 19.2414 52.4148 19.1715 52.7431 19.2181C52.8369 19.2647 53.048 19.288 53.3763 19.288C53.9392 19.288 54.5724 19.3113 55.2759 19.3578C55.9795 19.3578 56.3547 19.6607 56.4016 20.2663C56.4016 20.4993 56.2375 21.035 55.9091 21.8737C55.6277 22.7123 55.2525 23.6673 54.7835 24.7389C54.3613 25.8104 53.9626 26.8354 53.5874 27.8137C53.2122 28.7455 52.9542 29.4444 52.8135 29.9103C52.579 30.3761 52.4617 30.7023 52.4617 30.8886H52.6728C53.048 30.283 53.4701 29.7472 53.9392 29.2813C54.4551 28.7688 54.9007 28.2098 55.2759 27.6041C55.5574 27.4177 55.9795 26.9751 56.5423 26.2763C57.1052 25.5309 57.6915 24.7855 58.3012 24.04C58.9579 23.248 59.5676 22.689 60.1305 22.3628C60.2243 22.3162 60.4354 22.1998 60.7637 22.0134C61.092 21.7805 61.2796 21.6407 61.3265 21.5941C61.4672 21.5941 61.608 21.5941 61.7487 21.5941C61.9363 21.5475 62.1004 21.5242 62.2412 21.5242C62.3819 21.5242 62.4991 21.5475 62.5929 21.5941C62.7337 21.5941 62.8744 21.5941 63.0151 21.5941C63.1558 21.5941 63.4607 21.7106 63.9297 21.9435C64.3987 22.1299 64.8443 22.3628 65.2665 22.6424C65.6886 22.8753 65.8997 23.0617 65.8997 23.2014C65.8997 23.6207 65.7355 23.9469 65.4072 24.1798C65.0788 24.3662 64.7974 24.5758 64.5629 24.8088C64.2346 25.2281 63.8593 25.6939 63.4372 26.2064C63.062 26.6723 62.8275 27.1848 62.7337 27.7439L62.6633 28.0933L62.5929 28.1632C62.5929 28.1632 62.5695 28.1399 62.5226 28.0933C62.5226 28.0467 62.4991 28.0234 62.4522 28.0234L62.3819 28.0933C62.3819 27.1615 62.6164 26.2763 63.0854 25.4377C63.5545 24.5525 63.789 23.6673 63.789 22.7821C63.789 22.5492 63.6952 22.4327 63.5076 22.4327C63.1792 22.4327 62.7337 22.6424 62.1708 23.0617C61.608 23.4344 61.092 23.8304 60.623 24.2497C60.1539 24.6224 59.8725 24.8088 59.7787 24.8088C59.6849 24.9951 59.4035 25.2979 58.9344 25.7172C58.5123 26.1365 58.2074 26.4161 58.0198 26.5558C57.6915 26.8354 57.3866 27.1615 57.1052 27.5342C56.8707 27.9069 56.6127 28.2796 56.3313 28.6524C56.2844 28.6989 56.1906 28.7688 56.0499 28.862C55.9091 28.9552 55.7919 29.0484 55.6981 29.1415C55.5105 29.4677 55.2759 29.7705 54.9945 30.05C54.9007 30.2364 54.8069 30.4227 54.7131 30.6091C54.6662 30.7954 54.5489 30.9818 54.3613 31.1682L54.0095 31.238C53.8219 31.6108 53.5874 31.9602 53.306 32.2863C53.0246 32.5658 52.7666 32.8687 52.5321 33.1948C52.3445 33.5209 52.1803 33.8703 52.0396 34.243C51.9458 34.6157 51.7816 34.9419 51.5471 35.2214C51.2657 35.5941 50.9608 36.0367 50.6325 36.5492C50.351 37.0151 50.2103 37.5043 50.2103 38.0167H50.14C49.9524 38.1099 49.7882 38.1565 49.6475 38.1565Z" fill="#4C2A00"/>
<path d="M40.8428 41.9998C40.6082 41.9998 40.233 41.86 39.7171 41.5805C39.2011 41.3009 38.8494 41.068 38.6617 40.8816C38.3334 40.5089 38.0989 40.0663 37.9582 39.5538C37.8644 39.0414 37.8175 38.5522 37.8175 38.0863C37.8175 36.5488 38.1692 34.8018 38.8728 32.845C39.5764 30.8883 40.3034 29.2344 41.0538 27.8833C41.1476 27.6969 41.3353 27.3475 41.6167 26.835C41.945 26.3226 42.2499 25.8101 42.5313 25.2976C42.8127 24.7851 42.9534 24.5056 42.9534 24.459L41.687 24.8783L41.2649 24.8084V24.8783C40.7959 25.2044 40.1861 25.4374 39.4356 25.5771C38.6852 25.7169 38.052 25.9033 37.536 26.1362L35.4254 27.1845H35.2847C35.097 27.1845 34.9329 27.0913 34.7922 26.9049C34.6984 26.672 34.6515 26.4856 34.6515 26.3459C34.6515 26.2061 34.9094 26.043 35.4254 25.8567C35.9413 25.6237 36.5511 25.3908 37.2546 25.1578C38.0051 24.9249 38.6852 24.7152 39.2949 24.5289C39.9516 24.3425 40.3737 24.2261 40.5613 24.1795C41.1711 24.0397 41.7339 23.8766 42.2499 23.6903H42.3202V23.6204C42.6486 23.6204 43.0003 23.5272 43.3756 23.3409C44.2667 22.0364 45.1345 20.7552 45.9787 19.4973C46.8699 18.1928 47.8783 17.0048 49.004 15.9332L50.5519 14.4657C50.9271 14.1395 51.2085 13.86 51.3961 13.6271C51.5837 13.3941 51.9121 13.1612 52.3811 12.9282C52.7094 12.9748 53.155 13.1379 53.7179 13.4174C54.3276 13.6969 54.6325 14.0231 54.6325 14.3958C54.6325 14.5355 54.398 14.7685 53.9289 15.0946C53.5068 15.4207 53.0612 15.7469 52.5922 16.073C52.1231 16.3525 51.7948 16.5622 51.6072 16.7019L51.1147 16.8417C50.5519 17.3076 50.0359 17.7968 49.5669 18.3093C49.0978 18.8217 48.6053 19.3342 48.0894 19.8467C47.808 20.0796 47.5735 20.3825 47.3858 20.7552C47.1982 21.1279 46.9637 21.454 46.6823 21.7335V22.0131C46.5885 22.0597 46.4243 22.1994 46.1898 22.4324C46.0022 22.6187 45.9084 22.7585 45.9084 22.8517C46.7057 22.8983 47.55 22.9682 48.4412 23.0613C49.3324 23.1545 50.0828 23.5272 50.6926 24.1795C50.1766 24.0397 49.6841 23.9232 49.2151 23.8301C48.793 23.6903 48.3239 23.6204 47.808 23.6204C46.8699 23.6204 46.0022 23.7602 45.2048 24.0397C45.2048 24.0397 45.0641 24.2494 44.7827 24.6687C44.5013 25.088 44.1964 25.5073 43.8681 25.9266C43.5866 26.2993 43.4459 26.5089 43.4459 26.5555C43.3052 26.7419 43.0238 27.2078 42.6017 27.9532C42.1795 28.652 41.7808 29.3509 41.4056 30.0497C41.0773 30.7019 40.8897 31.0513 40.8428 31.0979C40.8428 31.3309 40.7724 31.6337 40.6317 32.0064C40.491 32.3791 40.3737 32.682 40.2799 32.9149L40.2096 32.9848V33.0547C40.2096 33.3342 40.1392 33.637 39.9985 33.9632C39.8578 34.2893 39.7405 34.5688 39.6467 34.8018C39.2246 36.0597 39.0135 37.3642 39.0135 38.7152C39.0135 39.088 39.0604 39.5538 39.1542 40.1129C39.2949 40.672 39.5764 41.068 39.9985 41.3009C40.0923 41.3475 40.3034 41.3941 40.6317 41.4407C41.0069 41.4873 41.1945 41.5805 41.1945 41.7202C41.1945 41.9066 41.0773 41.9998 40.8428 41.9998ZM50.7629 24.1795C50.716 24.1795 50.6926 24.1795 50.6926 24.1795C50.6926 24.1795 50.716 24.1795 50.7629 24.1795Z" fill="#4C2A00"/>
<path d="M18.8932 35.8501C18.6118 35.8501 18.2835 35.7103 17.9082 35.4308C17.5799 35.1512 17.4157 34.8717 17.4157 34.5922C17.4157 33.707 17.6503 32.6354 18.1193 31.3775C18.5883 30.1196 19.1512 28.8151 19.8078 27.4641C20.5114 26.113 21.1915 24.8318 21.8481 23.6205C22.5517 22.4092 23.138 21.4075 23.607 20.6155C23.8416 20.1962 24.0292 19.7536 24.1699 19.2877C24.3575 18.8218 24.6155 18.4025 24.9438 18.0298C25.319 18.0764 25.7412 18.1928 26.2102 18.3792C26.7261 18.5656 26.9841 18.915 26.9841 19.4275C26.9841 19.8002 26.7496 20.2195 26.2806 20.6854C25.8584 21.1047 25.5301 21.4541 25.2956 21.7336C24.2637 22.8983 23.3256 24.1562 22.4813 25.5073C21.684 26.8584 20.957 28.2328 20.3003 29.6304C20.1596 29.91 20.0423 30.1895 19.9485 30.4691C19.8547 30.702 19.7609 30.9349 19.6671 31.1679C19.5733 31.4008 19.456 31.6338 19.3153 31.8667C19.1746 32.0531 19.1043 32.2627 19.1043 32.4957C19.1043 32.5888 19.1277 32.7053 19.1746 32.8451C19.2215 32.9849 19.3153 33.0547 19.456 33.0547C19.8313 32.682 20.4176 32.0531 21.2149 31.1679C22.0123 30.2361 22.88 29.281 23.8181 28.3027C24.7562 27.2777 25.6004 26.3925 26.3509 25.6471C27.1483 24.9017 27.6877 24.4591 27.9691 24.3193C28.0629 24.2727 28.1567 24.2494 28.2505 24.2494C28.3443 24.2028 28.4381 24.1795 28.5319 24.1795C29.2824 24.1795 29.8687 24.529 30.2908 25.2278C30.713 25.88 30.924 26.5323 30.924 27.1845C30.924 27.9299 30.8537 28.6521 30.713 29.3509C30.5723 30.0497 30.5019 30.7486 30.5019 31.4474C30.5019 32.0065 30.6192 32.7286 30.8537 33.6138C31.0882 34.499 31.5807 34.9416 32.3311 34.9416C32.5188 34.8484 32.7298 34.7552 32.9643 34.6621C33.1989 34.5689 33.4099 34.5223 33.5975 34.5223C33.7383 34.5223 33.8086 34.6155 33.8086 34.8018C33.8086 35.0348 33.6679 35.2211 33.3865 35.3609C33.152 35.5007 32.9409 35.5706 32.7533 35.5706C32.0497 35.5706 31.3227 35.2677 30.5723 34.6621C29.8218 34.0098 29.3528 33.3576 29.1651 32.7053C28.9775 32.0065 28.8368 31.3077 28.743 30.6088C28.6961 29.8634 28.6726 29.1413 28.6726 28.4424C28.6726 28.1163 28.6961 27.6504 28.743 27.0448C28.8368 26.3925 28.8837 25.9732 28.8837 25.7869C28.6023 25.7869 28.2271 25.9965 27.758 26.4158C27.289 26.7885 26.8434 27.2078 26.4213 27.6737C25.9991 28.093 25.6943 28.4191 25.5066 28.6521C25.4128 28.7453 25.2721 28.8384 25.0845 28.9316C24.9438 29.0248 24.8031 29.1413 24.6624 29.281C24.4748 29.514 24.2637 29.7935 24.0292 30.1196C23.7947 30.3992 23.5601 30.6554 23.3256 30.8883C23.2318 30.9815 23.0207 31.1446 22.6924 31.3775C22.411 31.6105 22.2234 31.7968 22.1296 31.9366C21.895 32.4025 21.5902 32.8451 21.2149 33.2644C20.8397 33.6837 20.4879 34.1263 20.1596 34.5922C20.0658 34.7319 19.972 34.9183 19.8782 35.1512C19.7844 35.3376 19.6671 35.4774 19.5264 35.5706C19.3857 35.7569 19.1746 35.8501 18.8932 35.8501Z" fill="#4C2A00"/>
<path d="M6.47273 37.1779C5.30013 37.1779 4.12754 36.8052 2.95494 36.0598C1.78235 35.3144 1.19605 34.2894 1.19605 32.9849C1.19605 32.752 1.19605 32.519 1.19605 32.2861C1.24295 32.0531 1.2664 31.8435 1.2664 31.6571C1.2664 31.3776 1.05534 31.1446 0.633202 30.9583C0.211067 30.7253 0 30.4691 0 30.1896C0.0469038 30.143 0.11726 30.1197 0.211067 30.1197C0.398682 30.1197 0.586298 30.1663 0.773913 30.2595C0.961528 30.306 1.14914 30.3293 1.33676 30.3293C1.47747 30.3293 1.64163 30.2828 1.82925 30.1896C1.92306 30.0964 2.11067 29.6771 2.39209 28.9317C2.72042 28.1862 3.18946 27.2778 3.79921 26.2062C4.40896 25.1347 5.18287 24.1097 6.12095 23.1313C7.05902 22.1064 8.18472 21.3144 9.49802 20.7553C9.77945 20.6621 10.0609 20.5689 10.3423 20.4758C10.6706 20.336 10.9755 20.2661 11.2569 20.2661C11.7729 20.2661 12.3123 20.4758 12.8751 20.8951C13.4848 21.2678 13.7897 21.7337 13.7897 22.2927C13.7897 22.6189 13.7194 22.9217 13.5787 23.2012C13.4379 23.4342 13.2972 23.6904 13.1565 23.9699L12.8047 24.1796C12.664 24.4125 12.4061 24.7387 12.0308 25.158C11.7025 25.5307 11.5383 25.8102 11.5383 25.9966C11.5383 25.9966 11.5149 25.9966 11.468 25.9966C11.468 25.9966 11.468 26.0199 11.468 26.0664L11.1866 26.1363C10.9051 26.3227 10.6706 26.5556 10.483 26.8352C10.2954 27.1147 10.0843 27.3244 9.8498 27.4641C8.95863 28.0698 8.06746 28.6521 7.17628 29.2112C6.33202 29.7703 5.41739 30.2828 4.43241 30.7486C4.2448 30.8418 4.03373 30.9117 3.79921 30.9583C3.56469 31.0049 3.37707 31.1214 3.23636 31.3077C3.04875 31.5872 2.90804 31.9134 2.81423 32.2861C2.76733 32.6588 2.74387 33.0315 2.74387 33.4042C2.74387 33.9633 2.88458 34.5922 3.16601 35.2911C3.44743 35.9433 3.93992 36.2694 4.64348 36.2694C4.73729 36.2694 4.80764 36.2694 4.85455 36.2694C4.94835 36.2229 5.01871 36.1996 5.06561 36.1996C5.34704 36.1996 5.60501 36.1763 5.83953 36.1297C6.12095 36.0831 6.40237 36.0365 6.68379 35.9899L7.10593 35.7803H7.17628C7.4108 35.7803 7.85639 35.6172 8.51304 35.2911C9.2166 34.9184 9.89671 34.5456 10.5534 34.1729C11.21 33.7536 11.6087 33.4741 11.7494 33.3343C11.8432 33.2877 11.9136 33.2179 11.9605 33.1247C12.0543 33.0315 12.1246 32.9616 12.1715 32.915C12.9689 32.3094 13.7897 31.727 14.634 31.1679C15.4783 30.6089 16.2756 29.9566 17.0261 29.2112V29.2811H17.1668C17.1199 29.514 16.9323 29.747 16.604 29.9799C16.3225 30.2129 16.1115 30.4458 15.9708 30.6788C15.4548 31.6105 14.634 32.4957 13.5083 33.3343C12.3826 34.1729 11.3507 34.8951 10.4126 35.5007C10.0843 35.7337 9.75599 35.9899 9.42767 36.2694C9.14625 36.5024 8.81792 36.6887 8.44269 36.8285C7.73913 37.0615 7.08248 37.1779 6.47273 37.1779ZM3.72885 29.4907C4.10408 29.4907 4.45586 29.351 4.78419 29.0714C5.15942 28.7453 5.44084 28.559 5.62846 28.5124L5.69881 28.5823V28.5124C6.58999 28.0931 7.43426 27.5107 8.23162 26.7653C9.07589 26.0199 9.8498 25.2977 10.5534 24.5989H10.6941C10.6941 24.3194 10.9051 24.0165 11.3273 23.6904C11.7494 23.3177 11.9605 23.0149 11.9605 22.7819C12.0543 22.6887 12.1481 22.549 12.2419 22.3626C12.3357 22.1297 12.3826 21.9666 12.3826 21.8734C12.2419 21.7803 12.0308 21.7337 11.7494 21.7337C11.5149 21.8268 11.21 21.9899 10.8348 22.2229C10.4596 22.4558 10.1312 22.5723 9.8498 22.5723C9.8498 22.6189 9.61528 22.8052 9.14625 23.1313C8.72411 23.4575 8.27852 23.8069 7.80949 24.1796C7.34045 24.5523 7.03557 24.8085 6.89486 24.9483C6.66034 25.1813 6.28511 25.6006 5.76917 26.2062C5.25323 26.8119 4.78419 27.4175 4.36205 28.0232C3.93992 28.6288 3.72885 29.0947 3.72885 29.4209V29.4907Z" fill="#4C2A00"/>
</svg>