<svg width="103" height="24" viewBox="0 0 103 24" fill="none" xmlns="http://www.w3.org/2000/svg">
<path d="M92.35 23.2413C92.2433 23.188 92.1365 23.0549 92.0297 22.8419C91.8963 22.6556 91.7762 22.4559 91.6694 22.2429C91.5626 22.0566 91.4559 21.9767 91.3491 22.0033C91.3491 21.8968 91.3358 21.8037 91.3091 21.7238C91.2557 21.6439 91.229 21.5641 91.229 21.4842C91.7895 20.7122 92.4701 20.02 93.2709 19.4077C94.0983 18.7954 94.9257 18.2762 95.7532 17.8503H95.8733C96.0601 17.6639 96.2736 17.5042 96.5138 17.3711C96.7808 17.2379 96.9809 17.0782 97.1144 16.8919V16.8519C96.7674 16.6389 96.3937 16.4526 95.9934 16.2929C95.593 16.1331 95.246 15.9068 94.9524 15.614C94.6855 15.401 94.4319 15.1348 94.1917 14.8153C93.9782 14.4959 93.8714 14.1498 93.8714 13.7771C93.8714 13.1914 94.1517 12.6589 94.7122 12.1797C95.2727 11.6739 95.7798 11.2879 96.2336 11.0216C96.367 10.8619 96.6206 10.6756 96.9943 10.4626C97.3947 10.2496 97.795 10.0499 98.1954 9.86358C98.6224 9.6506 98.9294 9.50417 99.1162 9.42431V9.46424C99.3031 9.33113 99.5166 9.23795 99.7568 9.18471L100.237 8.98504H100.317C100.531 8.9318 100.758 8.87855 100.998 8.8253C101.238 8.74544 101.465 8.70551 101.679 8.70551C101.919 8.70551 102.199 8.83862 102.519 9.10484C102.84 9.37106 103 9.63729 103 9.90351C103 10.01 102.92 10.2097 102.76 10.5025C102.626 10.7687 102.466 11.0216 102.279 11.2612C102.119 11.5008 101.986 11.6473 101.879 11.7005C101.852 11.7005 101.825 11.7138 101.799 11.7404C101.799 11.7404 101.785 11.7404 101.759 11.7404V11.6606C101.892 11.5008 102.012 11.2612 102.119 10.9418C102.252 10.5957 102.319 10.3162 102.319 10.1032C102.319 9.70384 102.106 9.50417 101.679 9.50417C101.358 9.50417 101.051 9.55742 100.758 9.66391C100.491 9.74378 100.211 9.85026 99.917 9.98337C98.9294 10.3295 98.0619 10.7421 97.3146 11.2213C96.5939 11.6739 95.9266 12.3528 95.3127 13.2579C95.206 13.4443 95.0859 13.6439 94.9524 13.8569C94.8457 14.0433 94.7923 14.2429 94.7923 14.4559C94.7923 14.7221 94.8857 14.9484 95.0725 15.1348C95.2861 15.2945 95.4996 15.4276 95.7131 15.5341C95.7932 15.5874 95.9934 15.7072 96.3137 15.8935C96.634 16.0799 96.9409 16.2662 97.2345 16.4526C97.5548 16.6123 97.7283 16.6922 97.755 16.6922C97.8884 16.6922 98.0219 16.6389 98.1553 16.5325C98.2888 16.426 98.4089 16.3461 98.5157 16.2929C98.8894 16.0799 99.4098 15.8137 100.077 15.4942C100.744 15.1481 101.278 14.9351 101.679 14.8553L102.239 14.7355C102.266 14.7355 102.306 14.7621 102.359 14.8153C102.333 14.8419 102.292 14.8819 102.239 14.9351C102.186 14.9617 102.132 14.9884 102.079 15.015C101.919 15.1747 101.652 15.3211 101.278 15.4543C100.931 15.5607 100.691 15.6672 100.558 15.7737C100.477 15.827 100.411 15.9068 100.357 16.0133C100.304 16.0932 100.237 16.1597 100.157 16.213C99.917 16.3727 99.61 16.5857 99.2363 16.8519C98.8627 17.0915 98.6758 17.3711 98.6758 17.6905C98.6758 17.797 98.6892 17.9035 98.7159 18.01C98.7692 18.1165 98.7959 18.2363 98.7959 18.3694C98.7959 18.5824 98.7292 18.8885 98.5958 19.2879C98.4623 19.6606 98.3022 19.9135 98.1153 20.0466V20.2063C97.8751 20.2862 97.6883 20.4592 97.5548 20.7255C97.448 20.9651 97.2345 21.0716 96.9142 21.0449L96.714 21.2845C96.5272 21.2845 96.367 21.3511 96.2336 21.4842C96.1001 21.6439 95.9667 21.7904 95.8332 21.9235H95.7932C95.6063 21.9235 95.4062 22.0033 95.1926 22.1631C95.0058 22.3494 94.7656 22.5092 94.472 22.6423C94.2051 22.802 93.8581 22.8419 93.431 22.7621C93.3243 22.7887 93.2308 22.8286 93.1508 22.8819C93.0707 22.9351 92.9773 22.9617 92.8705 22.9617C92.7904 22.9617 92.7504 22.9351 92.7504 22.8819C92.7504 22.8553 92.7904 22.802 92.8705 22.7221C92.9773 22.6689 93.2575 22.5358 93.7113 22.3228C94.165 22.1098 94.4853 21.9501 94.6722 21.8436C94.6722 21.817 94.7255 21.7637 94.8323 21.6839C94.9658 21.604 95.0458 21.5508 95.0725 21.5241C95.4195 21.2845 95.8065 20.9784 96.2336 20.6057C96.6606 20.2063 97.0343 19.7804 97.3546 19.3278C97.6749 18.8486 97.8351 18.396 97.8351 17.9701C97.8351 17.8902 97.8217 17.7837 97.795 17.6506C97.7683 17.4909 97.7016 17.411 97.5948 17.411C97.4881 17.411 97.3813 17.4642 97.2745 17.5707C97.1945 17.6772 97.1277 17.7571 97.0744 17.8103C96.8875 17.9434 96.6873 18.0766 96.4738 18.2097C96.2603 18.3428 96.0468 18.4892 95.8332 18.6489C95.5663 18.8353 95.3261 19.0483 95.1126 19.2879C94.899 19.5008 94.6588 19.7138 94.3919 19.9268C94.0449 20.193 93.7246 20.4726 93.431 20.7654C93.1374 21.0316 92.8438 21.3245 92.5502 21.6439C92.3367 21.8569 92.2299 22.1231 92.2299 22.4426C92.2299 22.5491 92.2566 22.6556 92.31 22.7621C92.3634 22.8952 92.3901 23.0283 92.3901 23.1614L92.35 23.2413Z" fill="#FFE8CC"/>
<path d="M82.4003 21.005C82.0266 21.005 81.6129 20.8053 81.1591 20.406C80.7054 19.98 80.4785 19.5674 80.4785 19.168H80.4385C80.4652 19.0616 80.4919 18.8086 80.5186 18.4093C80.5452 18.01 80.612 17.797 80.7187 17.7704V17.6905C80.7454 17.6639 80.8122 17.5574 80.9189 17.371C81.0257 17.1847 81.1325 16.985 81.2392 16.772C81.3727 16.5591 81.4527 16.4259 81.4794 16.3727C81.5595 16.2396 81.773 15.9867 82.12 15.614C82.467 15.2146 82.8273 14.8419 83.201 14.4958C83.5747 14.1497 83.8149 13.9767 83.9217 13.9767C84.0818 13.7371 84.3754 13.4709 84.8025 13.178C85.2562 12.8852 85.71 12.6056 86.1637 12.3394C86.6442 12.0732 86.9778 11.8868 87.1646 11.7804V11.7404L87.2047 11.7804H87.2447C87.3515 11.6739 87.5517 11.5674 87.8453 11.4609C88.1656 11.3278 88.3791 11.2479 88.4858 11.2213C88.6727 11.1414 88.8595 11.0882 89.0464 11.0616C89.2332 11.0349 89.42 11.0083 89.6069 10.9817C89.7403 11.0083 89.8738 11.0216 90.0072 11.0216C90.1674 11.0216 90.3142 11.0349 90.4476 11.0616C90.7146 11.1148 91.0082 11.2612 91.3285 11.5008C91.6487 11.7138 91.8089 11.98 91.8089 12.2995C91.7822 12.3261 91.7555 12.366 91.7288 12.4193C91.7021 12.4725 91.7021 12.5125 91.7288 12.5391L91.5687 12.4592C91.4085 12.1664 91.1683 11.9933 90.848 11.9401C90.5277 11.8602 90.2208 11.8203 89.9272 11.8203C89.2065 11.8203 88.4458 12.0066 87.6451 12.3794C86.8443 12.7254 86.057 13.1913 85.2829 13.777C84.5089 14.3627 83.8149 14.9883 83.201 15.6539C82.6138 16.3195 82.1734 16.9584 81.8798 17.5707L81.7597 18.0499C81.7063 18.3161 81.6262 18.569 81.5195 18.8086C81.4127 19.0482 81.3593 19.3145 81.3593 19.6073C81.3593 19.8203 81.386 19.98 81.4394 20.0865C81.4928 20.1664 81.5862 20.2995 81.7197 20.4858L81.7997 20.4459V20.4858L81.8798 20.406L82.0399 20.4459C82.2268 20.3394 82.427 20.2596 82.6405 20.2063C82.854 20.1264 83.0275 20.02 83.161 19.8868L83.241 19.807C83.4012 19.7537 83.548 19.6606 83.6814 19.5274C83.8149 19.3943 83.935 19.2745 84.0418 19.168C84.4421 18.7953 84.8425 18.4226 85.2429 18.0499C85.6432 17.6772 86.0169 17.2912 86.3639 16.8918C86.5507 16.6789 86.791 16.4126 87.0846 16.0932C87.3782 15.7737 87.6317 15.5474 87.8453 15.4143L87.8853 15.2546C88.0988 15.1747 88.299 14.9883 88.4858 14.6955C88.6994 14.4027 88.8996 14.1231 89.0864 13.8569C89.2999 13.5641 89.5001 13.4176 89.687 13.4176L89.8471 13.3777C90.0606 13.3777 90.2341 13.4709 90.3676 13.6572C90.501 13.817 90.5678 13.99 90.5678 14.1764C90.5678 14.3893 90.501 14.6289 90.3676 14.8952C90.2341 15.1614 90.1407 15.401 90.0873 15.614C89.9539 16.173 89.8604 16.6789 89.8071 17.1314C89.7537 17.5574 89.727 18.0499 89.727 18.609C89.727 18.9551 89.7804 19.2479 89.8871 19.4875C90.0206 19.7271 90.2074 19.98 90.4476 20.2462H90.6478C91.0215 20.0333 91.2884 19.807 91.4486 19.5674C91.6087 19.3278 91.8089 19.0749 92.0491 18.8086C92.0758 18.8086 92.1025 18.7953 92.1292 18.7687C92.1559 18.7421 92.1692 18.7288 92.1692 18.7288C92.2226 18.7288 92.2493 18.7554 92.2493 18.8086C92.2493 18.9151 92.2226 19.0216 92.1692 19.1281C92.1425 19.208 92.1158 19.3145 92.0891 19.4476C92.0358 19.7404 91.9557 20.02 91.8489 20.2862C91.7689 20.5258 91.5153 20.6456 91.0882 20.6456C90.848 20.6456 90.5811 20.5923 90.2875 20.4858C89.9939 20.3794 89.7537 20.2329 89.5668 20.0466C89.1665 19.594 88.9129 19.1015 88.8061 18.569C88.7261 18.01 88.686 17.4376 88.686 16.8519V15.574H88.606C88.4992 15.7338 88.3791 15.8935 88.2456 16.0532C88.1122 16.213 87.9787 16.3727 87.8453 16.5324C87.7385 16.6389 87.605 16.7587 87.4449 16.8918C87.3114 16.9983 87.1913 17.1314 87.0846 17.2912C87.0312 17.2912 86.9244 17.3844 86.7643 17.5707C86.6308 17.7304 86.5641 17.8502 86.5641 17.9301C86.3773 17.9567 86.1637 18.1165 85.9235 18.4093C85.71 18.7022 85.5632 18.8486 85.4831 18.8486C85.4564 18.9284 85.363 19.0616 85.2028 19.2479C85.0427 19.4076 84.9226 19.5274 84.8425 19.6073C84.6557 19.6339 84.4955 19.7271 84.3621 19.8868C84.2553 20.0466 84.1485 20.193 84.0418 20.3261C83.8016 20.4326 83.5346 20.579 83.241 20.7654C82.9474 20.9251 82.6672 21.005 82.4003 21.005Z" fill="#FFE8CC"/>
<path d="M69.2377 22.1231C68.9975 22.1231 68.7706 22.0699 68.5571 21.9634C68.3436 21.8569 68.2368 21.6705 68.2368 21.4043C68.2368 20.8985 68.3302 20.2729 68.5171 19.5274C68.7306 18.782 68.9708 18.0366 69.2377 17.2912C69.5046 16.5191 69.7315 15.827 69.9184 15.2146C70.1319 14.5757 70.2387 14.1231 70.2387 13.8569V13.817H70.0385C69.7182 13.817 69.3845 13.7105 69.0375 13.4975C68.7173 13.2579 68.5571 12.9651 68.5571 12.619C68.5571 12.2729 68.6906 11.9667 68.9575 11.7005C69.2244 11.4343 69.478 11.208 69.7182 11.0216C69.8249 10.9684 69.9184 10.9018 69.9984 10.822C70.1052 10.7155 70.212 10.6622 70.3187 10.6622L70.599 10.5424V10.5824C70.599 10.609 70.4922 10.7421 70.2787 10.9817C70.0652 11.1947 69.9317 11.3278 69.8783 11.381C69.7716 11.5408 69.6514 11.807 69.518 12.1797C69.4112 12.5524 69.3578 12.8319 69.3578 13.0183C69.3578 13.178 69.4112 13.2712 69.518 13.2978C69.6248 13.3245 69.7315 13.3378 69.8383 13.3378C69.945 13.3378 70.0785 13.2845 70.2387 13.178C70.3988 13.0715 70.5056 13.0449 70.5589 13.0982C70.5589 13.0715 70.6257 12.9251 70.7591 12.6589C70.9193 12.3927 71.0127 12.2463 71.0394 12.2196V12.0599C71.1461 11.8203 71.2529 11.5541 71.3597 11.2612C71.4664 10.9684 71.6132 10.7155 71.8001 10.5025V10.4626C71.9335 10.1697 72.1204 9.77038 72.3606 9.26456C72.6008 8.75873 72.8677 8.21298 73.1613 7.62728C73.4549 7.04159 73.7485 6.50915 74.0421 6.02995C74.3357 5.55075 74.576 5.21797 74.7628 5.03161C74.7628 4.97837 74.8696 4.81863 75.0831 4.55241C75.2966 4.25957 75.4301 4.07321 75.4835 3.99334C75.7504 3.59401 76.1507 3.12812 76.6846 2.59567C77.2184 2.06323 77.7789 1.57071 78.3661 1.11814C78.9533 0.638935 79.4471 0.332778 79.8475 0.199667L80.408 0C80.7816 0.106489 81.1153 0.266223 81.4089 0.4792C81.7025 0.665557 81.8493 0.971713 81.8493 1.39767C81.8493 1.90349 81.6891 2.50249 81.3689 3.19467C81.0486 3.88685 80.6749 4.55241 80.2478 5.19135C79.8208 5.83028 79.4604 6.34942 79.1668 6.74875C78.98 7.01497 78.7665 7.26788 78.5262 7.50748C78.3127 7.72046 78.1125 7.97338 77.9257 8.26622C77.7389 8.37271 77.5787 8.51913 77.4453 8.70549C77.3118 8.86522 77.1783 9.01165 77.0449 9.14476C76.8847 9.30449 76.6045 9.57071 76.2041 9.94342C75.8038 10.3161 75.35 10.7022 74.8429 11.1015C74.3624 11.5008 73.9087 11.8602 73.4816 12.1797C73.0813 12.4725 72.801 12.6323 72.6409 12.6589L72.6008 12.6988C72.414 12.8852 72.2138 13.0183 72.0003 13.0982C71.7867 13.1514 71.5866 13.2446 71.3997 13.3777C71.2929 13.4842 71.1728 13.7105 71.0394 14.0566C70.9059 14.376 70.7858 14.7221 70.6791 15.0948C70.5723 15.4409 70.4789 15.7072 70.3988 15.8935C70.292 16.1864 70.1986 16.5058 70.1185 16.8519C70.0652 17.1714 69.9717 17.4642 69.8383 17.7304L69.5981 18.569C69.5714 18.6755 69.518 18.9018 69.4379 19.2479C69.3578 19.5674 69.2911 19.8735 69.2377 20.1664C69.211 20.4592 69.211 20.6057 69.2377 20.6057C69.2911 20.579 69.5313 20.3128 69.9584 19.807C70.4121 19.3012 70.9727 18.6755 71.6399 17.9301C72.3072 17.1581 72.9878 16.3993 73.6818 15.6539C74.4025 14.9085 75.0431 14.2695 75.6036 13.7371C76.1641 13.2047 76.5511 12.9251 76.7646 12.8985H76.9648C77.3385 12.8985 77.6321 12.9517 77.8456 13.0582C78.0592 13.1381 78.1259 13.4309 78.0458 13.9368C77.7522 14.9218 77.3652 15.9068 76.8847 16.8918C76.431 17.8502 76.2041 18.8486 76.2041 19.8869C76.2041 20.02 76.2175 20.2329 76.2442 20.5258C76.2975 20.8186 76.3776 21.0715 76.4844 21.2845C76.6178 21.5241 76.778 21.6439 76.9648 21.6439C77.3118 21.6439 77.6721 21.4576 78.0458 21.0849C78.4462 20.7121 78.8332 20.2995 79.2069 19.8469C79.5805 19.3943 79.9008 19.0616 80.1677 18.8486V19.2879C80.1144 19.3677 80.061 19.4609 80.0076 19.5674C79.9542 19.6739 79.9008 19.7804 79.8475 19.8869C79.6606 20.1531 79.367 20.4992 78.9666 20.9251C78.593 21.3511 78.2727 21.6705 78.0058 21.8835C77.9257 21.9368 77.8056 21.9767 77.6454 22.0033C77.4853 22.0299 77.3518 22.0433 77.2451 22.0433C77.1116 22.0433 76.9915 22.0166 76.8847 21.9634C76.778 21.9101 76.6579 21.8569 76.5244 21.8037C75.6169 21.3777 75.1632 20.6589 75.1632 19.6473C75.1632 19.1414 75.1765 18.6755 75.2032 18.2496C75.2566 17.8236 75.35 17.371 75.4835 16.8918C75.6169 16.4393 75.7237 15.9867 75.8037 15.5341C75.9105 15.0815 76.0173 14.6289 76.124 14.1764L74.8429 15.4143C74.7094 15.5208 74.5893 15.6672 74.4825 15.8536C74.4025 16.0133 74.2957 16.1597 74.1622 16.2928C74.0288 16.4792 73.8686 16.6389 73.6818 16.772C73.495 16.9052 73.3215 17.0649 73.1613 17.2512C72.9211 17.4908 72.6942 17.7704 72.4807 18.0898C72.2939 18.3827 72.0803 18.6489 71.8401 18.8885C71.6533 19.0749 71.4664 19.2612 71.2796 19.4476C71.1195 19.6339 70.9593 19.8336 70.7992 20.0466C70.6924 20.1797 70.5456 20.406 70.3588 20.7255C70.1719 21.0183 69.9717 21.3111 69.7582 21.604C69.5714 21.8968 69.3979 22.0699 69.2377 22.1231ZM71.5599 12.579H71.68C73.575 11.4077 75.35 9.97005 77.0049 8.26622C78.6597 6.53577 79.9142 4.63228 80.7683 2.55574C80.8217 2.36938 80.835 2.23627 80.8083 2.15641C80.8083 2.07654 80.8083 1.94343 80.8083 1.75707C80.8083 1.6772 80.7283 1.65058 80.5681 1.6772C80.4347 1.6772 80.3279 1.66389 80.2478 1.63727C80.061 1.74376 79.8208 1.86356 79.5272 1.99667C79.2336 2.12978 79.0067 2.26289 78.8465 2.39601C78.7932 2.42263 78.7531 2.46256 78.7264 2.51581C78.7264 2.56905 78.7131 2.6223 78.6864 2.67554L78.1659 3.15474C78.0858 3.23461 77.9924 3.31447 77.8857 3.39434C77.8056 3.44759 77.7255 3.50083 77.6454 3.55407C77.5387 3.66056 77.4453 3.76705 77.3652 3.87354C77.3118 3.95341 77.2317 4.04659 77.125 4.15308C77.0182 4.25957 76.9114 4.35274 76.8047 4.43261C76.7246 4.51248 76.6178 4.60566 76.4844 4.71215C76.4043 4.76539 76.2442 4.93843 76.0039 5.23128C75.7904 5.52412 75.5368 5.87021 75.2432 6.26955C74.9763 6.64226 74.7228 6.98835 74.4825 7.30782C74.269 7.62729 74.1356 7.84026 74.0822 7.94675C74.0555 7.97338 74.0154 8.02662 73.9621 8.10649C73.9354 8.18635 73.8953 8.2396 73.842 8.26622C73.842 8.39933 73.8019 8.46589 73.7218 8.46589L73.7619 8.62562H73.6418C73.6151 8.73211 73.5217 8.91847 73.3615 9.18469C73.2014 9.42429 73.0679 9.54409 72.9611 9.54409C72.9611 9.57071 72.9611 9.58402 72.9611 9.58402C72.9878 9.58402 73.0012 9.58402 73.0012 9.58402V9.62396C73.0012 9.65058 72.9345 9.81031 72.801 10.1032C72.6675 10.396 72.5074 10.7288 72.3206 11.1015C72.1337 11.4742 71.9602 11.807 71.8001 12.0998C71.6666 12.3661 71.5866 12.5258 71.5599 12.579Z" fill="#FFE8CC"/>
<path d="M59.3896 20.4859C59.2295 20.4859 59.0426 20.406 58.8291 20.2463C58.6422 20.0865 58.5488 19.9268 58.5488 19.7671C58.5488 19.2613 58.6823 18.6489 58.9492 17.9301C59.2161 17.2113 59.5364 16.4659 59.9101 15.6939C60.3104 14.9218 60.6975 14.1897 61.0711 13.4975C61.4715 12.8054 61.8051 12.233 62.0721 11.7804C62.2055 11.5408 62.3123 11.2879 62.3924 11.0217C62.4991 10.7554 62.6459 10.5158 62.8328 10.3029C63.0463 10.3295 63.2865 10.396 63.5534 10.5025C63.847 10.609 63.9938 10.8087 63.9938 11.1015C63.9938 11.3145 63.8604 11.5541 63.5935 11.8203C63.3532 12.0599 63.1664 12.2596 63.0329 12.4193C62.4457 13.0849 61.9119 13.8037 61.4315 14.5757C60.9777 15.3478 60.564 16.1331 60.1903 16.9318C60.1103 17.0915 60.0435 17.2513 59.9902 17.411C59.9368 17.5441 59.8834 17.6772 59.83 17.8103C59.7766 17.9435 59.7099 18.0766 59.6298 18.2097C59.5497 18.3162 59.5097 18.436 59.5097 18.5691C59.5097 18.6223 59.5231 18.6889 59.5497 18.7687C59.5764 18.8486 59.6298 18.8885 59.7099 18.8885C59.9234 18.6756 60.2571 18.3162 60.7108 17.8103C61.1646 17.2779 61.6583 16.7321 62.1922 16.1731C62.726 15.5874 63.2064 15.0816 63.6335 14.6556C64.0872 14.2296 64.3942 13.9767 64.5543 13.8969C64.6077 13.8702 64.6611 13.8569 64.7145 13.8569C64.7679 13.8303 64.8212 13.817 64.8746 13.817C65.3017 13.817 65.6353 14.0167 65.8755 14.416C66.1158 14.7887 66.2359 15.1614 66.2359 15.5341C66.2359 15.9601 66.1958 16.3727 66.1158 16.7721C66.0357 17.1714 65.9957 17.5707 65.9957 17.9701C65.9957 18.2895 66.0624 18.7022 66.1958 19.208C66.3293 19.7138 66.6096 19.9667 67.0366 19.9667C67.1434 19.9135 67.2635 19.8603 67.3969 19.807C67.5304 19.7538 67.6505 19.7271 67.7573 19.7271C67.8373 19.7271 67.8774 19.7804 67.8774 19.8869C67.8774 20.02 67.7973 20.1265 67.6372 20.2064C67.5037 20.2862 67.3836 20.3262 67.2768 20.3262C66.8765 20.3262 66.4628 20.1531 66.0357 19.807C65.6086 19.4343 65.3417 19.0616 65.235 18.6889C65.1282 18.2895 65.0481 17.8902 64.9947 17.4909C64.968 17.0649 64.9547 16.6523 64.9547 16.2529C64.9547 16.0666 64.968 15.8004 64.9947 15.4543C65.0481 15.0816 65.0748 14.842 65.0748 14.7355C64.9147 14.7355 64.7011 14.8553 64.4342 15.0949C64.1673 15.3078 63.9137 15.5474 63.6735 15.8137C63.4333 16.0533 63.2598 16.2396 63.1531 16.3727C63.0997 16.426 63.0196 16.4792 62.9128 16.5325C62.8328 16.5857 62.7527 16.6523 62.6726 16.7321C62.5658 16.8653 62.4457 17.025 62.3123 17.2113C62.1788 17.3711 62.0454 17.5175 61.9119 17.6506C61.8585 17.7039 61.7384 17.797 61.5516 17.9301C61.3914 18.0633 61.2847 18.1697 61.2313 18.2496C61.0978 18.5158 60.9243 18.7687 60.7108 19.0083C60.4973 19.2479 60.2971 19.5009 60.1103 19.7671C60.0569 19.8469 60.0035 19.9534 59.9501 20.0865C59.8967 20.193 59.83 20.2729 59.7499 20.3262C59.6699 20.4326 59.5497 20.4859 59.3896 20.4859Z" fill="#FFE8CC"/>
<path d="M59.1374 11.1015C59.0306 11.1015 58.8972 11.0349 58.737 10.9018C58.5769 10.7687 58.4968 10.6489 58.4968 10.5424C58.4968 10.4892 58.5902 10.3694 58.7771 10.183C58.9639 9.97005 59.1641 9.77038 59.3776 9.58403C59.6178 9.37105 59.7646 9.23794 59.818 9.18469C60.0315 9.23794 60.1383 9.35774 60.1383 9.54409C60.1383 9.65058 60.0716 9.83694 59.9381 10.1032C59.8314 10.3428 59.6979 10.5691 59.5378 10.782C59.4043 10.995 59.2708 11.1015 59.1374 11.1015ZM54.8935 21.4443C54.8134 21.4443 54.7333 21.4176 54.6533 21.3644C54.5999 21.3111 54.5332 21.2712 54.4531 21.2446C54.2663 21.0849 54.1328 20.9517 54.0527 20.8453C53.9727 20.7388 53.9326 20.5524 53.9326 20.2862C53.9326 19.4343 54.1328 18.6223 54.5332 17.8502C54.9335 17.0516 55.3072 16.2928 55.6542 15.574C55.7076 15.5208 55.7209 15.4676 55.6942 15.4143C55.6675 15.3344 55.6542 15.2679 55.6542 15.2146C55.6542 14.975 55.7476 14.7088 55.9345 14.416C56.148 14.0965 56.3882 13.7903 56.6551 13.4975C56.922 13.2047 57.1355 12.9917 57.2957 12.8586C57.4558 12.8586 57.6961 12.8852 58.0164 12.9384C58.3366 12.9651 58.4968 13.0849 58.4968 13.2978C58.4968 13.3245 58.3633 13.4842 58.0964 13.777C57.8295 14.0699 57.6694 14.2562 57.616 14.3361C57.269 14.8686 56.8553 15.5075 56.3749 16.2529C55.9211 16.9717 55.5207 17.7171 55.1738 18.4892C54.8268 19.2612 54.6533 19.9933 54.6533 20.6855C54.9736 20.6323 55.3072 20.4459 55.6542 20.1265C56.0279 19.7804 56.3081 19.4875 56.495 19.2479H56.535V19.2879C56.535 19.3943 56.4816 19.5008 56.3749 19.6073C56.2681 19.7138 56.188 19.807 56.1346 19.8869C56.0279 20.0732 55.8544 20.3794 55.6142 20.8053C55.4006 21.2313 55.1604 21.4443 54.8935 21.4443Z" fill="#FFE8CC"/>
<path d="M48.8363 21.6839C48.1423 21.6839 47.6219 21.5241 47.2749 21.2047C46.9279 20.8852 46.701 20.4726 46.5942 19.9667C46.4875 19.4609 46.4341 18.9418 46.4341 18.4093C46.4341 17.9834 46.3273 17.7571 46.1138 17.7305C45.9003 17.6772 45.8069 17.584 45.8336 17.4509L46.6743 16.812C46.6743 16.812 46.7144 16.6656 46.7944 16.3727C46.9012 16.0799 47.008 15.7737 47.1147 15.4543C47.2215 15.1348 47.2882 14.9484 47.3149 14.8952C47.2882 14.8153 47.3549 14.589 47.5151 14.2163C47.7019 13.8436 47.9021 13.431 48.1156 12.9784C48.3559 12.4992 48.5827 12.0865 48.7963 11.7405C49.0098 11.3677 49.1433 11.1681 49.1966 11.1414V11.1015H49.1566C49.2901 10.8885 49.3968 10.6756 49.4769 10.4626C49.5837 10.2496 49.7305 10.0632 49.9173 9.90351C49.9173 9.85027 50.0107 9.69053 50.1976 9.42431C50.4111 9.13147 50.5445 8.94511 50.5979 8.86524C51.2919 7.93347 52.0926 6.92182 53.0001 5.8303C53.9343 4.71217 54.9085 3.86025 55.9228 3.27456C56.0563 3.22132 56.1764 3.16807 56.2831 3.11483C56.3899 3.03496 56.4967 2.98172 56.6034 2.9551C56.6568 2.9551 56.6835 2.9551 56.6835 2.9551C56.7102 2.92847 56.7369 2.91516 56.7636 2.91516C57.0839 2.91516 57.4575 3.04827 57.8846 3.3145C58.3383 3.58072 58.5652 3.90019 58.5652 4.2729C58.5652 4.53912 58.3784 4.96508 58.0047 5.55077C57.6577 6.10984 57.2173 6.74877 56.6835 7.46757C56.1497 8.15975 55.5758 8.86524 54.9619 9.58405C54.3747 10.2762 53.8409 10.8885 53.3604 11.421C52.88 11.9534 52.533 12.3261 52.3195 12.5391C52.2394 12.619 52.146 12.6989 52.0392 12.7787C51.9325 12.8586 51.8257 12.9518 51.7189 13.0583C51.5054 13.2712 51.2919 13.4975 51.0784 13.7371C50.8915 13.9767 50.678 14.203 50.4378 14.416C50.0908 14.7355 49.7438 15.0549 49.3968 15.3744C49.0765 15.6939 48.7429 16 48.3959 16.2929C48.2624 16.3994 48.1156 16.5192 47.9555 16.6523C47.822 16.7854 47.6886 16.9185 47.5551 17.0516C47.4217 17.2113 47.3283 17.5042 47.2749 17.9301C47.2215 18.3561 47.1948 18.6756 47.1948 18.8885C47.1948 19.1281 47.2215 19.4476 47.2749 19.8469C47.3549 20.2197 47.4884 20.5524 47.6752 20.8453C47.8621 21.1381 48.1156 21.2845 48.4359 21.2845C48.5961 21.2845 48.7295 21.2579 48.8363 21.2047C48.9698 21.1514 49.1032 21.0849 49.2367 21.005C50.0107 20.5791 50.7314 20.0998 51.3987 19.5674C52.0659 19.0083 52.6932 18.4226 53.2804 17.8103C53.4939 17.5974 53.6941 17.3844 53.8809 17.1714C54.0945 16.9318 54.308 16.7055 54.5215 16.4925C54.5749 16.4393 54.6817 16.3328 54.8418 16.1731C55.002 16.0133 55.1354 15.9468 55.2422 15.9734C55.2155 16.1598 55.1087 16.3328 54.9219 16.4925C54.7617 16.6256 54.6283 16.7721 54.5215 16.9318C54.3614 17.1714 54.2146 17.411 54.0811 17.6506C53.9477 17.8636 53.8142 18.1032 53.6807 18.3694C53.6274 18.4759 53.5473 18.5824 53.4405 18.6889C53.3338 18.7954 53.2403 18.9018 53.1603 19.0083C52.7599 19.4875 52.3195 19.9268 51.8391 20.3261C51.3853 20.7255 50.8515 21.0583 50.2376 21.3245C49.9974 21.431 49.7705 21.5108 49.557 21.5641C49.3434 21.6439 49.1032 21.6839 48.8363 21.6839ZM48.0356 15.6939C49.6103 14.2296 51.1451 12.7122 52.6398 11.1414C54.1345 9.54411 55.4557 7.82697 56.6034 5.99004C56.7369 5.77706 56.9104 5.44428 57.1239 4.9917C57.3641 4.5125 57.4842 4.16641 57.4842 3.95343C57.4842 3.7937 57.4442 3.70052 57.3641 3.6739C57.0438 3.78039 56.7636 3.92681 56.5233 4.11316C56.2831 4.29952 56.0296 4.49919 55.7626 4.71217C55.7093 4.76541 55.6158 4.83197 55.4824 4.91183C55.3756 4.96508 55.2956 5.01832 55.2422 5.07157C55.0553 5.28455 54.8551 5.49752 54.6416 5.7105C54.4281 5.92348 54.2146 6.13646 54.001 6.34944C53.7074 6.6689 53.4272 7.00168 53.1603 7.34777C52.8934 7.69386 52.6264 8.03995 52.3595 8.38604C51.7456 9.15809 51.2252 9.85027 50.7981 10.4626C50.3977 11.0749 49.9306 11.807 49.3968 12.6589C49.2901 12.8187 49.1166 13.1115 48.8763 13.5375C48.6361 13.9368 48.4092 14.3494 48.1957 14.7754C48.0089 15.1747 47.9021 15.4676 47.8754 15.6539L48.0356 15.6939Z" fill="#FFE8CC"/>
<path d="M39.9666 21.2446C39.2993 21.2446 38.632 21.0317 37.9647 20.6057C37.2975 20.1798 36.9638 19.5941 36.9638 18.8486C36.9638 18.7155 36.9638 18.5824 36.9638 18.4493C36.9905 18.3162 37.0039 18.1964 37.0039 18.0899C37.0039 17.9302 36.8838 17.7971 36.6435 17.6906C36.4033 17.5575 36.2832 17.411 36.2832 17.2513C36.3099 17.2247 36.3499 17.2114 36.4033 17.2114C36.5101 17.2114 36.6168 17.238 36.7236 17.2912C36.8304 17.3179 36.9371 17.3312 37.0439 17.3312C37.124 17.3312 37.2174 17.3045 37.3242 17.2513C37.3775 17.1981 37.4843 16.9585 37.6445 16.5325C37.8313 16.1065 38.0982 15.5874 38.4452 14.9751C38.7922 14.3628 39.2326 13.7771 39.7664 13.218C40.3002 12.6323 40.9408 12.1798 41.6882 11.8603C41.8483 11.807 42.0084 11.7538 42.1686 11.7006C42.3554 11.6207 42.5289 11.5807 42.6891 11.5807C42.9827 11.5807 43.2896 11.7006 43.6099 11.9402C43.9569 12.1531 44.1304 12.4194 44.1304 12.7388C44.1304 12.9252 44.0904 13.0982 44.0103 13.258C43.9302 13.3911 43.8501 13.5375 43.7701 13.6972L43.5699 13.817C43.4898 13.9501 43.343 14.1365 43.1295 14.3761C42.9426 14.5891 42.8492 14.7488 42.8492 14.8553C42.8492 14.8553 42.8359 14.8553 42.8092 14.8553C42.8092 14.8553 42.8092 14.8686 42.8092 14.8952L42.649 14.9352C42.4889 15.0416 42.3554 15.1748 42.2487 15.3345C42.1419 15.4942 42.0218 15.614 41.8883 15.6939C41.3812 16.04 40.8741 16.3728 40.3669 16.6922C39.8865 17.0117 39.366 17.3045 38.8055 17.5708C38.6987 17.624 38.5786 17.6639 38.4452 17.6906C38.3117 17.7172 38.205 17.7837 38.1249 17.8902C38.0181 18.05 37.9381 18.2363 37.8847 18.4493C37.858 18.6623 37.8446 18.8753 37.8446 19.0882C37.8446 19.4077 37.9247 19.7671 38.0849 20.1664C38.245 20.5392 38.5253 20.7255 38.9256 20.7255C38.979 20.7255 39.019 20.7255 39.0457 20.7255C39.0991 20.6989 39.1392 20.6856 39.1658 20.6856C39.326 20.6856 39.4728 20.6723 39.6062 20.6456C39.7664 20.619 39.9265 20.5924 40.0867 20.5658L40.3269 20.446H40.3669C40.5004 20.446 40.754 20.3528 41.1276 20.1664C41.528 19.9535 41.915 19.7405 42.2887 19.5275C42.6624 19.2879 42.8893 19.1282 42.9693 19.0483C43.0227 19.0217 43.0627 18.9817 43.0894 18.9285C43.1428 18.8753 43.1829 18.8353 43.2095 18.8087C43.6633 18.4626 44.1304 18.1298 44.6108 17.8104C45.0913 17.4909 45.545 17.1182 45.9721 16.6922V16.7322H46.0522C46.0255 16.8653 45.9187 16.9984 45.7319 17.1315C45.5717 17.2646 45.4516 17.3977 45.3715 17.5308C45.0779 18.0633 44.6108 18.5691 43.9702 19.0483C43.3297 19.5275 42.7425 19.9402 42.2086 20.2862C42.0218 20.4194 41.835 20.5658 41.6481 20.7255C41.488 20.8586 41.3011 20.9651 41.0876 21.045C40.6872 21.1781 40.3136 21.2446 39.9666 21.2446ZM38.4051 16.852C38.6187 16.852 38.8189 16.7721 39.0057 16.6124C39.2192 16.426 39.3794 16.3195 39.4861 16.2929L39.5262 16.3328V16.2929C40.0333 16.0533 40.5137 15.7205 40.9675 15.2946C41.4479 14.8686 41.8883 14.456 42.2887 14.0566H42.3688C42.3688 13.8969 42.4889 13.7238 42.7291 13.5375C42.9693 13.3245 43.0894 13.1515 43.0894 13.0184C43.1428 12.9651 43.1962 12.8852 43.2496 12.7788C43.303 12.6456 43.3297 12.5525 43.3297 12.4992C43.2496 12.446 43.1295 12.4194 42.9693 12.4194C42.8359 12.4726 42.6624 12.5658 42.4489 12.6989C42.2353 12.832 42.0485 12.8986 41.8883 12.8986C41.8883 12.9252 41.7549 13.0317 41.488 13.218C41.2478 13.4044 40.9942 13.604 40.7273 13.817C40.4604 14.03 40.2869 14.1764 40.2068 14.2563C40.0733 14.3894 39.8598 14.629 39.5662 14.9751C39.2726 15.3212 39.0057 15.6673 38.7655 16.0134C38.5253 16.3595 38.4051 16.6257 38.4051 16.812V16.852Z" fill="#FFE8CC"/>
<path d="M28.2524 21.8037C28.0922 21.8037 27.9321 21.7505 27.772 21.644C27.6118 21.5641 27.505 21.431 27.4517 21.2446C27.4517 21.218 27.4517 21.1515 27.4517 21.045C27.4784 20.9651 27.505 20.9252 27.5317 20.9252L29.4535 16.4127C29.6403 15.9601 29.8405 15.4277 30.054 14.8154C30.2676 14.1764 30.4277 13.5508 30.5345 12.9385C30.6679 12.2995 30.708 11.7538 30.6546 11.3012C30.4944 11.3012 30.321 11.3278 30.1341 11.3811C29.9473 11.4343 29.7738 11.4609 29.6136 11.4609C29.5603 11.4609 29.5336 11.421 29.5336 11.3411C29.5336 11.2613 29.5603 11.1814 29.6136 11.1015C29.6937 10.9951 29.8272 10.9551 30.014 10.9817C30.0674 11.0084 30.1875 11.0217 30.3743 11.0217C30.6946 11.0217 31.055 11.035 31.4553 11.0616C31.8557 11.0616 32.0692 11.2347 32.0959 11.5807C32.0959 11.7139 32.0025 12.02 31.8157 12.4992C31.6555 12.9784 31.442 13.5242 31.1751 14.1365C30.9348 14.7488 30.708 15.3345 30.4944 15.8936C30.2809 16.426 30.1341 16.8253 30.054 17.0916C29.9206 17.3578 29.8539 17.5441 29.8539 17.6506H29.974C30.1875 17.3045 30.4277 16.9984 30.6946 16.7322C30.9882 16.4393 31.2418 16.1198 31.4553 15.7738C31.6155 15.6673 31.8557 15.4144 32.176 15.015C32.4963 14.5891 32.8299 14.1631 33.1769 13.7371C33.5506 13.2846 33.8976 12.9651 34.2179 12.7787C34.2712 12.7521 34.3914 12.6856 34.5782 12.5791C34.765 12.446 34.8718 12.3661 34.8985 12.3395C34.9786 12.3395 35.0586 12.3395 35.1387 12.3395C35.2455 12.3129 35.3389 12.2995 35.419 12.2995C35.499 12.2995 35.5658 12.3129 35.6191 12.3395C35.6992 12.3395 35.7793 12.3395 35.8594 12.3395C35.9394 12.3395 36.1129 12.406 36.3798 12.5391C36.6468 12.6456 36.9003 12.7787 37.1405 12.9385C37.3808 13.0716 37.5009 13.1781 37.5009 13.2579C37.5009 13.4975 37.4074 13.6839 37.2206 13.817C37.0338 13.9235 36.8736 14.0433 36.7402 14.1764C36.5533 14.416 36.3398 14.6822 36.0996 14.9751C35.8861 15.2413 35.7526 15.5342 35.6992 15.8536L35.6592 16.0533L35.6191 16.0932C35.6191 16.0932 35.6058 16.0799 35.5791 16.0533C35.5791 16.0267 35.5658 16.0134 35.5391 16.0134L35.499 16.0533C35.499 15.5208 35.6325 15.015 35.8994 14.5358C36.1663 14.03 36.2998 13.5242 36.2998 13.0183C36.2998 12.8852 36.2464 12.8187 36.1396 12.8187C35.9528 12.8187 35.6992 12.9385 35.3789 13.1781C35.0586 13.3911 34.765 13.6173 34.4981 13.857C34.2312 14.0699 34.0711 14.1764 34.0177 14.1764C33.9643 14.2829 33.8041 14.456 33.5372 14.6956C33.297 14.9352 33.1235 15.0949 33.0168 15.1748C32.8299 15.3345 32.6564 15.5208 32.4963 15.7338C32.3628 15.9468 32.216 16.1598 32.0559 16.3728C32.0292 16.3994 31.9758 16.4393 31.8957 16.4926C31.8157 16.5458 31.7489 16.599 31.6955 16.6523C31.5888 16.8386 31.4553 17.0117 31.2952 17.1714C31.2418 17.2779 31.1884 17.3844 31.135 17.4909C31.1083 17.5974 31.0416 17.7039 30.9349 17.8104L30.7347 17.8503C30.6279 18.0633 30.4944 18.2629 30.3343 18.4493C30.1742 18.609 30.0274 18.7821 29.8939 18.9684C29.7871 19.1548 29.6937 19.3545 29.6136 19.5674C29.5603 19.7804 29.4668 19.9668 29.3334 20.1265C29.1732 20.3395 28.9997 20.5924 28.8129 20.8852C28.6528 21.1515 28.5727 21.431 28.5727 21.7238H28.5326C28.4259 21.7771 28.3325 21.8037 28.2524 21.8037Z" fill="#FFE8CC"/>
<path d="M23.242 24C23.1085 24 22.895 23.9201 22.6014 23.7604C22.3078 23.6007 22.1076 23.4676 22.0008 23.3611C21.814 23.1481 21.6805 22.8952 21.6005 22.6023C21.5471 22.3095 21.5204 22.03 21.5204 21.7637C21.5204 20.8852 21.7206 19.8869 22.1209 18.7687C22.5213 17.6506 22.935 16.7055 23.3621 15.9334C23.4155 15.827 23.5222 15.6273 23.6824 15.3344C23.8692 15.0416 24.0427 14.7488 24.2029 14.4559C24.363 14.1631 24.4431 14.0033 24.4431 13.9767L23.7224 14.2163L23.4822 14.1764V14.2163C23.2153 14.4027 22.8683 14.5358 22.4412 14.6156C22.0142 14.6955 21.6539 14.802 21.3603 14.9351L20.1592 15.5341H20.0791C19.9723 15.5341 19.8789 15.4809 19.7988 15.3744C19.7454 15.2413 19.7188 15.1348 19.7188 15.0549C19.7188 14.975 19.8656 14.8819 20.1592 14.7754C20.4528 14.6423 20.7997 14.5092 21.2001 14.376C21.6272 14.2429 22.0142 14.1231 22.3612 14.0166C22.7348 13.9102 22.9751 13.8436 23.0818 13.817C23.4288 13.7371 23.7491 13.6439 24.0427 13.5374H24.0827V13.4975C24.2696 13.4975 24.4698 13.4443 24.6833 13.3378C25.1904 12.5924 25.6842 11.8602 26.1647 11.1414C26.6718 10.396 27.2456 9.71714 27.8862 9.10483L28.767 8.26623C28.9806 8.07987 29.1407 7.92014 29.2475 7.78703C29.3542 7.65392 29.5411 7.52081 29.808 7.3877C29.9948 7.41432 30.2484 7.5075 30.5687 7.66723C30.9157 7.82696 31.0892 8.01332 31.0892 8.2263C31.0892 8.30616 30.9557 8.43927 30.6888 8.62563C30.4486 8.81199 30.195 8.99834 29.9281 9.1847C29.6612 9.34443 29.4744 9.46423 29.3676 9.5441L29.0873 9.62397C28.767 9.89019 28.4734 10.1697 28.2065 10.4626C27.9396 10.7554 27.6594 11.0483 27.3658 11.3411C27.2056 11.4742 27.0722 11.6473 26.9654 11.8602C26.8586 12.0732 26.7252 12.2596 26.565 12.4193V12.579C26.5116 12.6057 26.4182 12.6855 26.2848 12.8186C26.178 12.9251 26.1246 13.005 26.1246 13.0582C26.5784 13.0849 27.0588 13.1248 27.5659 13.178C28.0731 13.2313 28.5001 13.4443 28.8471 13.817C28.5535 13.7371 28.2733 13.6706 28.0063 13.6173C27.7661 13.5374 27.4992 13.4975 27.2056 13.4975C26.6718 13.4975 26.178 13.5774 25.7243 13.7371C25.7243 13.7371 25.6442 13.8569 25.484 14.0965C25.3239 14.3361 25.1504 14.5757 24.9636 14.8153C24.8034 15.0283 24.7233 15.1481 24.7233 15.1747C24.6433 15.2812 24.4831 15.5474 24.2429 15.9734C24.0027 16.3727 23.7758 16.7721 23.5623 17.1714C23.3754 17.5441 23.2687 17.7438 23.242 17.7704C23.242 17.9035 23.2019 18.0765 23.1219 18.2895C23.0418 18.5025 22.9751 18.6755 22.9217 18.8087L22.8816 18.8486V18.8885C22.8816 19.0483 22.8416 19.2213 22.7615 19.4077C22.6815 19.594 22.6147 19.7538 22.5614 19.8869C22.3211 20.6057 22.201 21.3511 22.201 22.1231C22.201 22.3361 22.2277 22.6023 22.2811 22.9218C22.3612 23.2413 22.5213 23.4676 22.7615 23.6007C22.8149 23.6273 22.935 23.6539 23.1219 23.6805C23.3354 23.7072 23.4422 23.7604 23.4422 23.8403C23.4422 23.9468 23.3754 24 23.242 24ZM28.8871 13.817C28.8605 13.817 28.8471 13.817 28.8471 13.817C28.8471 13.817 28.8605 13.817 28.8871 13.817Z" fill="#FFE8CC"/>
<path d="M10.7514 20.4859C10.5913 20.4859 10.4044 20.406 10.1909 20.2463C10.0041 20.0865 9.91064 19.9268 9.91064 19.7671C9.91064 19.2613 10.0441 18.6489 10.311 17.9301C10.5779 17.2113 10.8982 16.4659 11.2719 15.6939C11.6723 14.9218 12.0593 14.1897 12.433 13.4975C12.8333 12.8054 13.167 12.233 13.4339 11.7804C13.5673 11.5408 13.6741 11.2879 13.7542 11.0217C13.8609 10.7554 14.0077 10.5158 14.1946 10.3029C14.4081 10.3295 14.6483 10.396 14.9152 10.5025C15.2088 10.609 15.3556 10.8087 15.3556 11.1015C15.3556 11.3145 15.2222 11.5541 14.9553 11.8203C14.715 12.0599 14.5282 12.2596 14.3948 12.4193C13.8075 13.0849 13.2737 13.8037 12.7933 14.5757C12.3395 15.3478 11.9258 16.1331 11.5521 16.9318C11.4721 17.0915 11.4053 17.2513 11.352 17.411C11.2986 17.5441 11.2452 17.6772 11.1918 17.8103C11.1384 17.9435 11.0717 18.0766 10.9916 18.2097C10.9116 18.3162 10.8715 18.436 10.8715 18.5691C10.8715 18.6223 10.8849 18.6889 10.9116 18.7687C10.9383 18.8486 10.9916 18.8885 11.0717 18.8885C11.2852 18.6756 11.6189 18.3162 12.0726 17.8103C12.5264 17.2779 13.0202 16.7321 13.554 16.1731C14.0878 15.5874 14.5682 15.0816 14.9953 14.6556C15.4491 14.2296 15.756 13.9767 15.9161 13.8969C15.9695 13.8702 16.0229 13.8569 16.0763 13.8569C16.1297 13.8303 16.1831 13.817 16.2364 13.817C16.6635 13.817 16.9971 14.0167 17.2374 14.416C17.4776 14.7887 17.5977 15.1614 17.5977 15.5341C17.5977 15.9601 17.5577 16.3727 17.4776 16.7721C17.3975 17.1714 17.3575 17.5707 17.3575 17.9701C17.3575 18.2895 17.4242 18.7022 17.5577 19.208C17.6911 19.7138 17.9714 19.9667 18.3984 19.9667C18.5052 19.9135 18.6253 19.8603 18.7588 19.807C18.8922 19.7538 19.0123 19.7271 19.1191 19.7271C19.1992 19.7271 19.2392 19.7804 19.2392 19.8869C19.2392 20.02 19.1591 20.1265 18.999 20.2064C18.8655 20.2862 18.7454 20.3262 18.6386 20.3262C18.2383 20.3262 17.8246 20.1531 17.3975 19.807C16.9704 19.4343 16.7035 19.0616 16.5968 18.6889C16.49 18.2895 16.4099 17.8902 16.3566 17.4909C16.3299 17.0649 16.3165 16.6523 16.3165 16.2529C16.3165 16.0666 16.3299 15.8004 16.3566 15.4543C16.4099 15.0816 16.4366 14.842 16.4366 14.7355C16.2765 14.7355 16.0629 14.8553 15.796 15.0949C15.5291 15.3078 15.2756 15.5474 15.0353 15.8137C14.7951 16.0533 14.6216 16.2396 14.5149 16.3727C14.4615 16.426 14.3814 16.4792 14.2746 16.5325C14.1946 16.5857 14.1145 16.6523 14.0344 16.7321C13.9277 16.8653 13.8075 17.025 13.6741 17.2113C13.5406 17.3711 13.4072 17.5175 13.2737 17.6506C13.2203 17.7039 13.1002 17.797 12.9134 17.9301C12.7532 18.0633 12.6465 18.1697 12.5931 18.2496C12.4596 18.5158 12.2862 18.7687 12.0726 19.0083C11.8591 19.2479 11.6589 19.5009 11.4721 19.7671C11.4187 19.8469 11.3653 19.9534 11.3119 20.0865C11.2585 20.193 11.1918 20.2729 11.1117 20.3262C11.0317 20.4326 10.9116 20.4859 10.7514 20.4859Z" fill="#FFE8CC"/>
<path d="M3.68338 21.2446C3.0161 21.2446 2.34882 21.0317 1.68154 20.6057C1.01426 20.1798 0.680624 19.5941 0.680624 18.8486C0.680624 18.7155 0.680624 18.5824 0.680624 18.4493C0.707315 18.3162 0.72066 18.1964 0.72066 18.0899C0.72066 17.9302 0.60055 17.7971 0.36033 17.6906C0.12011 17.5575 0 17.411 0 17.2513C0.0266911 17.2247 0.0667278 17.2114 0.12011 17.2114C0.226875 17.2114 0.333639 17.238 0.440404 17.2912C0.547168 17.3179 0.653933 17.3312 0.760697 17.3312C0.84077 17.3312 0.934189 17.3045 1.04095 17.2513C1.09434 17.1981 1.2011 16.9585 1.36125 16.5325C1.54809 16.1065 1.815 15.5874 2.16198 14.9751C2.50897 14.3628 2.94937 13.7771 3.48319 13.218C4.01701 12.6323 4.6576 12.1798 5.40495 11.8603C5.5651 11.807 5.72525 11.7538 5.88539 11.7006C6.07223 11.6207 6.24572 11.5807 6.40587 11.5807C6.69947 11.5807 7.00642 11.7006 7.32671 11.9402C7.6737 12.1531 7.84719 12.4194 7.84719 12.7388C7.84719 12.9252 7.80715 13.0982 7.72708 13.258C7.64701 13.3911 7.56693 13.5375 7.48686 13.6972L7.28668 13.817C7.2066 13.9501 7.0598 14.1365 6.84627 14.3761C6.65944 14.5891 6.56602 14.7488 6.56602 14.8553C6.56602 14.8553 6.55267 14.8553 6.52598 14.8553C6.52598 14.8553 6.52598 14.8686 6.52598 14.8952L6.36583 14.9352C6.20569 15.0416 6.07223 15.1748 5.96547 15.3345C5.8587 15.4942 5.73859 15.614 5.60514 15.6939C5.098 16.04 4.59087 16.3728 4.08374 16.6922C3.6033 17.0117 3.08282 17.3045 2.52231 17.5708C2.41555 17.624 2.29544 17.6639 2.16198 17.6906C2.02853 17.7172 1.92176 17.7837 1.84169 17.8902C1.73492 18.05 1.65485 18.2363 1.60147 18.4493C1.57478 18.6623 1.56143 18.8753 1.56143 19.0882C1.56143 19.4077 1.6415 19.7671 1.80165 20.1664C1.9618 20.5392 2.24205 20.7255 2.64242 20.7255C2.6958 20.7255 2.73584 20.7255 2.76253 20.7255C2.81591 20.6989 2.85595 20.6856 2.88264 20.6856C3.04279 20.6856 3.18959 20.6723 3.32304 20.6456C3.48319 20.619 3.64334 20.5924 3.80349 20.5658L4.0437 20.446H4.08374C4.2172 20.446 4.47076 20.3528 4.84444 20.1664C5.24481 19.9535 5.63183 19.7405 6.0055 19.5275C6.37918 19.2879 6.60605 19.1282 6.68613 19.0483C6.73951 19.0217 6.77955 18.9817 6.80624 18.9285C6.85962 18.8753 6.89966 18.8353 6.92635 18.8087C7.3801 18.4626 7.84719 18.1298 8.32763 17.8104C8.80807 17.4909 9.26182 17.1182 9.68888 16.6922V16.7322H9.76895C9.74226 16.8653 9.6355 16.9984 9.44866 17.1315C9.28851 17.2646 9.1684 17.3977 9.08833 17.5308C8.79473 18.0633 8.32763 18.5691 7.68704 19.0483C7.04646 19.5275 6.45925 19.9402 5.92543 20.2862C5.73859 20.4194 5.55175 20.5658 5.36492 20.7255C5.20477 20.8586 5.01793 20.9651 4.8044 21.045C4.40404 21.1781 4.03036 21.2446 3.68338 21.2446ZM2.12194 16.852C2.33547 16.852 2.53566 16.7721 2.72249 16.6124C2.93602 16.426 3.09617 16.3195 3.20293 16.2929L3.24297 16.3328V16.2929C3.7501 16.0533 4.23054 15.7205 4.68429 15.2946C5.16473 14.8686 5.60514 14.456 6.0055 14.0566H6.08558C6.08558 13.8969 6.20569 13.7238 6.44591 13.5375C6.68613 13.3245 6.80624 13.1515 6.80624 13.0184C6.85962 12.9651 6.913 12.8852 6.96638 12.7788C7.01977 12.6456 7.04646 12.5525 7.04646 12.4992C6.96638 12.446 6.84627 12.4194 6.68613 12.4194C6.55267 12.4726 6.37918 12.5658 6.16565 12.6989C5.95212 12.832 5.76528 12.8986 5.60514 12.8986C5.60514 12.9252 5.47168 13.0317 5.20477 13.218C4.96455 13.4044 4.71098 13.604 4.44407 13.817C4.17716 14.03 4.00367 14.1764 3.9236 14.2563C3.79014 14.3894 3.57661 14.629 3.28301 14.9751C2.98941 15.3212 2.72249 15.6673 2.48227 16.0134C2.24205 16.3595 2.12194 16.6257 2.12194 16.812V16.852Z" fill="#FFE8CC"/>
</svg>
