<svg width="103" height="36" viewBox="0 0 103 36" fill="none" xmlns="http://www.w3.org/2000/svg">
<path d="M92.3505 29.2412C92.2438 29.188 92.137 29.0549 92.0302 28.8419C91.8968 28.6556 91.7767 28.4559 91.6699 28.2429C91.5631 28.0566 91.4564 27.9767 91.3496 28.0033C91.3496 27.8968 91.3363 27.8036 91.3096 27.7238C91.2562 27.6439 91.2295 27.564 91.2295 27.4842C91.79 26.7121 92.4706 26.0199 93.2714 25.4076C94.0988 24.7953 94.9262 24.2762 95.7536 23.8502H95.8737C96.0606 23.6639 96.2741 23.5041 96.5143 23.371C96.7812 23.2379 96.9814 23.0782 97.1149 22.8918V22.8519C96.7679 22.6389 96.3942 22.4526 95.9939 22.2928C95.5935 22.1331 95.2465 21.9068 94.9529 21.614C94.686 21.401 94.4324 21.1348 94.1922 20.8153C93.9787 20.4958 93.8719 20.1497 93.8719 19.777C93.8719 19.1913 94.1522 18.6589 94.7127 18.1797C95.2732 17.6739 95.7803 17.2878 96.2341 17.0216C96.3675 16.8619 96.6211 16.6755 96.9948 16.4625C97.3951 16.2496 97.7955 16.0499 98.1959 15.8635C98.6229 15.6506 98.9299 15.5041 99.1167 15.4243V15.4642C99.3036 15.3311 99.5171 15.2379 99.7573 15.1847L100.238 14.985H100.318C100.531 14.9318 100.758 14.8785 100.998 14.8253C101.239 14.7454 101.466 14.7055 101.679 14.7055C101.919 14.7055 102.2 14.8386 102.52 15.1048C102.84 15.371 103 15.6373 103 15.9035C103 16.01 102.92 16.2096 102.76 16.5025C102.627 16.7687 102.466 17.0216 102.28 17.2612C102.119 17.5008 101.986 17.6472 101.879 17.7005C101.853 17.7005 101.826 17.7138 101.799 17.7404C101.799 17.7404 101.786 17.7404 101.759 17.7404V17.6605C101.893 17.5008 102.013 17.2612 102.119 16.9417C102.253 16.5957 102.32 16.3161 102.32 16.1031C102.32 15.7038 102.106 15.5041 101.679 15.5041C101.359 15.5041 101.052 15.5574 100.758 15.6639C100.491 15.7437 100.211 15.8502 99.9175 15.9833C98.9299 16.3294 98.0624 16.7421 97.3151 17.2213C96.5944 17.6739 95.9271 18.3527 95.3132 19.2579C95.2065 19.4442 95.0864 19.6439 94.9529 19.8569C94.8461 20.0432 94.7928 20.2429 94.7928 20.4559C94.7928 20.7221 94.8862 20.9484 95.073 21.1348C95.2865 21.2945 95.5001 21.4276 95.7136 21.5341C95.7937 21.5873 95.9939 21.7071 96.3142 21.8935C96.6344 22.0798 96.9414 22.2662 97.235 22.4526C97.5553 22.6123 97.7288 22.6922 97.7555 22.6922C97.8889 22.6922 98.0224 22.6389 98.1558 22.5324C98.2893 22.4259 98.4094 22.3461 98.5162 22.2928C98.8898 22.0798 99.4103 21.8136 100.078 21.4942C100.745 21.1481 101.279 20.9351 101.679 20.8552L102.24 20.7354C102.266 20.7354 102.306 20.762 102.36 20.8153C102.333 20.8419 102.293 20.8818 102.24 20.9351C102.186 20.9617 102.133 20.9883 102.079 21.015C101.919 21.1747 101.652 21.3211 101.279 21.4542C100.932 21.5607 100.691 21.6672 100.558 21.7737C100.478 21.8269 100.411 21.9068 100.358 22.0133C100.304 22.0932 100.238 22.1597 100.158 22.213C99.9175 22.3727 99.6105 22.5857 99.2368 22.8519C98.8632 23.0915 98.6763 23.371 98.6763 23.6905C98.6763 23.797 98.6897 23.9035 98.7164 24.01C98.7697 24.1165 98.7964 24.2363 98.7964 24.3694C98.7964 24.5823 98.7297 24.8885 98.5962 25.2878C98.4628 25.6605 98.3026 25.9135 98.1158 26.0466V26.2063C97.8756 26.2862 97.6887 26.4592 97.5553 26.7254C97.4485 26.965 97.235 27.0715 96.9147 27.0449L96.7145 27.2845C96.5277 27.2845 96.3675 27.3511 96.2341 27.4842C96.1006 27.6439 95.9672 27.7903 95.8337 27.9234H95.7937C95.6068 27.9234 95.4067 28.0033 95.1931 28.163C95.0063 28.3494 94.7661 28.5091 94.4725 28.6422C94.2056 28.802 93.8586 28.8419 93.4315 28.762C93.3247 28.7887 93.2313 28.8286 93.1513 28.8818C93.0712 28.9351 92.9778 28.9617 92.871 28.9617C92.7909 28.9617 92.7509 28.9351 92.7509 28.8818C92.7509 28.8552 92.7909 28.802 92.871 28.7221C92.9778 28.6689 93.258 28.5358 93.7118 28.3228C94.1655 28.1098 94.4858 27.9501 94.6726 27.8436C94.6726 27.817 94.726 27.7637 94.8328 27.6838C94.9662 27.604 95.0463 27.5507 95.073 27.5241C95.42 27.2845 95.807 26.9784 96.2341 26.6056C96.6611 26.2063 97.0348 25.7803 97.3551 25.3278C97.6754 24.8486 97.8355 24.396 97.8355 23.97C97.8355 23.8902 97.8222 23.7837 97.7955 23.6506C97.7688 23.4908 97.7021 23.411 97.5953 23.411C97.4886 23.411 97.3818 23.4642 97.275 23.5707C97.195 23.6772 97.1282 23.7571 97.0748 23.8103C96.888 23.9434 96.6878 24.0765 96.4743 24.2096C96.2608 24.3427 96.0472 24.4892 95.8337 24.6489C95.5668 24.8353 95.3266 25.0482 95.113 25.2878C94.8995 25.5008 94.6593 25.7138 94.3924 25.9268C94.0454 26.193 93.7251 26.4725 93.4315 26.7654C93.1379 27.0316 92.8443 27.3244 92.5507 27.6439C92.3372 27.8569 92.2304 28.1231 92.2304 28.4426C92.2304 28.5491 92.2571 28.6556 92.3105 28.762C92.3639 28.8952 92.3906 29.0283 92.3906 29.1614L92.3505 29.2412Z" fill="#4C2A00"/>
<path d="M82.4003 27.005C82.0266 27.005 81.6129 26.8053 81.1591 26.406C80.7054 25.98 80.4785 25.5674 80.4785 25.1681H80.4385C80.4652 25.0616 80.4919 24.8087 80.5186 24.4093C80.5452 24.01 80.612 23.797 80.7187 23.7704V23.6905C80.7454 23.6639 80.8122 23.5574 80.9189 23.3711C81.0257 23.1847 81.1325 22.985 81.2392 22.7721C81.3727 22.5591 81.4527 22.426 81.4794 22.3727C81.5595 22.2396 81.773 21.9867 82.12 21.614C82.467 21.2146 82.8273 20.8419 83.201 20.4958C83.5747 20.1498 83.8149 19.9767 83.9217 19.9767C84.0818 19.7371 84.3754 19.4709 84.8025 19.178C85.2562 18.8852 85.71 18.6057 86.1637 18.3394C86.6442 18.0732 86.9778 17.8869 87.1646 17.7804V17.7404L87.2047 17.7804H87.2447C87.3515 17.6739 87.5517 17.5674 87.8453 17.4609C88.1656 17.3278 88.3791 17.2479 88.4858 17.2213C88.6727 17.1414 88.8595 17.0882 89.0464 17.0616C89.2332 17.0349 89.42 17.0083 89.6069 16.9817C89.7403 17.0083 89.8738 17.0216 90.0072 17.0216C90.1674 17.0216 90.3142 17.0349 90.4476 17.0616C90.7146 17.1148 91.0082 17.2612 91.3285 17.5008C91.6487 17.7138 91.8089 17.98 91.8089 18.2995C91.7822 18.3261 91.7555 18.3661 91.7288 18.4193C91.7021 18.4726 91.7021 18.5125 91.7288 18.5391L91.5687 18.4592C91.4085 18.1664 91.1683 17.9934 90.848 17.9401C90.5277 17.8602 90.2208 17.8203 89.9272 17.8203C89.2065 17.8203 88.4458 18.0067 87.6451 18.3794C86.8443 18.7255 86.057 19.1914 85.2829 19.777C84.5089 20.3627 83.8149 20.9884 83.201 21.6539C82.6138 22.3195 82.1734 22.9584 81.8798 23.5707L81.7597 24.0499C81.7063 24.3161 81.6262 24.5691 81.5195 24.8087C81.4127 25.0483 81.3593 25.3145 81.3593 25.6073C81.3593 25.8203 81.386 25.98 81.4394 26.0865C81.4928 26.1664 81.5862 26.2995 81.7197 26.4859L81.7997 26.4459V26.4859L81.8798 26.406L82.0399 26.4459C82.2268 26.3394 82.427 26.2596 82.6405 26.2063C82.854 26.1265 83.0275 26.02 83.161 25.8869L83.241 25.807C83.4012 25.7538 83.548 25.6606 83.6814 25.5275C83.8149 25.3943 83.935 25.2745 84.0418 25.1681C84.4421 24.7953 84.8425 24.4226 85.2429 24.0499C85.6432 23.6772 86.0169 23.2912 86.3639 22.8919C86.5507 22.6789 86.791 22.4127 87.0846 22.0932C87.3782 21.7737 87.6317 21.5474 87.8453 21.4143L87.8853 21.2546C88.0988 21.1747 88.299 20.9884 88.4858 20.6955C88.6994 20.4027 88.8996 20.1231 89.0864 19.8569C89.2999 19.5641 89.5001 19.4176 89.687 19.4176L89.8471 19.3777C90.0606 19.3777 90.2341 19.4709 90.3676 19.6572C90.501 19.817 90.5678 19.99 90.5678 20.1764C90.5678 20.3894 90.501 20.629 90.3676 20.8952C90.2341 21.1614 90.1407 21.401 90.0873 21.614C89.9539 22.1731 89.8604 22.6789 89.8071 23.1315C89.7537 23.5574 89.727 24.0499 89.727 24.609C89.727 24.9551 89.7804 25.2479 89.8871 25.4875C90.0206 25.7271 90.2074 25.98 90.4476 26.2463H90.6478C91.0215 26.0333 91.2884 25.807 91.4486 25.5674C91.6087 25.3278 91.8089 25.0749 92.0491 24.8087C92.0758 24.8087 92.1025 24.7953 92.1292 24.7687C92.1559 24.7421 92.1692 24.7288 92.1692 24.7288C92.2226 24.7288 92.2493 24.7554 92.2493 24.8087C92.2493 24.9151 92.2226 25.0216 92.1692 25.1281C92.1425 25.208 92.1158 25.3145 92.0891 25.4476C92.0358 25.7404 91.9557 26.02 91.8489 26.2862C91.7689 26.5258 91.5153 26.6456 91.0882 26.6456C90.848 26.6456 90.5811 26.5924 90.2875 26.4859C89.9939 26.3794 89.7537 26.233 89.5668 26.0466C89.1665 25.594 88.9129 25.1015 88.8061 24.5691C88.7261 24.01 88.686 23.4376 88.686 22.8519V21.574H88.606C88.4992 21.7338 88.3791 21.8935 88.2456 22.0533C88.1122 22.213 87.9787 22.3727 87.8453 22.5325C87.7385 22.6389 87.605 22.7587 87.4449 22.8919C87.3114 22.9983 87.1913 23.1315 87.0846 23.2912C87.0312 23.2912 86.9244 23.3844 86.7643 23.5707C86.6308 23.7305 86.5641 23.8503 86.5641 23.9301C86.3773 23.9567 86.1637 24.1165 85.9235 24.4093C85.71 24.7022 85.5632 24.8486 85.4831 24.8486C85.4564 24.9285 85.363 25.0616 85.2028 25.2479C85.0427 25.4077 84.9226 25.5275 84.8425 25.6073C84.6557 25.6339 84.4955 25.7271 84.3621 25.8869C84.2553 26.0466 84.1485 26.193 84.0418 26.3261C83.8016 26.4326 83.5346 26.579 83.241 26.7654C82.9474 26.9251 82.6672 27.005 82.4003 27.005Z" fill="#4C2A00"/>
<path d="M69.2382 28.1231C68.998 28.1231 68.7711 28.0699 68.5576 27.9634C68.3441 27.8569 68.2373 27.6705 68.2373 27.4043C68.2373 26.8985 68.3307 26.2729 68.5176 25.5274C68.7311 24.782 68.9713 24.0366 69.2382 23.2912C69.5051 22.5191 69.732 21.827 69.9188 21.2146C70.1324 20.5757 70.2391 20.1231 70.2391 19.8569V19.817H70.039C69.7187 19.817 69.385 19.7105 69.038 19.4975C68.7177 19.2579 68.5576 18.9651 68.5576 18.619C68.5576 18.2729 68.6911 17.9667 68.958 17.7005C69.2249 17.4343 69.4784 17.208 69.7187 17.0216C69.8254 16.9684 69.9188 16.9018 69.9989 16.822C70.1057 16.7155 70.2124 16.6622 70.3192 16.6622L70.5995 16.5424V16.5824C70.5995 16.609 70.4927 16.7421 70.2792 16.9817C70.0656 17.1947 69.9322 17.3278 69.8788 17.381C69.772 17.5408 69.6519 17.807 69.5185 18.1797C69.4117 18.5524 69.3583 18.8319 69.3583 19.0183C69.3583 19.178 69.4117 19.2712 69.5185 19.2978C69.6252 19.3245 69.732 19.3378 69.8388 19.3378C69.9455 19.3378 70.079 19.2845 70.2391 19.178C70.3993 19.0715 70.506 19.0449 70.5594 19.0982C70.5594 19.0715 70.6262 18.9251 70.7596 18.6589C70.9198 18.3927 71.0132 18.2463 71.0399 18.2196V18.0599C71.1466 17.8203 71.2534 17.5541 71.3602 17.2612C71.4669 16.9684 71.6137 16.7155 71.8006 16.5025V16.4626C71.934 16.1697 72.1209 15.7704 72.3611 15.2646C72.6013 14.7587 72.8682 14.213 73.1618 13.6273C73.4554 13.0416 73.749 12.5092 74.0426 12.0299C74.3362 11.5507 74.5764 11.218 74.7633 11.0316C74.7633 10.9784 74.87 10.8186 75.0836 10.5524C75.2971 10.2596 75.4306 10.0732 75.4839 9.99334C75.7509 9.59401 76.1512 9.12812 76.685 8.59567C77.2189 8.06323 77.7794 7.57071 78.3666 7.11814C78.9538 6.63893 79.4476 6.33278 79.8479 6.19967L80.4085 6C80.7821 6.10649 81.1158 6.26622 81.4094 6.4792C81.703 6.66556 81.8498 6.97171 81.8498 7.39767C81.8498 7.90349 81.6896 8.50249 81.3693 9.19467C81.049 9.88685 80.6754 10.5524 80.2483 11.1913C79.8213 11.8303 79.4609 12.3494 79.1673 12.7488C78.9805 13.015 78.767 13.2679 78.5267 13.5075C78.3132 13.7205 78.113 13.9734 77.9262 14.2662C77.7393 14.3727 77.5792 14.5191 77.4457 14.7055C77.3123 14.8652 77.1788 15.0116 77.0454 15.1448C76.8852 15.3045 76.605 15.5707 76.2046 15.9434C75.8042 16.3161 75.3505 16.7022 74.8434 17.1015C74.3629 17.5008 73.9092 17.8602 73.4821 18.1797C73.0817 18.4725 72.8015 18.6323 72.6413 18.6589L72.6013 18.6988C72.4145 18.8852 72.2143 19.0183 72.0008 19.0982C71.7872 19.1514 71.587 19.2446 71.4002 19.3777C71.2934 19.4842 71.1733 19.7105 71.0399 20.0566C70.9064 20.376 70.7863 20.7221 70.6795 21.0948C70.5728 21.4409 70.4794 21.7072 70.3993 21.8935C70.2925 22.1864 70.1991 22.5058 70.119 22.8519C70.0656 23.1714 69.9722 23.4642 69.8388 23.7304L69.5986 24.569C69.5719 24.6755 69.5185 24.9018 69.4384 25.2479C69.3583 25.5674 69.2916 25.8735 69.2382 26.1664C69.2115 26.4592 69.2115 26.6057 69.2382 26.6057C69.2916 26.579 69.5318 26.3128 69.9589 25.807C70.4126 25.3012 70.9731 24.6755 71.6404 23.9301C72.3077 23.1581 72.9883 22.3993 73.6823 21.6539C74.403 20.9085 75.0435 20.2695 75.6041 19.7371C76.1646 19.2047 76.5516 18.9251 76.7651 18.8985H76.9653C77.339 18.8985 77.6326 18.9517 77.8461 19.0582C78.0596 19.1381 78.1264 19.4309 78.0463 19.9368C77.7527 20.9218 77.3657 21.9068 76.8852 22.8918C76.4315 23.8502 76.2046 24.8486 76.2046 25.8869C76.2046 26.02 76.2179 26.2329 76.2446 26.5258C76.298 26.8186 76.3781 27.0715 76.4849 27.2845C76.6183 27.5241 76.7785 27.6439 76.9653 27.6439C77.3123 27.6439 77.6726 27.4576 78.0463 27.0849C78.4467 26.7121 78.8337 26.2995 79.2074 25.8469C79.581 25.3943 79.9013 25.0616 80.1682 24.8486V25.2879C80.1149 25.3677 80.0615 25.4609 80.0081 25.5674C79.9547 25.6739 79.9013 25.7804 79.8479 25.8869C79.6611 26.1531 79.3675 26.4992 78.9671 26.9251C78.5935 27.3511 78.2732 27.6705 78.0063 27.8835C77.9262 27.9368 77.8061 27.9767 77.6459 28.0033C77.4858 28.0299 77.3523 28.0433 77.2456 28.0433C77.1121 28.0433 76.992 28.0166 76.8852 27.9634C76.7785 27.9101 76.6584 27.8569 76.5249 27.8037C75.6174 27.3777 75.1637 26.6589 75.1637 25.6473C75.1637 25.1414 75.177 24.6755 75.2037 24.2496C75.2571 23.8236 75.3505 23.371 75.4839 22.8918C75.6174 22.4393 75.7242 21.9867 75.8042 21.5341C75.911 21.0815 76.0178 20.6289 76.1245 20.1764L74.8434 21.4143C74.7099 21.5208 74.5898 21.6672 74.483 21.8536C74.403 22.0133 74.2962 22.1597 74.1627 22.2928C74.0293 22.4792 73.8691 22.6389 73.6823 22.772C73.4955 22.9052 73.322 23.0649 73.1618 23.2512C72.9216 23.4908 72.6947 23.7704 72.4812 24.0898C72.2944 24.3827 72.0808 24.6489 71.8406 24.8885C71.6538 25.0749 71.4669 25.2612 71.2801 25.4476C71.1199 25.6339 70.9598 25.8336 70.7997 26.0466C70.6929 26.1797 70.5461 26.406 70.3592 26.7255C70.1724 27.0183 69.9722 27.3111 69.7587 27.604C69.5719 27.8968 69.3984 28.0699 69.2382 28.1231ZM71.5604 18.579H71.6805C73.5755 17.4077 75.3505 15.97 77.0053 14.2662C78.6602 12.5358 79.9147 10.6323 80.7688 8.55574C80.8222 8.36938 80.8355 8.23627 80.8088 8.15641C80.8088 8.07654 80.8088 7.94343 80.8088 7.75707C80.8088 7.6772 80.7287 7.65058 80.5686 7.6772C80.4351 7.6772 80.3284 7.66389 80.2483 7.63727C80.0615 7.74376 79.8213 7.86356 79.5277 7.99667C79.234 8.12978 79.0072 8.26289 78.847 8.39601C78.7936 8.42263 78.7536 8.46256 78.7269 8.51581C78.7269 8.56905 78.7136 8.6223 78.6869 8.67554L78.1664 9.15474C78.0863 9.23461 77.9929 9.31447 77.8861 9.39434C77.8061 9.44759 77.726 9.50083 77.6459 9.55407C77.5392 9.66056 77.4457 9.76705 77.3657 9.87354C77.3123 9.95341 77.2322 10.0466 77.1254 10.1531C77.0187 10.2596 76.9119 10.3527 76.8052 10.4326C76.7251 10.5125 76.6183 10.6057 76.4849 10.7121C76.4048 10.7654 76.2446 10.9384 76.0044 11.2313C75.7909 11.5241 75.5373 11.8702 75.2437 12.2695C74.9768 12.6423 74.7232 12.9884 74.483 13.3078C74.2695 13.6273 74.136 13.8403 74.0827 13.9468C74.056 13.9734 74.0159 14.0266 73.9625 14.1065C73.9359 14.1864 73.8958 14.2396 73.8424 14.2662C73.8424 14.3993 73.8024 14.4659 73.7223 14.4659L73.7624 14.6256H73.6423C73.6156 14.7321 73.5221 14.9185 73.362 15.1847C73.2019 15.4243 73.0684 15.5441 72.9616 15.5441C72.9616 15.5707 72.9616 15.584 72.9616 15.584C72.9883 15.584 73.0017 15.584 73.0017 15.584V15.624C73.0017 15.6506 72.9349 15.8103 72.8015 16.1032C72.668 16.396 72.5079 16.7288 72.321 17.1015C72.1342 17.4742 71.9607 17.807 71.8006 18.0998C71.6671 18.3661 71.587 18.5258 71.5604 18.579Z" fill="#4C2A00"/>
<path d="M59.3896 26.4859C59.2295 26.4859 59.0426 26.406 58.8291 26.2463C58.6422 26.0865 58.5488 25.9268 58.5488 25.7671C58.5488 25.2613 58.6823 24.6489 58.9492 23.9301C59.2161 23.2113 59.5364 22.4659 59.9101 21.6939C60.3104 20.9218 60.6975 20.1897 61.0711 19.4975C61.4715 18.8054 61.8051 18.233 62.0721 17.7804C62.2055 17.5408 62.3123 17.2879 62.3924 17.0217C62.4991 16.7554 62.6459 16.5158 62.8328 16.3029C63.0463 16.3295 63.2865 16.396 63.5534 16.5025C63.847 16.609 63.9938 16.8087 63.9938 17.1015C63.9938 17.3145 63.8604 17.5541 63.5935 17.8203C63.3532 18.0599 63.1664 18.2596 63.0329 18.4193C62.4457 19.0849 61.9119 19.8037 61.4315 20.5757C60.9777 21.3478 60.564 22.1331 60.1903 22.9318C60.1103 23.0915 60.0435 23.2513 59.9902 23.411C59.9368 23.5441 59.8834 23.6772 59.83 23.8103C59.7766 23.9435 59.7099 24.0766 59.6298 24.2097C59.5497 24.3162 59.5097 24.436 59.5097 24.5691C59.5097 24.6223 59.5231 24.6889 59.5497 24.7687C59.5764 24.8486 59.6298 24.8885 59.7099 24.8885C59.9234 24.6756 60.2571 24.3162 60.7108 23.8103C61.1646 23.2779 61.6583 22.7321 62.1922 22.1731C62.726 21.5874 63.2064 21.0816 63.6335 20.6556C64.0872 20.2296 64.3942 19.9767 64.5543 19.8969C64.6077 19.8702 64.6611 19.8569 64.7145 19.8569C64.7679 19.8303 64.8212 19.817 64.8746 19.817C65.3017 19.817 65.6353 20.0167 65.8755 20.416C66.1158 20.7887 66.2359 21.1614 66.2359 21.5341C66.2359 21.9601 66.1958 22.3727 66.1158 22.7721C66.0357 23.1714 65.9957 23.5707 65.9957 23.9701C65.9957 24.2895 66.0624 24.7022 66.1958 25.208C66.3293 25.7138 66.6096 25.9667 67.0366 25.9667C67.1434 25.9135 67.2635 25.8603 67.3969 25.807C67.5304 25.7538 67.6505 25.7271 67.7573 25.7271C67.8373 25.7271 67.8774 25.7804 67.8774 25.8869C67.8774 26.02 67.7973 26.1265 67.6372 26.2064C67.5037 26.2862 67.3836 26.3262 67.2768 26.3262C66.8765 26.3262 66.4628 26.1531 66.0357 25.807C65.6086 25.4343 65.3417 25.0616 65.235 24.6889C65.1282 24.2895 65.0481 23.8902 64.9947 23.4909C64.968 23.0649 64.9547 22.6523 64.9547 22.2529C64.9547 22.0666 64.968 21.8004 64.9947 21.4543C65.0481 21.0816 65.0748 20.842 65.0748 20.7355C64.9147 20.7355 64.7011 20.8553 64.4342 21.0949C64.1673 21.3078 63.9137 21.5474 63.6735 21.8137C63.4333 22.0533 63.2598 22.2396 63.1531 22.3727C63.0997 22.426 63.0196 22.4792 62.9128 22.5325C62.8328 22.5857 62.7527 22.6523 62.6726 22.7321C62.5658 22.8653 62.4457 23.025 62.3123 23.2113C62.1788 23.3711 62.0454 23.5175 61.9119 23.6506C61.8585 23.7039 61.7384 23.797 61.5516 23.9301C61.3914 24.0633 61.2847 24.1697 61.2313 24.2496C61.0978 24.5158 60.9243 24.7687 60.7108 25.0083C60.4973 25.2479 60.2971 25.5009 60.1103 25.7671C60.0569 25.8469 60.0035 25.9534 59.9501 26.0865C59.8967 26.193 59.83 26.2729 59.7499 26.3262C59.6699 26.4326 59.5497 26.4859 59.3896 26.4859Z" fill="#4C2A00"/>
<path d="M59.1374 17.1015C59.0306 17.1015 58.8972 17.035 58.737 16.9019C58.5769 16.7687 58.4968 16.6489 58.4968 16.5425C58.4968 16.4892 58.5902 16.3694 58.7771 16.1831C58.9639 15.9701 59.1641 15.7704 59.3776 15.5841C59.6178 15.3711 59.7646 15.238 59.818 15.1847C60.0315 15.238 60.1383 15.3578 60.1383 15.5441C60.1383 15.6506 60.0716 15.837 59.9381 16.1032C59.8314 16.3428 59.6979 16.5691 59.5378 16.7821C59.4043 16.995 59.2708 17.1015 59.1374 17.1015ZM54.8935 27.4443C54.8134 27.4443 54.7333 27.4177 54.6533 27.3644C54.5999 27.3112 54.5332 27.2712 54.4531 27.2446C54.2663 27.0849 54.1328 26.9518 54.0527 26.8453C53.9727 26.7388 53.9326 26.5524 53.9326 26.2862C53.9326 25.4343 54.1328 24.6223 54.5332 23.8503C54.9335 23.0516 55.3072 22.2929 55.6542 21.5741C55.7076 21.5208 55.7209 21.4676 55.6942 21.4143C55.6675 21.3345 55.6542 21.2679 55.6542 21.2147C55.6542 20.9751 55.7476 20.7088 55.9345 20.416C56.148 20.0965 56.3882 19.7904 56.6551 19.4975C56.922 19.2047 57.1355 18.9917 57.2957 18.8586C57.4558 18.8586 57.6961 18.8852 58.0164 18.9385C58.3366 18.9651 58.4968 19.0849 58.4968 19.2979C58.4968 19.3245 58.3633 19.4842 58.0964 19.7771C57.8295 20.0699 57.6694 20.2563 57.616 20.3361C57.269 20.8686 56.8553 21.5075 56.3749 22.2529C55.9211 22.9717 55.5207 23.7172 55.1738 24.4892C54.8268 25.2613 54.6533 25.9934 54.6533 26.6856C54.9736 26.6323 55.3072 26.446 55.6542 26.1265C56.0279 25.7804 56.3081 25.4875 56.495 25.2479H56.535V25.2879C56.535 25.3944 56.4816 25.5009 56.3749 25.6073C56.2681 25.7138 56.188 25.807 56.1346 25.8869C56.0279 26.0732 55.8544 26.3794 55.6142 26.8054C55.4006 27.2313 55.1604 27.4443 54.8935 27.4443Z" fill="#4C2A00"/>
<path d="M48.8363 27.6839C48.1423 27.6839 47.6219 27.5241 47.2749 27.2047C46.9279 26.8852 46.701 26.4726 46.5942 25.9667C46.4875 25.4609 46.4341 24.9418 46.4341 24.4093C46.4341 23.9834 46.3273 23.7571 46.1138 23.7305C45.9003 23.6772 45.8069 23.584 45.8336 23.4509L46.6743 22.812C46.6743 22.812 46.7144 22.6656 46.7944 22.3727C46.9012 22.0799 47.008 21.7737 47.1147 21.4543C47.2215 21.1348 47.2882 20.9484 47.3149 20.8952C47.2882 20.8153 47.3549 20.589 47.5151 20.2163C47.7019 19.8436 47.9021 19.431 48.1156 18.9784C48.3559 18.4992 48.5827 18.0865 48.7963 17.7405C49.0098 17.3677 49.1433 17.1681 49.1966 17.1414V17.1015H49.1566C49.2901 16.8885 49.3968 16.6756 49.4769 16.4626C49.5837 16.2496 49.7305 16.0632 49.9173 15.9035C49.9173 15.8503 50.0107 15.6905 50.1976 15.4243C50.4111 15.1315 50.5445 14.9451 50.5979 14.8652C51.2919 13.9335 52.0926 12.9218 53.0001 11.8303C53.9343 10.7122 54.9085 9.86025 55.9228 9.27456C56.0563 9.22132 56.1764 9.16807 56.2831 9.11483C56.3899 9.03496 56.4967 8.98172 56.6034 8.9551C56.6568 8.9551 56.6835 8.9551 56.6835 8.9551C56.7102 8.92847 56.7369 8.91516 56.7636 8.91516C57.0839 8.91516 57.4575 9.04827 57.8846 9.3145C58.3383 9.58072 58.5652 9.90019 58.5652 10.2729C58.5652 10.5391 58.3784 10.9651 58.0047 11.5508C57.6577 12.1098 57.2173 12.7488 56.6835 13.4676C56.1497 14.1598 55.5758 14.8652 54.9619 15.584C54.3747 16.2762 53.8409 16.8885 53.3604 17.421C52.88 17.9534 52.533 18.3261 52.3195 18.5391C52.2394 18.619 52.146 18.6989 52.0392 18.7787C51.9325 18.8586 51.8257 18.9518 51.7189 19.0583C51.5054 19.2712 51.2919 19.4975 51.0784 19.7371C50.8915 19.9767 50.678 20.203 50.4378 20.416C50.0908 20.7355 49.7438 21.0549 49.3968 21.3744C49.0765 21.6939 48.7429 22 48.3959 22.2929C48.2624 22.3994 48.1156 22.5192 47.9555 22.6523C47.822 22.7854 47.6886 22.9185 47.5551 23.0516C47.4217 23.2113 47.3283 23.5042 47.2749 23.9301C47.2215 24.3561 47.1948 24.6756 47.1948 24.8885C47.1948 25.1281 47.2215 25.4476 47.2749 25.8469C47.3549 26.2197 47.4884 26.5524 47.6752 26.8453C47.8621 27.1381 48.1156 27.2845 48.4359 27.2845C48.5961 27.2845 48.7295 27.2579 48.8363 27.2047C48.9698 27.1514 49.1032 27.0849 49.2367 27.005C50.0107 26.5791 50.7314 26.0998 51.3987 25.5674C52.0659 25.0083 52.6932 24.4226 53.2804 23.8103C53.4939 23.5974 53.6941 23.3844 53.8809 23.1714C54.0945 22.9318 54.308 22.7055 54.5215 22.4925C54.5749 22.4393 54.6817 22.3328 54.8418 22.1731C55.002 22.0133 55.1354 21.9468 55.2422 21.9734C55.2155 22.1598 55.1087 22.3328 54.9219 22.4925C54.7617 22.6256 54.6283 22.7721 54.5215 22.9318C54.3614 23.1714 54.2146 23.411 54.0811 23.6506C53.9477 23.8636 53.8142 24.1032 53.6807 24.3694C53.6274 24.4759 53.5473 24.5824 53.4405 24.6889C53.3338 24.7954 53.2403 24.9018 53.1603 25.0083C52.7599 25.4875 52.3195 25.9268 51.8391 26.3261C51.3853 26.7255 50.8515 27.0583 50.2376 27.3245C49.9974 27.431 49.7705 27.5108 49.557 27.5641C49.3434 27.6439 49.1032 27.6839 48.8363 27.6839ZM48.0356 21.6939C49.6103 20.2296 51.1451 18.7122 52.6398 17.1414C54.1345 15.5441 55.4557 13.827 56.6034 11.99C56.7369 11.7771 56.9104 11.4443 57.1239 10.9917C57.3641 10.5125 57.4842 10.1664 57.4842 9.95343C57.4842 9.7937 57.4442 9.70052 57.3641 9.6739C57.0438 9.78039 56.7636 9.92681 56.5233 10.1132C56.2831 10.2995 56.0296 10.4992 55.7626 10.7122C55.7093 10.7654 55.6158 10.832 55.4824 10.9118C55.3756 10.9651 55.2956 11.0183 55.2422 11.0716C55.0553 11.2845 54.8551 11.4975 54.6416 11.7105C54.4281 11.9235 54.2146 12.1365 54.001 12.3494C53.7074 12.6689 53.4272 13.0017 53.1603 13.3478C52.8934 13.6939 52.6264 14.04 52.3595 14.386C51.7456 15.1581 51.2252 15.8503 50.7981 16.4626C50.3977 17.0749 49.9306 17.807 49.3968 18.6589C49.2901 18.8187 49.1166 19.1115 48.8763 19.5375C48.6361 19.9368 48.4092 20.3494 48.1957 20.7754C48.0089 21.1747 47.9021 21.4676 47.8754 21.6539L48.0356 21.6939Z" fill="#4C2A00"/>
<path d="M39.9666 27.2446C39.2993 27.2446 38.632 27.0316 37.9647 26.6057C37.2975 26.1797 36.9638 25.594 36.9638 24.8486C36.9638 24.7155 36.9638 24.5824 36.9638 24.4493C36.9905 24.3162 37.0039 24.1964 37.0039 24.0899C37.0039 23.9302 36.8838 23.797 36.6435 23.6905C36.4033 23.5574 36.2832 23.411 36.2832 23.2513C36.3099 23.2247 36.3499 23.2113 36.4033 23.2113C36.5101 23.2113 36.6168 23.238 36.7236 23.2912C36.8304 23.3178 36.9371 23.3311 37.0439 23.3311C37.124 23.3311 37.2174 23.3045 37.3242 23.2513C37.3775 23.198 37.4843 22.9584 37.6445 22.5325C37.8313 22.1065 38.0982 21.5874 38.4452 20.9751C38.7922 20.3628 39.2326 19.7771 39.7664 19.218C40.3002 18.6323 40.9408 18.1797 41.6882 17.8603C41.8483 17.807 42.0084 17.7538 42.1686 17.7005C42.3554 17.6207 42.5289 17.5807 42.6891 17.5807C42.9827 17.5807 43.2896 17.7005 43.6099 17.9401C43.9569 18.1531 44.1304 18.4193 44.1304 18.7388C44.1304 18.9252 44.0904 19.0982 44.0103 19.2579C43.9302 19.3911 43.8501 19.5375 43.7701 19.6972L43.5699 19.817C43.4898 19.9501 43.343 20.1365 43.1295 20.3761C42.9426 20.5891 42.8492 20.7488 42.8492 20.8553C42.8492 20.8553 42.8359 20.8553 42.8092 20.8553C42.8092 20.8553 42.8092 20.8686 42.8092 20.8952L42.649 20.9351C42.4889 21.0416 42.3554 21.1747 42.2487 21.3345C42.1419 21.4942 42.0218 21.614 41.8883 21.6939C41.3812 22.04 40.8741 22.3727 40.3669 22.6922C39.8865 23.0117 39.366 23.3045 38.8055 23.5708C38.6987 23.624 38.5786 23.6639 38.4452 23.6905C38.3117 23.7172 38.205 23.7837 38.1249 23.8902C38.0181 24.05 37.9381 24.2363 37.8847 24.4493C37.858 24.6623 37.8446 24.8752 37.8446 25.0882C37.8446 25.4077 37.9247 25.7671 38.0849 26.1664C38.245 26.5391 38.5253 26.7255 38.9256 26.7255C38.979 26.7255 39.019 26.7255 39.0457 26.7255C39.0991 26.6989 39.1392 26.6856 39.1658 26.6856C39.326 26.6856 39.4728 26.6722 39.6062 26.6456C39.7664 26.619 39.9265 26.5924 40.0867 26.5658L40.3269 26.446H40.3669C40.5004 26.446 40.754 26.3528 41.1276 26.1664C41.528 25.9534 41.915 25.7405 42.2887 25.5275C42.6624 25.2879 42.8893 25.1282 42.9693 25.0483C43.0227 25.0217 43.0627 24.9817 43.0894 24.9285C43.1428 24.8752 43.1829 24.8353 43.2095 24.8087C43.6633 24.4626 44.1304 24.1298 44.6108 23.8104C45.0913 23.4909 45.545 23.1182 45.9721 22.6922V22.7321H46.0522C46.0255 22.8653 45.9187 22.9984 45.7319 23.1315C45.5717 23.2646 45.4516 23.3977 45.3715 23.5308C45.0779 24.0633 44.6108 24.5691 43.9702 25.0483C43.3297 25.5275 42.7425 25.9401 42.2086 26.2862C42.0218 26.4193 41.835 26.5658 41.6481 26.7255C41.488 26.8586 41.3011 26.9651 41.0876 27.045C40.6872 27.1781 40.3136 27.2446 39.9666 27.2446ZM38.4051 22.8519C38.6187 22.8519 38.8189 22.7721 39.0057 22.6123C39.2192 22.426 39.3794 22.3195 39.4861 22.2929L39.5262 22.3328V22.2929C40.0333 22.0533 40.5137 21.7205 40.9675 21.2945C41.4479 20.8686 41.8883 20.4559 42.2887 20.0566H42.3688C42.3688 19.8969 42.4889 19.7238 42.7291 19.5375C42.9693 19.3245 43.0894 19.1514 43.0894 19.0183C43.1428 18.9651 43.1962 18.8852 43.2496 18.7787C43.303 18.6456 43.3297 18.5524 43.3297 18.4992C43.2496 18.446 43.1295 18.4193 42.9693 18.4193C42.8359 18.4726 42.6624 18.5658 42.4489 18.6989C42.2353 18.832 42.0485 18.8985 41.8883 18.8985C41.8883 18.9252 41.7549 19.0316 41.488 19.218C41.2478 19.4044 40.9942 19.604 40.7273 19.817C40.4604 20.03 40.2869 20.1764 40.2068 20.2563C40.0733 20.3894 39.8598 20.629 39.5662 20.9751C39.2726 21.3212 39.0057 21.6673 38.7655 22.0133C38.5253 22.3594 38.4051 22.6257 38.4051 22.812V22.8519Z" fill="#4C2A00"/>
<path d="M28.2529 27.8037C28.0927 27.8037 27.9326 27.7504 27.7724 27.6439C27.6123 27.5641 27.5055 27.431 27.4521 27.2446C27.4521 27.218 27.4521 27.1514 27.4521 27.0449C27.4788 26.9651 27.5055 26.9251 27.5322 26.9251L29.454 22.4127C29.6408 21.9601 29.841 21.4276 30.0545 20.8153C30.2681 20.1764 30.4282 19.5508 30.535 18.9385C30.6684 18.2995 30.7085 17.7538 30.6551 17.3012C30.4949 17.3012 30.3214 17.3278 30.1346 17.381C29.9478 17.4343 29.7743 17.4609 29.6141 17.4609C29.5607 17.4609 29.5341 17.421 29.5341 17.3411C29.5341 17.2612 29.5607 17.1814 29.6141 17.1015C29.6942 16.995 29.8277 16.9551 30.0145 16.9817C30.0679 17.0083 30.188 17.0216 30.3748 17.0216C30.6951 17.0216 31.0554 17.035 31.4558 17.0616C31.8562 17.0616 32.0697 17.2346 32.0964 17.5807C32.0964 17.7138 32.003 18.02 31.8161 18.4992C31.656 18.9784 31.4425 19.5241 31.1756 20.1365C30.9353 20.7488 30.7085 21.3345 30.4949 21.8935C30.2814 22.426 30.1346 22.8253 30.0545 23.0915C29.9211 23.3578 29.8543 23.5441 29.8543 23.6506H29.9745C30.188 23.3045 30.4282 22.9983 30.6951 22.7321C30.9887 22.4393 31.2423 22.1198 31.4558 21.7737C31.616 21.6672 31.8562 21.4143 32.1765 21.015C32.4968 20.589 32.8304 20.1631 33.1774 19.7371C33.5511 19.2845 33.8981 18.9651 34.2183 18.7787C34.2717 18.7521 34.3918 18.6855 34.5787 18.579C34.7655 18.4459 34.8723 18.3661 34.899 18.3394C34.979 18.3394 35.0591 18.3394 35.1392 18.3394C35.246 18.3128 35.3394 18.2995 35.4194 18.2995C35.4995 18.2995 35.5663 18.3128 35.6196 18.3394C35.6997 18.3394 35.7798 18.3394 35.8599 18.3394C35.9399 18.3394 36.1134 18.406 36.3803 18.5391C36.6472 18.6456 36.9008 18.7787 37.141 18.9385C37.3812 19.0716 37.5014 19.1781 37.5014 19.2579C37.5014 19.4975 37.4079 19.6839 37.2211 19.817C37.0343 19.9235 36.8741 20.0433 36.7407 20.1764C36.5538 20.416 36.3403 20.6822 36.1001 20.9751C35.8865 21.2413 35.7531 21.5341 35.6997 21.8536L35.6597 22.0533L35.6196 22.0932C35.6196 22.0932 35.6063 22.0799 35.5796 22.0533C35.5796 22.0266 35.5662 22.0133 35.5396 22.0133L35.4995 22.0533C35.4995 21.5208 35.633 21.015 35.8999 20.5358C36.1668 20.03 36.3003 19.5241 36.3003 19.0183C36.3003 18.8852 36.2469 18.8186 36.1401 18.8186C35.9533 18.8186 35.6997 18.9384 35.3794 19.178C35.0591 19.391 34.7655 19.6173 34.4986 19.8569C34.2317 20.0699 34.0715 20.1764 34.0182 20.1764C33.9648 20.2829 33.8046 20.4559 33.5377 20.6955C33.2975 20.9351 33.124 21.0949 33.0172 21.1747C32.8304 21.3345 32.6569 21.5208 32.4968 21.7338C32.3633 21.9468 32.2165 22.1597 32.0564 22.3727C32.0297 22.3993 31.9763 22.4393 31.8962 22.4925C31.8161 22.5458 31.7494 22.599 31.696 22.6523C31.5893 22.8386 31.4558 23.0117 31.2957 23.1714C31.2423 23.2779 31.1889 23.3844 31.1355 23.4909C31.1088 23.5974 31.0421 23.7038 30.9353 23.8103L30.7352 23.8503C30.6284 24.0632 30.4949 24.2629 30.3348 24.4493C30.1746 24.609 30.0278 24.782 29.8944 24.9684C29.7876 25.1548 29.6942 25.3544 29.6141 25.5674C29.5607 25.7804 29.4673 25.9667 29.3339 26.1265C29.1737 26.3394 29.0002 26.5924 28.8134 26.8852C28.6532 27.1514 28.5732 27.431 28.5732 27.7238H28.5331C28.4264 27.7771 28.333 27.8037 28.2529 27.8037Z" fill="#4C2A00"/>
<path d="M23.242 30C23.1085 30 22.895 29.9201 22.6014 29.7604C22.3078 29.6007 22.1076 29.4676 22.0008 29.3611C21.814 29.1481 21.6805 28.8952 21.6005 28.6023C21.5471 28.3095 21.5204 28.03 21.5204 27.7637C21.5204 26.8852 21.7206 25.8869 22.1209 24.7687C22.5213 23.6506 22.935 22.7055 23.3621 21.9334C23.4155 21.827 23.5222 21.6273 23.6824 21.3344C23.8692 21.0416 24.0427 20.7488 24.2029 20.4559C24.363 20.1631 24.4431 20.0033 24.4431 19.9767L23.7224 20.2163L23.4822 20.1764V20.2163C23.2153 20.4027 22.8683 20.5358 22.4412 20.6156C22.0142 20.6955 21.6539 20.802 21.3603 20.9351L20.1592 21.5341H20.0791C19.9723 21.5341 19.8789 21.4809 19.7988 21.3744C19.7454 21.2413 19.7188 21.1348 19.7188 21.0549C19.7188 20.975 19.8656 20.8819 20.1592 20.7754C20.4528 20.6423 20.7997 20.5092 21.2001 20.376C21.6272 20.2429 22.0142 20.1231 22.3612 20.0166C22.7348 19.9102 22.9751 19.8436 23.0818 19.817C23.4288 19.7371 23.7491 19.6439 24.0427 19.5374H24.0827V19.4975C24.2696 19.4975 24.4698 19.4443 24.6833 19.3378C25.1904 18.5924 25.6842 17.8602 26.1647 17.1414C26.6718 16.396 27.2456 15.7171 27.8862 15.1048L28.767 14.2662C28.9806 14.0799 29.1407 13.9201 29.2475 13.787C29.3542 13.6539 29.5411 13.5208 29.808 13.3877C29.9948 13.4143 30.2484 13.5075 30.5687 13.6672C30.9157 13.827 31.0892 14.0133 31.0892 14.2263C31.0892 14.3062 30.9557 14.4393 30.6888 14.6256C30.4486 14.812 30.195 14.9983 29.9281 15.1847C29.6612 15.3444 29.4744 15.4642 29.3676 15.5441L29.0873 15.624C28.767 15.8902 28.4734 16.1697 28.2065 16.4626C27.9396 16.7554 27.6594 17.0483 27.3658 17.3411C27.2056 17.4742 27.0722 17.6473 26.9654 17.8602C26.8586 18.0732 26.7252 18.2596 26.565 18.4193V18.579C26.5116 18.6057 26.4182 18.6855 26.2848 18.8186C26.178 18.9251 26.1246 19.005 26.1246 19.0582C26.5784 19.0849 27.0588 19.1248 27.5659 19.178C28.0731 19.2313 28.5001 19.4443 28.8471 19.817C28.5535 19.7371 28.2733 19.6706 28.0063 19.6173C27.7661 19.5374 27.4992 19.4975 27.2056 19.4975C26.6718 19.4975 26.178 19.5774 25.7243 19.7371C25.7243 19.7371 25.6442 19.8569 25.484 20.0965C25.3239 20.3361 25.1504 20.5757 24.9636 20.8153C24.8034 21.0283 24.7233 21.1481 24.7233 21.1747C24.6433 21.2812 24.4831 21.5474 24.2429 21.9734C24.0027 22.3727 23.7758 22.7721 23.5623 23.1714C23.3754 23.5441 23.2687 23.7438 23.242 23.7704C23.242 23.9035 23.2019 24.0765 23.1219 24.2895C23.0418 24.5025 22.9751 24.6755 22.9217 24.8087L22.8816 24.8486V24.8885C22.8816 25.0483 22.8416 25.2213 22.7615 25.4077C22.6815 25.594 22.6147 25.7538 22.5614 25.8869C22.3211 26.6057 22.201 27.3511 22.201 28.1231C22.201 28.3361 22.2277 28.6023 22.2811 28.9218C22.3612 29.2413 22.5213 29.4676 22.7615 29.6007C22.8149 29.6273 22.935 29.6539 23.1219 29.6805C23.3354 29.7072 23.4422 29.7604 23.4422 29.8403C23.4422 29.9468 23.3754 30 23.242 30ZM28.8871 19.817C28.8605 19.817 28.8471 19.817 28.8471 19.817C28.8471 19.817 28.8605 19.817 28.8871 19.817Z" fill="#4C2A00"/>
<path d="M10.7509 26.4859C10.5908 26.4859 10.4039 26.406 10.1904 26.2463C10.0036 26.0865 9.91016 25.9268 9.91016 25.7671C9.91016 25.2613 10.0436 24.6489 10.3105 23.9301C10.5774 23.2113 10.8977 22.4659 11.2714 21.6939C11.6718 20.9218 12.0588 20.1897 12.4325 19.4975C12.8328 18.8054 13.1665 18.233 13.4334 17.7804C13.5668 17.5408 13.6736 17.2879 13.7537 17.0217C13.8604 16.7554 14.0072 16.5158 14.1941 16.3029C14.4076 16.3295 14.6478 16.396 14.9147 16.5025C15.2083 16.609 15.3551 16.8087 15.3551 17.1015C15.3551 17.3145 15.2217 17.5541 14.9548 17.8203C14.7146 18.0599 14.5277 18.2596 14.3943 18.4193C13.8071 19.0849 13.2732 19.8037 12.7928 20.5757C12.339 21.3478 11.9253 22.1331 11.5517 22.9318C11.4716 23.0915 11.4049 23.2513 11.3515 23.411C11.2981 23.5441 11.2447 23.6772 11.1913 23.8103C11.1379 23.9435 11.0712 24.0766 10.9911 24.2097C10.9111 24.3162 10.871 24.436 10.871 24.5691C10.871 24.6223 10.8844 24.6889 10.9111 24.7687C10.9378 24.8486 10.9911 24.8885 11.0712 24.8885C11.2847 24.6756 11.6184 24.3162 12.0721 23.8103C12.5259 23.2779 13.0197 22.7321 13.5535 22.1731C14.0873 21.5874 14.5678 21.0816 14.9948 20.6556C15.4486 20.2296 15.7555 19.9767 15.9157 19.8969C15.969 19.8702 16.0224 19.8569 16.0758 19.8569C16.1292 19.8303 16.1826 19.817 16.236 19.817C16.663 19.817 16.9966 20.0167 17.2369 20.416C17.4771 20.7887 17.5972 21.1614 17.5972 21.5341C17.5972 21.9601 17.5572 22.3727 17.4771 22.7721C17.397 23.1714 17.357 23.5707 17.357 23.9701C17.357 24.2895 17.4237 24.7022 17.5572 25.208C17.6906 25.7138 17.9709 25.9667 18.3979 25.9667C18.5047 25.9135 18.6248 25.8603 18.7583 25.807C18.8917 25.7538 19.0118 25.7271 19.1186 25.7271C19.1987 25.7271 19.2387 25.7804 19.2387 25.8869C19.2387 26.02 19.1586 26.1265 18.9985 26.2064C18.865 26.2862 18.7449 26.3262 18.6382 26.3262C18.2378 26.3262 17.8241 26.1531 17.397 25.807C16.97 25.4343 16.703 25.0616 16.5963 24.6889C16.4895 24.2895 16.4094 23.8902 16.3561 23.4909C16.3294 23.0649 16.316 22.6523 16.316 22.2529C16.316 22.0666 16.3294 21.8004 16.3561 21.4543C16.4094 21.0816 16.4361 20.842 16.4361 20.7355C16.276 20.7355 16.0625 20.8553 15.7955 21.0949C15.5286 21.3078 15.2751 21.5474 15.0349 21.8137C14.7946 22.0533 14.6211 22.2396 14.5144 22.3727C14.461 22.426 14.3809 22.4792 14.2742 22.5325C14.1941 22.5857 14.114 22.6523 14.0339 22.7321C13.9272 22.8653 13.8071 23.025 13.6736 23.2113C13.5401 23.3711 13.4067 23.5175 13.2732 23.6506C13.2199 23.7039 13.0997 23.797 12.9129 23.9301C12.7528 24.0633 12.646 24.1697 12.5926 24.2496C12.4592 24.5158 12.2857 24.7687 12.0721 25.0083C11.8586 25.2479 11.6584 25.5009 11.4716 25.7671C11.4182 25.8469 11.3648 25.9534 11.3114 26.0865C11.2581 26.193 11.1913 26.2729 11.1113 26.3262C11.0312 26.4326 10.9111 26.4859 10.7509 26.4859Z" fill="#4C2A00"/>
<path d="M3.68338 27.2446C3.0161 27.2446 2.34882 27.0316 1.68154 26.6057C1.01426 26.1797 0.680624 25.594 0.680624 24.8486C0.680624 24.7155 0.680624 24.5824 0.680624 24.4493C0.707315 24.3162 0.72066 24.1964 0.72066 24.0899C0.72066 23.9302 0.60055 23.797 0.36033 23.6905C0.12011 23.5574 0 23.411 0 23.2513C0.0266911 23.2247 0.0667278 23.2113 0.12011 23.2113C0.226875 23.2113 0.333639 23.238 0.440404 23.2912C0.547168 23.3178 0.653933 23.3311 0.760697 23.3311C0.84077 23.3311 0.934189 23.3045 1.04095 23.2513C1.09434 23.198 1.2011 22.9584 1.36125 22.5325C1.54809 22.1065 1.815 21.5874 2.16198 20.9751C2.50897 20.3628 2.94937 19.7771 3.48319 19.218C4.01701 18.6323 4.6576 18.1797 5.40495 17.8603C5.5651 17.807 5.72525 17.7538 5.88539 17.7005C6.07223 17.6207 6.24572 17.5807 6.40587 17.5807C6.69947 17.5807 7.00642 17.7005 7.32671 17.9401C7.6737 18.1531 7.84719 18.4193 7.84719 18.7388C7.84719 18.9252 7.80715 19.0982 7.72708 19.2579C7.64701 19.3911 7.56693 19.5375 7.48686 19.6972L7.28668 19.817C7.2066 19.9501 7.0598 20.1365 6.84627 20.3761C6.65944 20.5891 6.56602 20.7488 6.56602 20.8553C6.56602 20.8553 6.55267 20.8553 6.52598 20.8553C6.52598 20.8553 6.52598 20.8686 6.52598 20.8952L6.36583 20.9351C6.20569 21.0416 6.07223 21.1747 5.96547 21.3345C5.8587 21.4942 5.73859 21.614 5.60514 21.6939C5.098 22.04 4.59087 22.3727 4.08374 22.6922C3.6033 23.0117 3.08282 23.3045 2.52231 23.5708C2.41555 23.624 2.29544 23.6639 2.16198 23.6905C2.02853 23.7172 1.92176 23.7837 1.84169 23.8902C1.73492 24.05 1.65485 24.2363 1.60147 24.4493C1.57478 24.6623 1.56143 24.8752 1.56143 25.0882C1.56143 25.4077 1.6415 25.7671 1.80165 26.1664C1.9618 26.5391 2.24205 26.7255 2.64242 26.7255C2.6958 26.7255 2.73584 26.7255 2.76253 26.7255C2.81591 26.6989 2.85595 26.6856 2.88264 26.6856C3.04279 26.6856 3.18959 26.6722 3.32304 26.6456C3.48319 26.619 3.64334 26.5924 3.80349 26.5658L4.0437 26.446H4.08374C4.2172 26.446 4.47076 26.3528 4.84444 26.1664C5.24481 25.9534 5.63183 25.7405 6.0055 25.5275C6.37918 25.2879 6.60605 25.1282 6.68613 25.0483C6.73951 25.0217 6.77955 24.9817 6.80624 24.9285C6.85962 24.8752 6.89966 24.8353 6.92635 24.8087C7.3801 24.4626 7.84719 24.1298 8.32763 23.8104C8.80807 23.4909 9.26182 23.1182 9.68888 22.6922V22.7321H9.76895C9.74226 22.8653 9.6355 22.9984 9.44866 23.1315C9.28851 23.2646 9.1684 23.3977 9.08833 23.5308C8.79473 24.0633 8.32763 24.5691 7.68704 25.0483C7.04646 25.5275 6.45925 25.9401 5.92543 26.2862C5.73859 26.4193 5.55175 26.5658 5.36492 26.7255C5.20477 26.8586 5.01793 26.9651 4.8044 27.045C4.40404 27.1781 4.03036 27.2446 3.68338 27.2446ZM2.12194 22.8519C2.33547 22.8519 2.53566 22.7721 2.72249 22.6123C2.93602 22.426 3.09617 22.3195 3.20293 22.2929L3.24297 22.3328V22.2929C3.7501 22.0533 4.23054 21.7205 4.68429 21.2945C5.16473 20.8686 5.60514 20.4559 6.0055 20.0566H6.08558C6.08558 19.8969 6.20569 19.7238 6.44591 19.5375C6.68613 19.3245 6.80624 19.1514 6.80624 19.0183C6.85962 18.9651 6.913 18.8852 6.96638 18.7787C7.01977 18.6456 7.04646 18.5524 7.04646 18.4992C6.96638 18.446 6.84627 18.4193 6.68613 18.4193C6.55267 18.4726 6.37918 18.5658 6.16565 18.6989C5.95212 18.832 5.76528 18.8985 5.60514 18.8985C5.60514 18.9252 5.47168 19.0316 5.20477 19.218C4.96455 19.4044 4.71098 19.604 4.44407 19.817C4.17716 20.03 4.00367 20.1764 3.9236 20.2563C3.79014 20.3894 3.57661 20.629 3.28301 20.9751C2.98941 21.3212 2.72249 21.6673 2.48227 22.0133C2.24205 22.3594 2.12194 22.6257 2.12194 22.812V22.8519Z" fill="#4C2A00"/>
</svg>
