<svg width="103" height="36" viewBox="0 0 103 36" fill="none" xmlns="http://www.w3.org/2000/svg">
<g clip-path="url(#clip0_55_259)">
<path d="M92.3502 29.2413C92.2435 29.1881 92.1367 29.055 92.03 28.842C91.8965 28.6556 91.7764 28.456 91.6696 28.243C91.5629 28.0566 91.4561 27.9768 91.3493 28.0034C91.3493 27.8969 91.336 27.8037 91.3093 27.7239C91.2559 27.644 91.2292 27.5641 91.2292 27.4843C91.7897 26.7122 92.4704 26.02 93.2711 25.4077C94.0985 24.7954 94.9259 24.2763 95.7534 23.8503H95.8735C96.0603 23.664 96.2738 23.5042 96.5141 23.3711C96.781 23.238 96.9812 23.0783 97.1146 22.8919V22.852C96.7676 22.639 96.394 22.4527 95.9936 22.2929C95.5932 22.1332 95.2462 21.9069 94.9526 21.6141C94.6857 21.4011 94.4322 21.1348 94.1919 20.8154C93.9784 20.4959 93.8716 20.1498 93.8716 19.7771C93.8716 19.1914 94.1519 18.659 94.7124 18.1798C95.2729 17.674 95.7801 17.2879 96.2338 17.0217C96.3673 16.862 96.6208 16.6756 96.9945 16.4626C97.3949 16.2497 97.7952 16.05 98.1956 15.8636C98.6227 15.6507 98.9296 15.5042 99.1164 15.4244V15.4643C99.3033 15.3312 99.5168 15.238 99.757 15.1848L100.237 14.9851H100.318C100.531 14.9319 100.758 14.8786 100.998 14.8254C101.238 14.7455 101.465 14.7056 101.679 14.7056C101.919 14.7056 102.199 14.8387 102.52 15.1049C102.84 15.3711 103 15.6373 103 15.9036C103 16.0101 102.92 16.2097 102.76 16.5026C102.626 16.7688 102.466 17.0217 102.279 17.2613C102.119 17.5009 101.986 17.6473 101.879 17.7006C101.852 17.7006 101.826 17.7139 101.799 17.7405C101.799 17.7405 101.786 17.7405 101.759 17.7405V17.6606C101.892 17.5009 102.012 17.2613 102.119 16.9418C102.253 16.5957 102.319 16.3162 102.319 16.1032C102.319 15.7039 102.106 15.5042 101.679 15.5042C101.358 15.5042 101.052 15.5575 100.758 15.664C100.491 15.7438 100.211 15.8503 99.9172 15.9834C98.9296 16.3295 98.0621 16.7422 97.3148 17.2214C96.5941 17.674 95.9269 18.3528 95.313 19.258C95.2062 19.4443 95.0861 19.644 94.9526 19.857C94.8459 20.0433 94.7925 20.243 94.7925 20.456C94.7925 20.7222 94.8859 20.9485 95.0727 21.1348C95.2863 21.2946 95.4998 21.4277 95.7133 21.5342C95.7934 21.5874 95.9936 21.7072 96.3139 21.8936C96.6342 22.0799 96.9411 22.2663 97.2347 22.4527C97.555 22.6124 97.7285 22.6923 97.7552 22.6923C97.8887 22.6923 98.0221 22.639 98.1556 22.5325C98.289 22.426 98.4091 22.3462 98.5159 22.2929C98.8896 22.0799 99.41 21.8137 100.077 21.4942C100.745 21.1482 101.278 20.9352 101.679 20.8553L102.239 20.7355C102.266 20.7355 102.306 20.7621 102.359 20.8154C102.333 20.842 102.293 20.8819 102.239 20.9352C102.186 20.9618 102.133 20.9884 102.079 21.015C101.919 21.1748 101.652 21.3212 101.278 21.4543C100.931 21.5608 100.691 21.6673 100.558 21.7738C100.478 21.827 100.411 21.9069 100.358 22.0134C100.304 22.0933 100.237 22.1598 100.157 22.2131C99.9172 22.3728 99.6102 22.5858 99.2366 22.852C98.8629 23.0916 98.676 23.3711 98.676 23.6906C98.676 23.7971 98.6894 23.9036 98.7161 24.0101C98.7695 24.1165 98.7961 24.2363 98.7961 24.3695C98.7961 24.5824 98.7294 24.8886 98.596 25.2879C98.4625 25.6606 98.3024 25.9135 98.1155 26.0467V26.2064C97.8753 26.2863 97.6885 26.4593 97.555 26.7255C97.4482 26.9651 97.2347 27.0716 96.9144 27.045L96.7142 27.2846C96.5274 27.2846 96.3673 27.3512 96.2338 27.4843C96.1003 27.644 95.9669 27.7904 95.8334 27.9235H95.7934C95.6066 27.9235 95.4064 28.0034 95.1928 28.1631C95.006 28.3495 94.7658 28.5092 94.4722 28.6423C94.2053 28.8021 93.8583 28.842 93.4312 28.7621C93.3245 28.7888 93.2311 28.8287 93.151 28.8819C93.0709 28.9352 92.9775 28.9618 92.8707 28.9618C92.7906 28.9618 92.7506 28.9352 92.7506 28.8819C92.7506 28.8553 92.7906 28.8021 92.8707 28.7222C92.9775 28.669 93.2577 28.5358 93.7115 28.3229C94.1652 28.1099 94.4855 27.9502 94.6724 27.8437C94.6724 27.817 94.7258 27.7638 94.8325 27.6839C94.966 27.6041 95.046 27.5508 95.0727 27.5242C95.4197 27.2846 95.8067 26.9784 96.2338 26.6057C96.6609 26.2064 97.0345 25.7804 97.3548 25.3279C97.6751 24.8487 97.8353 24.3961 97.8353 23.9701C97.8353 23.8903 97.8219 23.7838 97.7952 23.6507C97.7685 23.4909 97.7018 23.4111 97.5951 23.4111C97.4883 23.4111 97.3815 23.4643 97.2748 23.5708C97.1947 23.6773 97.128 23.7571 97.0746 23.8104C96.8877 23.9435 96.6876 24.0766 96.474 24.2097C96.2605 24.3428 96.047 24.4893 95.8334 24.649C95.5665 24.8353 95.3263 25.0483 95.1128 25.2879C94.8992 25.5009 94.659 25.7139 94.3921 25.9269C94.0451 26.1931 93.7248 26.4726 93.4312 26.7655C93.1376 27.0317 92.844 27.3245 92.5504 27.644C92.3369 27.857 92.2301 28.1232 92.2301 28.4427C92.2301 28.5492 92.2568 28.6556 92.3102 28.7621C92.3636 28.8952 92.3903 29.0284 92.3903 29.1615L92.3502 29.2413Z" fill="#4C2A00"/>
<path d="M82.4001 27.005C82.0264 27.005 81.6127 26.8053 81.159 26.406C80.7052 25.98 80.4783 25.5674 80.4783 25.168H80.4383C80.465 25.0616 80.4917 24.8086 80.5184 24.4093C80.5451 24.01 80.6118 23.797 80.7186 23.7704V23.6905C80.7452 23.6639 80.812 23.5574 80.9187 23.371C81.0255 23.1847 81.1323 22.985 81.239 22.772C81.3725 22.5591 81.4526 22.4259 81.4792 22.3727C81.5593 22.2396 81.7729 21.9867 82.1198 21.614C82.4668 21.2146 82.8272 20.8419 83.2008 20.4958C83.5745 20.1497 83.8147 19.9767 83.9215 19.9767C84.0816 19.7371 84.3752 19.4709 84.8023 19.178C85.256 18.8852 85.7098 18.6056 86.1635 18.3394C86.644 18.0732 86.9776 17.8868 87.1645 17.7804V17.7404L87.2045 17.7804H87.2445C87.3513 17.6739 87.5515 17.5674 87.8451 17.4609C88.1654 17.3278 88.3789 17.2479 88.4857 17.2213C88.6725 17.1414 88.8593 17.0882 89.0462 17.0616C89.233 17.0349 89.4199 17.0083 89.6067 16.9817C89.7402 17.0083 89.8736 17.0216 90.0071 17.0216C90.1672 17.0216 90.314 17.0349 90.4475 17.0616C90.7144 17.1148 91.008 17.2612 91.3283 17.5008C91.6486 17.7138 91.8087 17.98 91.8087 18.2995C91.782 18.3261 91.7553 18.366 91.7286 18.4193C91.7019 18.4725 91.7019 18.5125 91.7286 18.5391L91.5685 18.4592C91.4083 18.1664 91.1681 17.9933 90.8478 17.9401C90.5275 17.8602 90.2206 17.8203 89.927 17.8203C89.2063 17.8203 88.4456 18.0066 87.6449 18.3794C86.8442 18.7254 86.0568 19.1913 85.2827 19.777C84.5087 20.3627 83.8147 20.9883 83.2008 21.6539C82.6136 22.3195 82.1732 22.9584 81.8796 23.5707L81.7595 24.0499C81.7061 24.3161 81.6261 24.569 81.5193 24.8086C81.4125 25.0482 81.3591 25.3145 81.3591 25.6073C81.3591 25.8203 81.3858 25.98 81.4392 26.0865C81.4926 26.1664 81.586 26.2995 81.7195 26.4858L81.7995 26.4459V26.4858L81.8796 26.406L82.0398 26.4459C82.2266 26.3394 82.4268 26.2596 82.6403 26.2063C82.8538 26.1264 83.0273 26.02 83.1608 25.8868L83.2409 25.807C83.401 25.7537 83.5478 25.6606 83.6813 25.5274C83.8147 25.3943 83.9348 25.2745 84.0416 25.168C84.442 24.7953 84.8423 24.4226 85.2427 24.0499C85.6431 23.6772 86.0167 23.2912 86.3637 22.8918C86.5506 22.6789 86.7908 22.4126 87.0844 22.0932C87.378 21.7737 87.6316 21.5474 87.8451 21.4143L87.8851 21.2546C88.0986 21.1747 88.2988 20.9883 88.4857 20.6955C88.6992 20.4027 88.8994 20.1231 89.0862 19.8569C89.2997 19.5641 89.4999 19.4176 89.6868 19.4176L89.8469 19.3777C90.0604 19.3777 90.2339 19.4709 90.3674 19.6572C90.5008 19.817 90.5676 19.99 90.5676 20.1764C90.5676 20.3893 90.5008 20.6289 90.3674 20.8952C90.2339 21.1614 90.1405 21.401 90.0871 21.614C89.9537 22.173 89.8603 22.6789 89.8069 23.1314C89.7535 23.5574 89.7268 24.0499 89.7268 24.609C89.7268 24.9551 89.7802 25.2479 89.887 25.4875C90.0204 25.7271 90.2072 25.98 90.4475 26.2462H90.6476C91.0213 26.0333 91.2882 25.807 91.4484 25.5674C91.6085 25.3278 91.8087 25.0749 92.0489 24.8086C92.0756 24.8086 92.1023 24.7953 92.129 24.7687C92.1557 24.7421 92.169 24.7288 92.169 24.7288C92.2224 24.7288 92.2491 24.7554 92.2491 24.8086C92.2491 24.9151 92.2224 25.0216 92.169 25.1281C92.1423 25.208 92.1157 25.3145 92.089 25.4476C92.0356 25.7404 91.9555 26.02 91.8488 26.2862C91.7687 26.5258 91.5151 26.6456 91.0881 26.6456C90.8478 26.6456 90.5809 26.5923 90.2873 26.4858C89.9937 26.3794 89.7535 26.2329 89.5667 26.0466C89.1663 25.594 88.9127 25.1015 88.806 24.569C88.7259 24.01 88.6858 23.4376 88.6858 22.8519V21.574H88.6058C88.499 21.7338 88.3789 21.8935 88.2454 22.0532C88.112 22.213 87.9785 22.3727 87.8451 22.5324C87.7383 22.6389 87.6049 22.7587 87.4447 22.8918C87.3113 22.9983 87.1911 23.1314 87.0844 23.2912C87.031 23.2912 86.9242 23.3844 86.7641 23.5707C86.6306 23.7304 86.5639 23.8502 86.5639 23.9301C86.3771 23.9567 86.1635 24.1165 85.9233 24.4093C85.7098 24.7022 85.563 24.8486 85.4829 24.8486C85.4562 24.9284 85.3628 25.0616 85.2027 25.2479C85.0425 25.4076 84.9224 25.5274 84.8423 25.6073C84.6555 25.6339 84.4953 25.7271 84.3619 25.8868C84.2551 26.0466 84.1484 26.193 84.0416 26.3261C83.8014 26.4326 83.5345 26.579 83.2409 26.7654C82.9473 26.9251 82.667 27.005 82.4001 27.005Z" fill="#4C2A00"/>
<path d="M69.2379 28.1231C68.9977 28.1231 68.7708 28.0699 68.5573 27.9634C68.3437 27.8569 68.237 27.6705 68.237 27.4043C68.237 26.8985 68.3304 26.2729 68.5172 25.5274C68.7308 24.782 68.971 24.0366 69.2379 23.2912C69.5048 22.5191 69.7317 21.8269 69.9185 21.2146C70.132 20.5757 70.2388 20.1231 70.2388 19.8569V19.817H70.0386C69.7183 19.817 69.3847 19.7105 69.0377 19.4975C68.7174 19.2579 68.5573 18.9651 68.5573 18.619C68.5573 18.2729 68.6907 17.9667 68.9576 17.7005C69.2245 17.4343 69.4781 17.208 69.7183 17.0216C69.8251 16.9684 69.9185 16.9018 69.9986 16.822C70.1053 16.7155 70.2121 16.6622 70.3189 16.6622L70.5991 16.5424V16.5824C70.5991 16.609 70.4924 16.7421 70.2788 16.9817C70.0653 17.1947 69.9319 17.3278 69.8785 17.381C69.7717 17.5408 69.6516 17.807 69.5181 18.1797C69.4114 18.5524 69.358 18.8319 69.358 19.0183C69.358 19.178 69.4114 19.2712 69.5181 19.2978C69.6249 19.3245 69.7317 19.3378 69.8384 19.3378C69.9452 19.3378 70.0787 19.2845 70.2388 19.178C70.399 19.0715 70.5057 19.0449 70.5591 19.0982C70.5591 19.0715 70.6258 18.9251 70.7593 18.6589C70.9194 18.3927 71.0128 18.2463 71.0395 18.2196V18.0599C71.1463 17.8203 71.2531 17.5541 71.3598 17.2612C71.4666 16.9684 71.6134 16.7155 71.8002 16.5025V16.4626C71.9337 16.1697 72.1205 15.7704 72.3607 15.2646C72.601 14.7587 72.8679 14.213 73.1615 13.6273C73.4551 13.0416 73.7487 12.5092 74.0423 12.0299C74.3359 11.5507 74.5761 11.218 74.7629 11.0316C74.7629 10.9784 74.8697 10.8186 75.0832 10.5524C75.2968 10.2596 75.4302 10.0732 75.4836 9.99334C75.7505 9.59401 76.1509 9.12812 76.6847 8.59567C77.2185 8.06323 77.779 7.57071 78.3662 7.11814C78.9535 6.63893 79.4472 6.33278 79.8476 6.19967L80.4081 6C80.7818 6.10649 81.1154 6.26622 81.409 6.4792C81.7026 6.66556 81.8494 6.97171 81.8494 7.39767C81.8494 7.90349 81.6893 8.50249 81.369 9.19467C81.0487 9.88685 80.675 10.5524 80.248 11.1913C79.8209 11.8303 79.4606 12.3494 79.167 12.7488C78.9801 13.015 78.7666 13.2679 78.5264 13.5075C78.3129 13.7205 78.1127 13.9734 77.9258 14.2662C77.739 14.3727 77.5789 14.5191 77.4454 14.7055C77.312 14.8652 77.1785 15.0116 77.045 15.1448C76.8849 15.3045 76.6046 15.5707 76.2043 15.9434C75.8039 16.3161 75.3502 16.7022 74.843 17.1015C74.3626 17.5008 73.9088 17.8602 73.4818 18.1797C73.0814 18.4725 72.8012 18.6323 72.641 18.6589L72.601 18.6988C72.4141 18.8852 72.2139 19.0183 72.0004 19.0982C71.7869 19.1514 71.5867 19.2446 71.3999 19.3777C71.2931 19.4842 71.173 19.7105 71.0395 20.0566C70.9061 20.376 70.786 20.7221 70.6792 21.0948C70.5724 21.4409 70.479 21.7072 70.399 21.8935C70.2922 22.1864 70.1988 22.5058 70.1187 22.8519C70.0653 23.1714 69.9719 23.4642 69.8384 23.7304L69.5982 24.569C69.5715 24.6755 69.5181 24.9018 69.4381 25.2479C69.358 25.5674 69.2913 25.8735 69.2379 26.1664C69.2112 26.4592 69.2112 26.6057 69.2379 26.6057C69.2913 26.579 69.5315 26.3128 69.9585 25.807C70.4123 25.3012 70.9728 24.6755 71.6401 23.9301C72.3074 23.1581 72.988 22.3993 73.682 21.6539C74.4026 20.9085 75.0432 20.2695 75.6037 19.7371C76.1642 19.2047 76.5513 18.9251 76.7648 18.8985H76.965C77.3386 18.8985 77.6322 18.9517 77.8458 19.0582C78.0593 19.1381 78.126 19.4309 78.046 19.9368C77.7524 20.9218 77.3653 21.9068 76.8849 22.8918C76.4311 23.8502 76.2043 24.8486 76.2043 25.8869C76.2043 26.02 76.2176 26.2329 76.2443 26.5258C76.2977 26.8186 76.3778 27.0715 76.4845 27.2845C76.618 27.5241 76.7781 27.6439 76.965 27.6439C77.312 27.6439 77.6723 27.4576 78.046 27.0849C78.4463 26.7121 78.8333 26.2995 79.207 25.8469C79.5807 25.3943 79.901 25.0616 80.1679 24.8486V25.2879C80.1145 25.3677 80.0611 25.4609 80.0078 25.5674C79.9544 25.6739 79.901 25.7804 79.8476 25.8869C79.6608 26.1531 79.3672 26.4992 78.9668 26.9251C78.5931 27.3511 78.2728 27.6705 78.0059 27.8835C77.9258 27.9368 77.8057 27.9767 77.6456 28.0033C77.4854 28.0299 77.352 28.0433 77.2452 28.0433C77.1118 28.0433 76.9917 28.0166 76.8849 27.9634C76.7781 27.9101 76.658 27.8569 76.5246 27.8037C75.6171 27.3777 75.1633 26.6589 75.1633 25.6473C75.1633 25.1414 75.1767 24.6755 75.2034 24.2496C75.2567 23.8236 75.3502 23.371 75.4836 22.8918C75.6171 22.4393 75.7238 21.9867 75.8039 21.5341C75.9107 21.0815 76.0174 20.6289 76.1242 20.1764L74.843 21.4143C74.7096 21.5208 74.5895 21.6672 74.4827 21.8536C74.4026 22.0133 74.2959 22.1597 74.1624 22.2928C74.0289 22.4792 73.8688 22.6389 73.682 22.772C73.4951 22.9052 73.3216 23.0649 73.1615 23.2512C72.9213 23.4908 72.6944 23.7704 72.4809 24.0898C72.294 24.3827 72.0805 24.6489 71.8403 24.8885C71.6534 25.0749 71.4666 25.2612 71.2798 25.4476C71.1196 25.6339 70.9595 25.8336 70.7993 26.0466C70.6926 26.1797 70.5458 26.406 70.3589 26.7255C70.1721 27.0183 69.9719 27.3111 69.7584 27.604C69.5715 27.8968 69.398 28.0699 69.2379 28.1231ZM71.56 18.579H71.6801C73.5752 17.4077 75.3502 15.97 77.005 14.2662C78.6599 12.5358 79.9143 10.6323 80.7685 8.55574C80.8218 8.36938 80.8352 8.23627 80.8085 8.15641C80.8085 8.07654 80.8085 7.94343 80.8085 7.75707C80.8085 7.6772 80.7284 7.65058 80.5683 7.6772C80.4348 7.6772 80.328 7.66389 80.248 7.63727C80.0611 7.74376 79.8209 7.86356 79.5273 7.99667C79.2337 8.12978 79.0068 8.26289 78.8467 8.39601C78.7933 8.42263 78.7533 8.46256 78.7266 8.51581C78.7266 8.56905 78.7132 8.6223 78.6865 8.67554L78.1661 9.15474C78.086 9.23461 77.9926 9.31447 77.8858 9.39434C77.8057 9.44759 77.7257 9.50083 77.6456 9.55407C77.5388 9.66056 77.4454 9.76705 77.3653 9.87354C77.312 9.95341 77.2319 10.0466 77.1251 10.1531C77.0183 10.2596 76.9116 10.3527 76.8048 10.4326C76.7247 10.5125 76.618 10.6057 76.4845 10.7121C76.4045 10.7654 76.2443 10.9384 76.0041 11.2313C75.7906 11.5241 75.537 11.8702 75.2434 12.2695C74.9765 12.6423 74.7229 12.9884 74.4827 13.3078C74.2692 13.6273 74.1357 13.8403 74.0823 13.9468C74.0556 13.9734 74.0156 14.0266 73.9622 14.1065C73.9355 14.1864 73.8955 14.2396 73.8421 14.2662C73.8421 14.3993 73.8021 14.4659 73.722 14.4659L73.762 14.6256H73.6419C73.6152 14.7321 73.5218 14.9185 73.3617 15.1847C73.2015 15.4243 73.0681 15.5441 72.9613 15.5441C72.9613 15.5707 72.9613 15.584 72.9613 15.584C72.988 15.584 73.0013 15.584 73.0013 15.584V15.624C73.0013 15.6506 72.9346 15.8103 72.8012 16.1032C72.6677 16.396 72.5076 16.7288 72.3207 17.1015C72.1339 17.4742 71.9604 17.807 71.8002 18.0998C71.6668 18.3661 71.5867 18.5258 71.56 18.579Z" fill="#4C2A00"/>
<path d="M59.3897 26.4858C59.2295 26.4858 59.0427 26.4059 58.8292 26.2462C58.6423 26.0864 58.5489 25.9267 58.5489 25.767C58.5489 25.2611 58.6824 24.6488 58.9493 23.93C59.2162 23.2112 59.5365 22.4658 59.9102 21.6937C60.3105 20.9217 60.6976 20.1896 61.0712 19.4974C61.4716 18.8052 61.8052 18.2329 62.0721 17.7803C62.2056 17.5407 62.3124 17.2878 62.3924 17.0215C62.4992 16.7553 62.646 16.5157 62.8328 16.3027C63.0464 16.3294 63.2866 16.3959 63.5535 16.5024C63.8471 16.6089 63.9939 16.8086 63.9939 17.1014C63.9939 17.3144 63.8605 17.554 63.5935 17.8202C63.3533 18.0598 63.1665 18.2595 63.033 18.4192C62.4458 19.0848 61.912 19.8036 61.4316 20.5756C60.9778 21.3477 60.5641 22.133 60.1904 22.9317C60.1104 23.0914 60.0436 23.2512 59.9902 23.4109C59.9369 23.544 59.8835 23.6771 59.8301 23.8102C59.7767 23.9433 59.71 24.0764 59.6299 24.2096C59.5498 24.316 59.5098 24.4358 59.5098 24.569C59.5098 24.6222 59.5231 24.6888 59.5498 24.7686C59.5765 24.8485 59.6299 24.8884 59.71 24.8884C59.9235 24.6754 60.2572 24.316 60.7109 23.8102C61.1647 23.2778 61.6584 22.732 62.1923 22.173C62.7261 21.5873 63.2065 21.0814 63.6336 20.6555C64.0873 20.2295 64.3943 19.9766 64.5544 19.8967C64.6078 19.8701 64.6612 19.8568 64.7146 19.8568C64.768 19.8302 64.8213 19.8169 64.8747 19.8169C65.3018 19.8169 65.6354 20.0165 65.8756 20.4159C66.1159 20.7886 66.236 21.1613 66.236 21.534C66.236 21.96 66.1959 22.3726 66.1159 22.772C66.0358 23.1713 65.9957 23.5706 65.9957 23.97C65.9957 24.2894 66.0625 24.7021 66.1959 25.2079C66.3294 25.7137 66.6096 25.9666 67.0367 25.9666C67.1435 25.9134 67.2636 25.8601 67.397 25.8069C67.5305 25.7536 67.6506 25.727 67.7574 25.727C67.8374 25.727 67.8775 25.7803 67.8775 25.8868C67.8775 26.0199 67.7974 26.1264 67.6373 26.2062C67.5038 26.2861 67.3837 26.326 67.2769 26.326C66.8766 26.326 66.4628 26.153 66.0358 25.8069C65.6087 25.4342 65.3418 25.0615 65.235 24.6888C65.1283 24.2894 65.0482 23.8901 64.9948 23.4908C64.9681 23.0648 64.9548 22.6521 64.9548 22.2528C64.9548 22.0665 64.9681 21.8002 64.9948 21.4541C65.0482 21.0814 65.0749 20.8418 65.0749 20.7353C64.9148 20.7353 64.7012 20.8551 64.4343 21.0947C64.1674 21.3077 63.9138 21.5473 63.6736 21.8135C63.4334 22.0531 63.2599 22.2395 63.1531 22.3726C63.0998 22.4259 63.0197 22.4791 62.9129 22.5324C62.8328 22.5856 62.7528 22.6521 62.6727 22.732C62.5659 22.8651 62.4458 23.0249 62.3124 23.2112C62.1789 23.371 62.0455 23.5174 61.912 23.6505C61.8586 23.7037 61.7385 23.7969 61.5517 23.93C61.3915 24.0631 61.2848 24.1696 61.2314 24.2495C61.0979 24.5157 60.9244 24.7686 60.7109 25.0082C60.4974 25.2478 60.2972 25.5007 60.1104 25.767C60.057 25.8468 60.0036 25.9533 59.9502 26.0864C59.8968 26.1929 59.8301 26.2728 59.75 26.326C59.6699 26.4325 59.5498 26.4858 59.3897 26.4858Z" fill="#4C2A00"/>
<path d="M59.1372 17.1016C59.0305 17.1016 58.897 17.0351 58.7369 16.902C58.5767 16.7688 58.4966 16.649 58.4966 16.5426C58.4966 16.4893 58.5901 16.3695 58.7769 16.1832C58.9637 15.9702 59.1639 15.7705 59.3775 15.5841C59.6177 15.3712 59.7645 15.2381 59.8179 15.1848C60.0314 15.2381 60.1381 15.3579 60.1381 15.5442C60.1381 15.6507 60.0714 15.8371 59.938 16.1033C59.8312 16.3429 59.6977 16.5692 59.5376 16.7822C59.4041 16.9951 59.2707 17.1016 59.1372 17.1016ZM54.8933 27.4444C54.8133 27.4444 54.7332 27.4178 54.6531 27.3645C54.5997 27.3113 54.533 27.2713 54.4529 27.2447C54.2661 27.085 54.1326 26.9519 54.0526 26.8454C53.9725 26.7389 53.9325 26.5525 53.9325 26.2863C53.9325 25.4344 54.1326 24.6224 54.533 23.8504C54.9334 23.0517 55.3071 22.293 55.654 21.5742C55.7074 21.5209 55.7208 21.4677 55.6941 21.4144C55.6674 21.3346 55.654 21.268 55.654 21.2148C55.654 20.9752 55.7475 20.7089 55.9343 20.4161C56.1478 20.0966 56.388 19.7905 56.655 19.4976C56.9219 19.2048 57.1354 18.9918 57.2955 18.8587C57.4557 18.8587 57.6959 18.8853 58.0162 18.9386C58.3365 18.9652 58.4966 19.085 58.4966 19.298C58.4966 19.3246 58.3632 19.4843 58.0963 19.7772C57.8294 20.07 57.6692 20.2564 57.6158 20.3362C57.2689 20.8687 56.8551 21.5076 56.3747 22.253C55.921 22.9718 55.5206 23.7173 55.1736 24.4893C54.8266 25.2614 54.6531 25.9935 54.6531 26.6856C54.9734 26.6324 55.3071 26.446 55.654 26.1266C56.0277 25.7805 56.308 25.4876 56.4948 25.248H56.5348V25.288C56.5348 25.3945 56.4815 25.501 56.3747 25.6074C56.2679 25.7139 56.1879 25.8071 56.1345 25.887C56.0277 26.0733 55.8542 26.3795 55.614 26.8054C55.4005 27.2314 55.1603 27.4444 54.8933 27.4444Z" fill="#4C2A00"/>
<path d="M48.8363 27.684C48.1424 27.684 47.6219 27.5243 47.2749 27.2048C46.9279 26.8853 46.701 26.4727 46.5943 25.9669C46.4875 25.461 46.4341 24.9419 46.4341 24.4095C46.4341 23.9835 46.3274 23.7572 46.1138 23.7306C45.9003 23.6773 45.8069 23.5842 45.8336 23.4511L46.6744 22.8121C46.6744 22.8121 46.7144 22.6657 46.7945 22.3729C46.9012 22.08 47.008 21.7739 47.1148 21.4544C47.2215 21.1349 47.2882 20.9486 47.3149 20.8953C47.2882 20.8154 47.355 20.5892 47.5151 20.2164C47.702 19.8437 47.9021 19.4311 48.1157 18.9785C48.3559 18.4993 48.5828 18.0867 48.7963 17.7406C49.0098 17.3679 49.1433 17.1682 49.1967 17.1416V17.1016H49.1566C49.2901 16.8887 49.3968 16.6757 49.4769 16.4627C49.5837 16.2497 49.7305 16.0634 49.9173 15.9036C49.9173 15.8504 50.0107 15.6907 50.1976 15.4244C50.4111 15.1316 50.5446 14.9452 50.5979 14.8654C51.2919 13.9336 52.0926 12.9219 53.0001 11.8304C53.9343 10.7123 54.9086 9.86038 55.9228 9.27469C56.0563 9.22144 56.1764 9.16819 56.2832 9.11495C56.3899 9.03508 56.4967 8.98184 56.6035 8.95522C56.6568 8.95522 56.6835 8.95522 56.6835 8.95522C56.7102 8.9286 56.7369 8.91528 56.7636 8.91528C57.0839 8.91528 57.4576 9.04839 57.8846 9.31462C58.3384 9.58084 58.5652 9.90031 58.5652 10.273C58.5652 10.5392 58.3784 10.9652 58.0047 11.5509C57.6578 12.11 57.2173 12.7489 56.6835 13.4677C56.1497 14.1599 55.5758 14.8654 54.9619 15.5842C54.3747 16.2763 53.8409 16.8887 53.3605 17.4211C52.88 17.9536 52.5331 18.3263 52.3195 18.5392C52.2395 18.6191 52.146 18.699 52.0393 18.7788C51.9325 18.8587 51.8257 18.9519 51.719 19.0584C51.5054 19.2714 51.2919 19.4976 51.0784 19.7372C50.8916 19.9768 50.678 20.2031 50.4378 20.4161C50.0908 20.7356 49.7438 21.055 49.3968 21.3745C49.0766 21.694 48.7429 22.0001 48.3959 22.293C48.2625 22.3995 48.1157 22.5193 47.9555 22.6524C47.8221 22.7855 47.6886 22.9186 47.5552 23.0517C47.4217 23.2115 47.3283 23.5043 47.2749 23.9303C47.2215 24.3562 47.1948 24.6757 47.1948 24.8887C47.1948 25.1283 47.2215 25.4477 47.2749 25.8471C47.355 26.2198 47.4884 26.5526 47.6753 26.8454C47.8621 27.1382 48.1157 27.2847 48.436 27.2847C48.5961 27.2847 48.7296 27.258 48.8363 27.2048C48.9698 27.1516 49.1032 27.085 49.2367 27.0051C50.0107 26.5792 50.7314 26.1 51.3987 25.5675C52.066 25.0085 52.6932 24.4228 53.2804 23.8105C53.4939 23.5975 53.6941 23.3845 53.881 23.1715C54.0945 22.9319 54.308 22.7056 54.5215 22.4927C54.5749 22.4394 54.6817 22.3329 54.8418 22.1732C55.002 22.0135 55.1354 21.9469 55.2422 21.9735C55.2155 22.1599 55.1087 22.3329 54.9219 22.4927C54.7618 22.6258 54.6283 22.7722 54.5215 22.9319C54.3614 23.1715 54.2146 23.4111 54.0811 23.6507C53.9477 23.8637 53.8142 24.1033 53.6808 24.3695C53.6274 24.476 53.5473 24.5825 53.4406 24.689C53.3338 24.7955 53.2404 24.902 53.1603 25.0085C52.7599 25.4877 52.3195 25.9269 51.8391 26.3263C51.3853 26.7256 50.8515 27.0584 50.2376 27.3246C49.9974 27.4311 49.7705 27.511 49.557 27.5642C49.3435 27.6441 49.1032 27.684 48.8363 27.684ZM48.0356 21.694C49.6104 20.2298 51.1451 18.7123 52.6398 17.1416C54.1345 15.5442 55.4557 13.8271 56.6035 11.9902C56.7369 11.7772 56.9104 11.4444 57.1239 10.9918C57.3641 10.5126 57.4843 10.1665 57.4843 9.95355C57.4843 9.79382 57.4442 9.70064 57.3642 9.67402C57.0439 9.78051 56.7636 9.92693 56.5234 10.1133C56.2832 10.2996 56.0296 10.4993 55.7627 10.7123C55.7093 10.7655 55.6159 10.8321 55.4824 10.912C55.3757 10.9652 55.2956 11.0184 55.2422 11.0717C55.0554 11.2847 54.8552 11.4976 54.6416 11.7106C54.4281 11.9236 54.2146 12.1366 54.0011 12.3496C53.7075 12.669 53.4272 13.0018 53.1603 13.3479C52.8934 13.694 52.6265 14.0401 52.3596 14.3862C51.7457 15.1582 51.2252 15.8504 50.7981 16.4627C50.3978 17.075 49.9307 17.8071 49.3968 18.659C49.2901 18.8188 49.1166 19.1116 48.8764 19.5376C48.6361 19.9369 48.4093 20.3496 48.1957 20.7755C48.0089 21.1748 47.9021 21.4677 47.8755 21.6541L48.0356 21.694Z" fill="#4C2A00"/>
<path d="M39.9666 27.2447C39.2993 27.2447 38.6321 27.0317 37.9648 26.6058C37.2975 26.1798 36.9639 25.5941 36.9639 24.8487C36.9639 24.7156 36.9639 24.5825 36.9639 24.4494C36.9906 24.3163 37.0039 24.1964 37.0039 24.09C37.0039 23.9302 36.8838 23.7971 36.6436 23.6906C36.4034 23.5575 36.2832 23.4111 36.2832 23.2514C36.3099 23.2247 36.35 23.2114 36.4034 23.2114C36.5101 23.2114 36.6169 23.238 36.7237 23.2913C36.8304 23.3179 36.9372 23.3312 37.0439 23.3312C37.124 23.3312 37.2174 23.3046 37.3242 23.2514C37.3776 23.1981 37.4843 22.9585 37.6445 22.5326C37.8313 22.1066 38.0982 21.5875 38.4452 20.9752C38.7922 20.3628 39.2326 19.7771 39.7664 19.2181C40.3003 18.6324 40.9408 18.1798 41.6882 17.8603C41.8483 17.8071 42.0085 17.7539 42.1686 17.7006C42.3555 17.6207 42.529 17.5808 42.6891 17.5808C42.9827 17.5808 43.2897 17.7006 43.61 17.9402C43.9569 18.1532 44.1304 18.4194 44.1304 18.7389C44.1304 18.9252 44.0904 19.0983 44.0103 19.258C43.9303 19.3911 43.8502 19.5375 43.7701 19.6973L43.5699 19.8171C43.4899 19.9502 43.3431 20.1366 43.1295 20.3762C42.9427 20.5891 42.8493 20.7489 42.8493 20.8554C42.8493 20.8554 42.8359 20.8554 42.8092 20.8554C42.8092 20.8554 42.8092 20.8687 42.8092 20.8953L42.6491 20.9352C42.4889 21.0417 42.3555 21.1748 42.2487 21.3346C42.142 21.4943 42.0218 21.6141 41.8884 21.694C41.3813 22.04 40.8741 22.3728 40.367 22.6923C39.8866 23.0118 39.3661 23.3046 38.8056 23.5708C38.6988 23.6241 38.5787 23.664 38.4452 23.6906C38.3118 23.7172 38.205 23.7838 38.1249 23.8903C38.0182 24.05 37.9381 24.2364 37.8847 24.4494C37.858 24.6623 37.8447 24.8753 37.8447 25.0883C37.8447 25.4078 37.9248 25.7672 38.0849 26.1665C38.245 26.5392 38.5253 26.7256 38.9257 26.7256C38.9791 26.7256 39.0191 26.7256 39.0458 26.7256C39.0992 26.6989 39.1392 26.6856 39.1659 26.6856C39.326 26.6856 39.4728 26.6723 39.6063 26.6457C39.7664 26.6191 39.9266 26.5925 40.0867 26.5658L40.327 26.446H40.367C40.5004 26.446 40.754 26.3529 41.1277 26.1665C41.5281 25.9535 41.9151 25.7405 42.2888 25.5276C42.6624 25.288 42.8893 25.1282 42.9694 25.0484C43.0228 25.0217 43.0628 24.9818 43.0895 24.9286C43.1429 24.8753 43.1829 24.8354 43.2096 24.8088C43.6633 24.4627 44.1304 24.1299 44.6109 23.8104C45.0913 23.491 45.5451 23.1182 45.9721 22.6923V22.7322H46.0522C46.0255 22.8653 45.9187 22.9984 45.7319 23.1316C45.5718 23.2647 45.4516 23.3978 45.3716 23.5309C45.078 24.0633 44.6109 24.5692 43.9703 25.0484C43.3297 25.5276 42.7425 25.9402 42.2087 26.2863C42.0218 26.4194 41.835 26.5658 41.6482 26.7256C41.488 26.8587 41.3012 26.9652 41.0877 27.045C40.6873 27.1781 40.3136 27.2447 39.9666 27.2447ZM38.4052 22.852C38.6187 22.852 38.8189 22.7722 39.0057 22.6124C39.2193 22.4261 39.3794 22.3196 39.4862 22.293L39.5262 22.3329V22.293C40.0334 22.0534 40.5138 21.7206 40.9675 21.2946C41.448 20.8687 41.8884 20.456 42.2888 20.0567H42.3688C42.3688 19.8969 42.4889 19.7239 42.7292 19.5375C42.9694 19.3246 43.0895 19.1515 43.0895 19.0184C43.1429 18.9652 43.1962 18.8853 43.2496 18.7788C43.303 18.6457 43.3297 18.5525 43.3297 18.4993C43.2496 18.446 43.1295 18.4194 42.9694 18.4194C42.8359 18.4727 42.6624 18.5658 42.4489 18.6989C42.2354 18.8321 42.0485 18.8986 41.8884 18.8986C41.8884 18.9252 41.7549 19.0317 41.488 19.2181C41.2478 19.4044 40.9942 19.6041 40.7273 19.8171C40.4604 20.0301 40.2869 20.1765 40.2068 20.2564C40.0734 20.3895 39.8599 20.6291 39.5663 20.9752C39.2727 21.3212 39.0057 21.6673 38.7655 22.0134C38.5253 22.3595 38.4052 22.6257 38.4052 22.8121V22.852Z" fill="#4C2A00"/>
<path d="M28.2524 27.8036C28.0923 27.8036 27.9321 27.7503 27.772 27.6438C27.6119 27.564 27.5051 27.4309 27.4517 27.2445C27.4517 27.2179 27.4517 27.1513 27.4517 27.0448C27.4784 26.965 27.5051 26.925 27.5318 26.925L29.4535 22.4126C29.6404 21.96 29.8406 21.4275 30.0541 20.8152C30.2676 20.1763 30.4278 19.5507 30.5345 18.9384C30.668 18.2994 30.708 17.7537 30.6546 17.3011C30.4945 17.3011 30.321 17.3277 30.1342 17.381C29.9473 17.4342 29.7738 17.4608 29.6137 17.4608C29.5603 17.4608 29.5336 17.4209 29.5336 17.341C29.5336 17.2612 29.5603 17.1813 29.6137 17.1014C29.6938 16.9949 29.8272 16.955 30.0141 16.9816C30.0674 17.0082 30.1875 17.0216 30.3744 17.0216C30.6947 17.0216 31.055 17.0349 31.4554 17.0615C31.8557 17.0615 32.0693 17.2345 32.096 17.5806C32.096 17.7137 32.0025 18.0199 31.8157 18.4991C31.6556 18.9783 31.442 19.524 31.1751 20.1364C30.9349 20.7487 30.708 21.3344 30.4945 21.8934C30.281 22.4259 30.1342 22.8252 30.0541 23.0914C29.9206 23.3577 29.8539 23.544 29.8539 23.6505H29.974C30.1875 23.3044 30.4278 22.9983 30.6947 22.732C30.9883 22.4392 31.2418 22.1197 31.4554 21.7736C31.6155 21.6671 31.8557 21.4142 32.176 21.0149C32.4963 20.5889 32.83 20.163 33.177 19.737C33.5506 19.2844 33.8976 18.965 34.2179 18.7786C34.2713 18.752 34.3914 18.6854 34.5782 18.579C34.7651 18.4458 34.8718 18.366 34.8985 18.3394C34.9786 18.3394 35.0587 18.3394 35.1388 18.3394C35.2455 18.3127 35.3389 18.2994 35.419 18.2994C35.4991 18.2994 35.5658 18.3127 35.6192 18.3394C35.6993 18.3394 35.7793 18.3394 35.8594 18.3394C35.9395 18.3394 36.113 18.4059 36.3799 18.539C36.6468 18.6455 36.9004 18.7786 37.1406 18.9384C37.3808 19.0715 37.5009 19.178 37.5009 19.2578C37.5009 19.4974 37.4075 19.6838 37.2207 19.8169C37.0338 19.9234 36.8737 20.0432 36.7402 20.1763C36.5534 20.4159 36.3399 20.6821 36.0996 20.975C35.8861 21.2412 35.7526 21.534 35.6993 21.8535L35.6592 22.0532L35.6192 22.0931C35.6192 22.0931 35.6058 22.0798 35.5792 22.0532C35.5792 22.0265 35.5658 22.0132 35.5391 22.0132L35.4991 22.0532C35.4991 21.5207 35.6325 21.0149 35.8994 20.5357C36.1664 20.0299 36.2998 19.524 36.2998 19.0182C36.2998 18.8851 36.2464 18.8186 36.1397 18.8186C35.9528 18.8186 35.6993 18.9384 35.379 19.178C35.0587 19.3909 34.7651 19.6172 34.4982 19.8568C34.2313 20.0698 34.0711 20.1763 34.0177 20.1763C33.9643 20.2828 33.8042 20.4558 33.5373 20.6954C33.2971 20.935 33.1236 21.0948 33.0168 21.1746C32.83 21.3344 32.6565 21.5207 32.4963 21.7337C32.3629 21.9467 32.2161 22.1597 32.0559 22.3726C32.0292 22.3993 31.9759 22.4392 31.8958 22.4924C31.8157 22.5457 31.749 22.5989 31.6956 22.6522C31.5888 22.8385 31.4554 23.0116 31.2952 23.1713C31.2418 23.2778 31.1885 23.3843 31.1351 23.4908C31.1084 23.5973 31.0417 23.7037 30.9349 23.8102L30.7347 23.8502C30.6279 24.0631 30.4945 24.2628 30.3343 24.4492C30.1742 24.6089 30.0274 24.782 29.8939 24.9683C29.7872 25.1547 29.6938 25.3543 29.6137 25.5673C29.5603 25.7803 29.4669 25.9666 29.3334 26.1264C29.1733 26.3394 28.9998 26.5923 28.813 26.8851C28.6528 27.1513 28.5727 27.4309 28.5727 27.7237H28.5327C28.4259 27.777 28.3325 27.8036 28.2524 27.8036Z" fill="#4C2A00"/>
<path d="M23.242 30C23.1086 30 22.895 29.9201 22.6014 29.7604C22.3078 29.6007 22.1077 29.4676 22.0009 29.3611C21.814 29.1481 21.6806 28.8952 21.6005 28.6023C21.5471 28.3095 21.5204 28.03 21.5204 27.7637C21.5204 26.8852 21.7206 25.8869 22.121 24.7687C22.5214 23.6506 22.9351 22.7055 23.3621 21.9334C23.4155 21.827 23.5223 21.6273 23.6824 21.3344C23.8693 21.0416 24.0428 20.7488 24.2029 20.4559C24.363 20.1631 24.4431 20.0033 24.4431 19.9767L23.7225 20.2163L23.4822 20.1764V20.2163C23.2153 20.4027 22.8683 20.5358 22.4413 20.6156C22.0142 20.6955 21.6539 20.802 21.3603 20.9351L20.1592 21.5341H20.0791C19.9724 21.5341 19.8789 21.4809 19.7989 21.3744C19.7455 21.2413 19.7188 21.1348 19.7188 21.0549C19.7188 20.975 19.8656 20.8819 20.1592 20.7754C20.4528 20.6423 20.7998 20.5092 21.2002 20.376C21.6272 20.2429 22.0142 20.1231 22.3612 20.0166C22.7349 19.9102 22.9751 19.8436 23.0819 19.817C23.4289 19.7371 23.7492 19.6439 24.0428 19.5374H24.0828V19.4975C24.2696 19.4975 24.4698 19.4443 24.6833 19.3378C25.1905 18.5924 25.6843 17.8602 26.1647 17.1414C26.6718 16.396 27.2457 15.7171 27.8863 15.1048L28.7671 14.2662C28.9806 14.0799 29.1408 13.9201 29.2475 13.787C29.3543 13.6539 29.5411 13.5208 29.808 13.3877C29.9949 13.4143 30.2484 13.5075 30.5687 13.6672C30.9157 13.827 31.0892 14.0133 31.0892 14.2263C31.0892 14.3062 30.9558 14.4393 30.6888 14.6256C30.4486 14.812 30.1951 14.9983 29.9281 15.1847C29.6612 15.3444 29.4744 15.4642 29.3676 15.5441L29.0874 15.624C28.7671 15.8902 28.4735 16.1697 28.2066 16.4626C27.9397 16.7554 27.6594 17.0483 27.3658 17.3411C27.2057 17.4742 27.0722 17.6473 26.9654 17.8602C26.8587 18.0732 26.7252 18.2596 26.5651 18.4193V18.579C26.5117 18.6057 26.4183 18.6855 26.2848 18.8186C26.178 18.9251 26.1247 19.005 26.1247 19.0582C26.5784 19.0849 27.0589 19.1248 27.566 19.178C28.0731 19.2313 28.5002 19.4443 28.8472 19.817C28.5536 19.7371 28.2733 19.6706 28.0064 19.6173C27.7662 19.5374 27.4993 19.4975 27.2057 19.4975C26.6718 19.4975 26.178 19.5774 25.7243 19.7371C25.7243 19.7371 25.6442 19.8569 25.4841 20.0965C25.3239 20.3361 25.1504 20.5757 24.9636 20.8153C24.8035 21.0283 24.7234 21.1481 24.7234 21.1747C24.6433 21.2812 24.4832 21.5474 24.2429 21.9734C24.0027 22.3727 23.7758 22.7721 23.5623 23.1714C23.3755 23.5441 23.2687 23.7438 23.242 23.7704C23.242 23.9035 23.202 24.0765 23.1219 24.2895C23.0418 24.5025 22.9751 24.6755 22.9217 24.8087L22.8817 24.8486V24.8885C22.8817 25.0483 22.8417 25.2213 22.7616 25.4077C22.6815 25.594 22.6148 25.7538 22.5614 25.8869C22.3212 26.6057 22.2011 27.3511 22.2011 28.1231C22.2011 28.3361 22.2278 28.6023 22.2811 28.9218C22.3612 29.2413 22.5214 29.4676 22.7616 29.6007C22.815 29.6273 22.9351 29.6539 23.1219 29.6805C23.3354 29.7072 23.4422 29.7604 23.4422 29.8403C23.4422 29.9468 23.3755 30 23.242 30ZM28.8872 19.817C28.8605 19.817 28.8472 19.817 28.8472 19.817C28.8472 19.817 28.8605 19.817 28.8872 19.817Z" fill="#4C2A00"/>
<path d="M10.7514 26.4858C10.5912 26.4858 10.4044 26.4059 10.1909 26.2462C10.004 26.0864 9.91061 25.9267 9.91061 25.767C9.91061 25.2611 10.0441 24.6488 10.311 23.93C10.5779 23.2112 10.8982 22.4658 11.2719 21.6937C11.6722 20.9217 12.0592 20.1896 12.4329 19.4974C12.8333 18.8052 13.1669 18.2329 13.4338 17.7803C13.5673 17.5407 13.6741 17.2878 13.7541 17.0215C13.8609 16.7553 14.0077 16.5157 14.1945 16.3027C14.4081 16.3294 14.6483 16.3959 14.9152 16.5024C15.2088 16.6089 15.3556 16.8086 15.3556 17.1014C15.3556 17.3144 15.2221 17.554 14.9552 17.8202C14.715 18.0598 14.5282 18.2595 14.3947 18.4192C13.8075 19.0848 13.2737 19.8036 12.7933 20.5756C12.3395 21.3477 11.9258 22.133 11.5521 22.9317C11.472 23.0914 11.4053 23.2512 11.3519 23.4109C11.2986 23.544 11.2452 23.6771 11.1918 23.8102C11.1384 23.9433 11.0717 24.0764 10.9916 24.2096C10.9115 24.316 10.8715 24.4358 10.8715 24.569C10.8715 24.6222 10.8848 24.6888 10.9115 24.7686C10.9382 24.8485 10.9916 24.8884 11.0717 24.8884C11.2852 24.6754 11.6188 24.316 12.0726 23.8102C12.5263 23.2778 13.0201 22.732 13.554 22.173C14.0878 21.5873 14.5682 21.0814 14.9953 20.6555C15.449 20.2295 15.756 19.9766 15.9161 19.8967C15.9695 19.8701 16.0229 19.8568 16.0763 19.8568C16.1296 19.8302 16.183 19.8169 16.2364 19.8169C16.6635 19.8169 16.9971 20.0165 17.2373 20.4159C17.4775 20.7886 17.5977 21.1613 17.5977 21.534C17.5977 21.96 17.5576 22.3726 17.4775 22.772C17.3975 23.1713 17.3574 23.5706 17.3574 23.97C17.3574 24.2894 17.4242 24.7021 17.5576 25.2079C17.6911 25.7137 17.9713 25.9666 18.3984 25.9666C18.5052 25.9134 18.6253 25.8601 18.7587 25.8069C18.8922 25.7536 19.0123 25.727 19.1191 25.727C19.1991 25.727 19.2392 25.7803 19.2392 25.8868C19.2392 26.0199 19.1591 26.1264 18.9989 26.2062C18.8655 26.2861 18.7454 26.326 18.6386 26.326C18.2382 26.326 17.8245 26.153 17.3975 25.8069C16.9704 25.4342 16.7035 25.0615 16.5967 24.6888C16.49 24.2894 16.4099 23.8901 16.3565 23.4908C16.3298 23.0648 16.3165 22.6521 16.3165 22.2528C16.3165 22.0665 16.3298 21.8002 16.3565 21.4541C16.4099 21.0814 16.4366 20.8418 16.4366 20.7353C16.2764 20.7353 16.0629 20.8551 15.796 21.0947C15.5291 21.3077 15.2755 21.5473 15.0353 21.8135C14.7951 22.0531 14.6216 22.2395 14.5148 22.3726C14.4615 22.4259 14.3814 22.4791 14.2746 22.5324C14.1945 22.5856 14.1145 22.6521 14.0344 22.732C13.9276 22.8651 13.8075 23.0249 13.6741 23.2112C13.5406 23.371 13.4072 23.5174 13.2737 23.6505C13.2203 23.7037 13.1002 23.7969 12.9134 23.93C12.7532 24.0631 12.6465 24.1696 12.5931 24.2495C12.4596 24.5157 12.2861 24.7686 12.0726 25.0082C11.8591 25.2478 11.6589 25.5007 11.472 25.767C11.4187 25.8468 11.3653 25.9533 11.3119 26.0864C11.2585 26.1929 11.1918 26.2728 11.1117 26.326C11.0316 26.4325 10.9115 26.4858 10.7514 26.4858Z" fill="#4C2A00"/>
<path d="M3.68338 27.2447C3.0161 27.2447 2.34882 27.0317 1.68154 26.6058C1.01426 26.1798 0.680624 25.5941 0.680624 24.8487C0.680624 24.7156 0.680624 24.5825 0.680624 24.4494C0.707315 24.3163 0.72066 24.1964 0.72066 24.09C0.72066 23.9302 0.60055 23.7971 0.36033 23.6906C0.12011 23.5575 0 23.4111 0 23.2514C0.0266911 23.2247 0.0667278 23.2114 0.12011 23.2114C0.226875 23.2114 0.333639 23.238 0.440404 23.2913C0.547168 23.3179 0.653933 23.3312 0.760697 23.3312C0.84077 23.3312 0.934189 23.3046 1.04095 23.2514C1.09434 23.1981 1.2011 22.9585 1.36125 22.5326C1.54809 22.1066 1.815 21.5875 2.16198 20.9752C2.50897 20.3628 2.94937 19.7771 3.48319 19.2181C4.01701 18.6324 4.6576 18.1798 5.40495 17.8603C5.5651 17.8071 5.72525 17.7539 5.88539 17.7006C6.07223 17.6207 6.24572 17.5808 6.40587 17.5808C6.69947 17.5808 7.00642 17.7006 7.32671 17.9402C7.6737 18.1532 7.84719 18.4194 7.84719 18.7389C7.84719 18.9252 7.80715 19.0983 7.72708 19.258C7.64701 19.3911 7.56693 19.5375 7.48686 19.6973L7.28668 19.8171C7.2066 19.9502 7.0598 20.1366 6.84627 20.3762C6.65944 20.5891 6.56602 20.7489 6.56602 20.8554C6.56602 20.8554 6.55267 20.8554 6.52598 20.8554C6.52598 20.8554 6.52598 20.8687 6.52598 20.8953L6.36583 20.9352C6.20569 21.0417 6.07223 21.1748 5.96547 21.3346C5.8587 21.4943 5.73859 21.6141 5.60514 21.694C5.098 22.04 4.59087 22.3728 4.08374 22.6923C3.6033 23.0118 3.08282 23.3046 2.52231 23.5708C2.41555 23.6241 2.29544 23.664 2.16198 23.6906C2.02853 23.7172 1.92176 23.7838 1.84169 23.8903C1.73492 24.05 1.65485 24.2364 1.60147 24.4494C1.57478 24.6623 1.56143 24.8753 1.56143 25.0883C1.56143 25.4078 1.6415 25.7672 1.80165 26.1665C1.9618 26.5392 2.24205 26.7256 2.64242 26.7256C2.6958 26.7256 2.73584 26.7256 2.76253 26.7256C2.81591 26.6989 2.85595 26.6856 2.88264 26.6856C3.04279 26.6856 3.18959 26.6723 3.32304 26.6457C3.48319 26.6191 3.64334 26.5925 3.80349 26.5658L4.04371 26.446H4.08374C4.2172 26.446 4.47076 26.3529 4.84444 26.1665C5.24481 25.9535 5.63183 25.7405 6.0055 25.5276C6.37918 25.288 6.60605 25.1282 6.68613 25.0484C6.73951 25.0217 6.77955 24.9818 6.80624 24.9286C6.85962 24.8753 6.89966 24.8354 6.92635 24.8088C7.3801 24.4627 7.84719 24.1299 8.32763 23.8104C8.80807 23.491 9.26182 23.1182 9.68888 22.6923V22.7322H9.76895C9.74226 22.8653 9.6355 22.9984 9.44866 23.1316C9.28851 23.2647 9.1684 23.3978 9.08833 23.5309C8.79473 24.0633 8.32763 24.5692 7.68704 25.0484C7.04646 25.5276 6.45925 25.9402 5.92543 26.2863C5.73859 26.4194 5.55175 26.5658 5.36492 26.7256C5.20477 26.8587 5.01793 26.9652 4.8044 27.045C4.40404 27.1781 4.03036 27.2447 3.68338 27.2447ZM2.12194 22.852C2.33547 22.852 2.53566 22.7722 2.72249 22.6124C2.93602 22.4261 3.09617 22.3196 3.20293 22.293L3.24297 22.3329V22.293C3.7501 22.0534 4.23054 21.7206 4.68429 21.2946C5.16473 20.8687 5.60514 20.456 6.0055 20.0567H6.08558C6.08558 19.8969 6.20569 19.7239 6.44591 19.5375C6.68613 19.3246 6.80624 19.1515 6.80624 19.0184C6.85962 18.9652 6.913 18.8853 6.96638 18.7788C7.01977 18.6457 7.04646 18.5525 7.04646 18.4993C6.96638 18.446 6.84627 18.4194 6.68613 18.4194C6.55267 18.4727 6.37918 18.5658 6.16565 18.6989C5.95212 18.8321 5.76528 18.8986 5.60514 18.8986C5.60514 18.9252 5.47168 19.0317 5.20477 19.2181C4.96455 19.4044 4.71098 19.6041 4.44407 19.8171C4.17716 20.0301 4.00367 20.1765 3.9236 20.2564C3.79014 20.3895 3.57661 20.6291 3.28301 20.9752C2.98941 21.3212 2.72249 21.6673 2.48227 22.0134C2.24205 22.3595 2.12194 22.6257 2.12194 22.8121V22.852Z" fill="#4C2A00"/>
</g>
<defs>
<clipPath id="clip0_55_259">
<rect width="103" height="36" fill="white"/>
</clipPath>
</defs>
</svg>
