<svg width="16" height="18" viewBox="0 0 16 18" fill="none" xmlns="http://www.w3.org/2000/svg">
<path d="M15.0857 16.65C14.3746 16.65 13.6127 16.05 12.8 14.85C11.9873 13.6 11.3016 12.075 10.7429 10.275C10.1841 8.475 9.90476 6.775 9.90476 5.175C9.90476 3.475 10.0317 2.2 10.2857 1.35C10.5905 0.450001 11.073 0 11.7333 0C12.8 0 13.5873 0.375001 14.0952 1.125C14.654 1.825 14.9333 2.65 14.9333 3.6C14.9333 4.05 14.9079 4.375 14.8571 4.575C14.5524 6.125 14.4 7.5 14.4 8.7C14.4 10.6 14.654 12.2 15.1619 13.5C15.6698 14.75 15.9492 15.475 16 15.675V15.825C16 16.375 15.6952 16.65 15.0857 16.65ZM5.94286 18C5.23175 18 4.39365 17.275 3.42857 15.825C2.51429 14.325 1.70159 12.55 0.990476 10.5C0.330159 8.45 0 6.625 0 5.025C0 3.625 0.507936 2.6 1.52381 1.95C2.53968 1.25 3.55556 0.900002 4.57143 0.900002C5.5873 0.900002 6.09524 1.15 6.09524 1.65C6.09524 1.9 5.91746 2.35 5.5619 3C5.20635 3.6 5.00317 4.075 4.95238 4.425C4.69841 5.825 4.57143 7.025 4.57143 8.025C4.57143 10.375 5.15556 12.9 6.32381 15.6C6.57778 16.05 6.75556 16.525 6.85714 17.025V17.175C6.85714 17.725 6.55238 18 5.94286 18Z" fill="#CC7000"/>
</svg>
