<svg width="24" height="24" viewBox="0 0 24 24" fill="none" xmlns="http://www.w3.org/2000/svg">
<path d="M12.0213 22.1495C10.6096 22.1495 9.28621 21.8818 8.05104 21.3465C6.81588 20.8112 5.73946 20.0843 4.82179 19.166C3.90396 18.2475 3.17613 17.1701 2.63829 15.9338C2.10046 14.6974 1.83154 13.3728 1.83154 11.9598C1.83154 9.78292 2.46538 7.80634 3.73304 6.03C5.00054 4.2535 6.67921 3.01325 8.76904 2.30925C8.95638 2.24259 9.13754 2.22592 9.31254 2.25925C9.48754 2.29259 9.63963 2.35817 9.76879 2.456C9.87696 2.5455 9.96021 2.67259 10.0185 2.83725C10.0769 3.00192 10.0997 3.20092 10.087 3.43425C10.045 4.88275 10.2735 6.2495 10.7725 7.5345C11.2715 8.8195 12.018 9.958 13.012 10.95C13.996 11.934 15.1307 12.6792 16.416 13.1855C17.7014 13.6918 19.0744 13.928 20.535 13.894C20.7602 13.8853 20.9548 13.9112 21.1188 13.9715C21.283 14.032 21.4173 14.1245 21.5218 14.249C21.6218 14.3863 21.6865 14.5383 21.7158 14.705C21.7451 14.8717 21.7285 15.0486 21.6658 15.2358C20.9618 17.3011 19.7277 18.9697 17.9635 20.2415C16.1995 21.5135 14.2188 22.1495 12.0213 22.1495ZM12.0213 20.4463C13.6361 20.4463 15.108 19.9912 16.4368 19.081C17.7656 18.1708 18.8447 17.0103 19.674 15.5995C18.1979 15.4502 16.7781 15.0963 15.4148 14.538C14.0513 13.9797 12.8474 13.1815 11.803 12.1435C10.7587 11.1055 9.96054 9.91092 9.40854 8.55975C8.85654 7.20876 8.50388 5.80151 8.35054 4.33801C6.94771 5.14201 5.79538 6.21092 4.89354 7.54475C3.99171 8.87859 3.54079 10.3503 3.54079 11.9598C3.54079 14.3204 4.36446 16.325 6.01179 17.9735C7.65913 19.622 9.66229 20.4463 12.0213 20.4463ZM14.7593 6.769L13.22 5.21075C13.0502 5.04059 12.9653 4.84059 12.9653 4.61075C12.9653 4.38109 13.0502 4.17934 13.22 4.0055L14.7593 2.44725C14.9296 2.27742 15.1286 2.1925 15.3563 2.1925C15.584 2.1925 15.7848 2.27742 15.9588 2.44725L17.5168 4.0055C17.6868 4.17934 17.7718 4.38109 17.7718 4.61075C17.7718 4.84059 17.6868 5.04059 17.5168 5.21075L15.9588 6.769C15.7848 6.939 15.584 7.02401 15.3563 7.02401C15.1286 7.02401 14.9296 6.939 14.7593 6.769ZM19.7593 9.83475L19.1593 9.24075C18.9893 9.07042 18.9043 8.87142 18.9043 8.64375C18.9043 8.41609 18.9893 8.21526 19.1593 8.04126L19.7593 7.44126C19.9296 7.27142 20.1286 7.18651 20.3563 7.18651C20.584 7.18651 20.7848 7.27142 20.9588 7.44126L21.5528 8.04126C21.7226 8.21526 21.8075 8.41609 21.8075 8.64375C21.8075 8.87142 21.7226 9.07042 21.5528 9.24075L20.9588 9.83475C20.7848 10.0088 20.584 10.0958 20.3563 10.0958C20.1286 10.0958 19.9296 10.0088 19.7593 9.83475Z" fill="#4C2A00"/>
</svg>
