<svg width="24" height="24" viewBox="0 0 24 24" fill="none" xmlns="http://www.w3.org/2000/svg">
<path d="M11.1481 2.96425V1.71425C11.1481 1.47375 11.2304 1.27167 11.3951 1.108C11.5596 0.944337 11.7626 0.862503 12.0043 0.862503C12.2458 0.862503 12.4474 0.944337 12.6091 1.108C12.7707 1.27167 12.8516 1.47375 12.8516 1.71425V2.96425C12.8516 3.20459 12.7692 3.40659 12.6046 3.57025C12.4401 3.73392 12.237 3.81575 11.9953 3.81575C11.7538 3.81575 11.5522 3.73392 11.3906 3.57025C11.2289 3.40659 11.1481 3.20459 11.1481 2.96425ZM11.1481 22.2858V21.0358C11.1481 20.7954 11.2304 20.5934 11.3951 20.4298C11.5596 20.2661 11.7626 20.1843 12.0043 20.1843C12.2458 20.1843 12.4474 20.2661 12.6091 20.4298C12.7707 20.5934 12.8516 20.7954 12.8516 21.0358V22.2858C12.8516 22.5263 12.7692 22.7283 12.6046 22.892C12.4401 23.0557 12.237 23.1375 11.9953 23.1375C11.7538 23.1375 11.5522 23.0557 11.3906 22.892C11.2289 22.7283 11.1481 22.5263 11.1481 22.2858ZM22.2856 12.8518H21.0356C20.7952 12.8518 20.5932 12.7694 20.4296 12.6048C20.2659 12.4403 20.1841 12.2372 20.1841 11.9955C20.1841 11.754 20.2659 11.5524 20.4296 11.3908C20.5932 11.2291 20.7952 11.1483 21.0356 11.1483H22.2856C22.5261 11.1483 22.7281 11.2306 22.8918 11.3953C23.0555 11.5598 23.1373 11.7628 23.1373 12.0045C23.1373 12.246 23.0555 12.4476 22.8918 12.6093C22.7281 12.7709 22.5261 12.8518 22.2856 12.8518ZM2.96405 12.8518H1.71405C1.47355 12.8518 1.27147 12.7694 1.1078 12.6048C0.944138 12.4403 0.862305 12.2372 0.862305 11.9955C0.862305 11.754 0.944138 11.5524 1.1078 11.3908C1.27147 11.2291 1.47355 11.1483 1.71405 11.1483H2.96405C3.20439 11.1483 3.40639 11.2306 3.57005 11.3953C3.73372 11.5598 3.81555 11.7628 3.81555 12.0045C3.81555 12.246 3.73372 12.4476 3.57005 12.6093C3.40639 12.7709 3.20439 12.8518 2.96405 12.8518ZM19.7766 5.42275L19.1706 6.02275C18.9966 6.19275 18.7956 6.27359 18.5678 6.26525C18.3398 6.25692 18.1409 6.16775 17.9711 5.99775C17.8011 5.82792 17.7171 5.62484 17.7191 5.3885C17.7211 5.15234 17.8071 4.94925 17.9771 4.77925L18.5521 4.20425C18.7219 4.03442 18.9258 3.9495 19.1638 3.9495C19.4018 3.9495 19.6049 4.03442 19.7731 4.20425C19.9412 4.37425 20.0263 4.57734 20.0283 4.8135C20.0303 5.04984 19.9464 5.25292 19.7766 5.42275ZM6.04755 19.1958L5.44756 19.7958C5.27772 19.9656 5.0788 20.0463 4.8508 20.038C4.62297 20.0297 4.42405 19.9406 4.25405 19.7708C4.08422 19.6008 3.9983 19.3977 3.9963 19.1615C3.9943 18.9252 4.08022 18.7221 4.25405 18.5523L4.82905 17.9773C4.99472 17.8073 5.19772 17.7223 5.43805 17.7223C5.67855 17.7223 5.88372 17.8073 6.05355 17.9773C6.22355 18.1471 6.30755 18.3502 6.30555 18.5865C6.30355 18.8227 6.21756 19.0258 6.04755 19.1958ZM18.5521 19.7708L17.9521 19.1958C17.7821 19.0218 17.7012 18.8167 17.7096 18.5805C17.7179 18.3442 17.8071 18.1411 17.9771 17.9713C18.1469 17.8013 18.35 17.7173 18.5863 17.7193C18.8225 17.7213 19.0256 17.8073 19.1956 17.9773L19.7706 18.5773C19.9404 18.7471 20.0253 18.9476 20.0253 19.1788C20.0253 19.4099 19.9404 19.6073 19.7706 19.7708C19.6006 19.9406 19.3975 20.0265 19.1613 20.0285C18.925 20.0305 18.7219 19.9446 18.5521 19.7708ZM4.82905 5.99775L4.22905 5.42275C4.05922 5.25292 3.97847 5.04984 3.9868 4.8135C3.99514 4.57734 4.08422 4.37425 4.25405 4.20425C4.42405 4.03442 4.62714 3.9485 4.8633 3.9465C5.09964 3.9445 5.30272 4.02842 5.47255 4.19825L6.04755 4.80425C6.21756 4.97825 6.30255 5.18 6.30255 5.4095C6.30255 5.63917 6.21756 5.83725 6.04755 6.00375C5.87772 6.17375 5.67464 6.25775 5.4383 6.25575C5.20214 6.25375 4.99905 6.16775 4.82905 5.99775ZM11.9953 17.625C10.4316 17.625 9.10397 17.0777 8.0123 15.983C6.92064 14.8885 6.3748 13.5593 6.3748 11.9955C6.3748 10.4318 6.92214 9.10417 8.0168 8.0125C9.1113 6.92084 10.4405 6.375 12.0043 6.375C13.568 6.375 14.8956 6.92234 15.9873 8.017C17.079 9.1115 17.6248 10.4407 17.6248 12.0045C17.6248 13.5682 17.0775 14.8958 15.9828 15.9875C14.8883 17.0792 13.5591 17.625 11.9953 17.625ZM11.9981 15.9158C13.0934 15.9158 14.0211 15.5373 14.7813 14.7803C15.5415 14.0231 15.9216 13.0969 15.9216 12.0018C15.9216 10.9064 15.5421 9.97867 14.7831 9.2185C14.0239 8.45834 13.0967 8.07825 12.0016 8.07825C10.9062 8.07825 9.97947 8.45775 9.2213 9.21675C8.46314 9.97592 8.08405 10.9031 8.08405 11.9983C8.08405 13.0936 8.46255 14.0203 9.21955 14.7785C9.97672 15.5367 10.9029 15.9158 11.9981 15.9158Z" fill="#FFE8CC"/>
</svg>
    